
<?xml version="1.0" encoding="UTF-8"?>
<svg width="19px" height="19px" viewBox="0 0 19 19" version="1.1" xmlns="http://www.w3.org/2000/svg" xmlns:xlink="http://www.w3.org/1999/xlink">
    <title>B9D1A7CE-B173-43C7-BE7E-2E3DE16D1094</title>
    <g id="Page-1" stroke="none" stroke-width="1" fill="none" fill-rule="evenodd">
        <g id="Homepage" transform="translate(-1259.000000, -68.000000)" fill="#00205C" fill-rule="nonzero">
            <g id="Icon/Settings" transform="translate(1259.000000, 68.000000)">
                <path d="M7.24142157,18.9068627 L6.75245098,15.9264706 C6.48856209,15.8333333 6.20138889,15.6975082 5.89093137,15.5189951 C5.58047386,15.340482 5.30882353,15.1580882 5.07598039,14.9718137 L2.30514706,16.252451 L0,12.2009804 L2.56127451,10.3382353 C2.53022876,10.2140523 2.51082516,10.066585 2.50306373,9.89583333 C2.49530229,9.7250817 2.49142157,9.57761438 2.49142157,9.45343137 C2.49142157,9.32924837 2.49530229,9.18178105 2.50306373,9.01102941 C2.51082516,8.84027778 2.53022876,8.69281046 2.56127451,8.56862745 L0,6.70588235 L2.30514706,2.65441176 L5.09926471,3.93504902 C5.31658497,3.74877451 5.58047386,3.57026144 5.89093137,3.3995098 C6.20138889,3.22875817 6.48856209,3.09681373 6.75245098,3.00367647 L7.24142157,0 L11.7585784,0 L12.247549,2.98039216 C12.5114379,3.08905229 12.8024918,3.22487745 13.1207108,3.38786765 C13.4389297,3.55085784 13.7066993,3.73325163 13.9240196,3.93504902 L16.7181373,2.65441176 L19,6.70588235 L16.4387255,8.52205882 C16.4697712,8.66176471 16.4891748,8.81699346 16.4969363,8.9877451 C16.5046977,9.15849673 16.5085784,9.31372549 16.5085784,9.45343137 C16.5085784,9.59313725 16.5046977,9.74448529 16.4969363,9.90747549 C16.4891748,10.0704657 16.4697712,10.2218137 16.4387255,10.3615196 L19,12.2009804 L16.6948529,16.252451 L13.9007353,14.9718137 C13.683415,15.1580882 13.4234069,15.3443627 13.1207108,15.5306373 C12.8180147,15.7169118 12.5269608,15.8488562 12.247549,15.9264706 L11.7585784,18.9068627 L7.24142157,18.9068627 Z M9.5,12.4803922 C10.3382353,12.4803922 11.0522876,12.1854575 11.6421569,11.5955882 C12.2320261,11.005719 12.5269608,10.2916667 12.5269608,9.45343137 C12.5269608,8.61519608 12.2320261,7.90114379 11.6421569,7.31127451 C11.0522876,6.72140523 10.3382353,6.42647059 9.5,6.42647059 C8.66176471,6.42647059 7.94771242,6.72140523 7.35784314,7.31127451 C6.76797386,7.90114379 6.47303922,8.61519608 6.47303922,9.45343137 C6.47303922,10.2916667 6.76797386,11.005719 7.35784314,11.5955882 C7.94771242,12.1854575 8.66176471,12.4803922 9.5,12.4803922 Z M9.5,11.0833333 C9.03431373,11.0833333 8.64624183,10.9242239 8.33578431,10.6060049 C8.0253268,10.2877859 7.87009804,9.90359477 7.87009804,9.45343137 C7.87009804,9.00326797 8.0253268,8.6190768 8.33578431,8.30085784 C8.64624183,7.98263889 9.03431373,7.82352941 9.5,7.82352941 C9.9501634,7.82352941 10.3343546,7.98263889 10.6525735,8.30085784 C10.9707925,8.6190768 11.129902,9.00326797 11.129902,9.45343137 C11.129902,9.90359477 10.9707925,10.2877859 10.6525735,10.6060049 C10.3343546,10.9242239 9.9501634,11.0833333 9.5,11.0833333 Z M8.52205882,17.3235294 L10.4779412,17.3235294 L10.8039216,14.7156863 C11.3161765,14.5915033 11.8051471,14.3974673 12.2708333,14.1335784 C12.7365196,13.8696895 13.1556373,13.5437092 13.5281863,13.1556373 L15.9963235,14.2267157 L16.8811275,12.620098 L14.692402,11.0367647 C14.7544935,10.7728758 14.8088235,10.5089869 14.8553922,10.245098 C14.9019608,9.98120915 14.9252451,9.71732026 14.9252451,9.45343137 C14.9252451,9.18954248 14.9058415,8.92565359 14.8670343,8.66176471 C14.8282271,8.39787582 14.7700163,8.13398693 14.692402,7.87009804 L16.8811275,6.28676471 L15.9963235,4.68014706 L13.5281863,5.75122549 C13.1711601,5.33210784 12.7636846,4.98284314 12.3057598,4.70343137 C11.847835,4.42401961 11.3472222,4.25326797 10.8039216,4.19117647 L10.4779412,1.58333333 L8.52205882,1.58333333 L8.19607843,4.19117647 C7.66830065,4.28431373 7.17156863,4.46670752 6.70588235,4.73835784 C6.24019608,5.01000817 5.82107843,5.34763072 5.44852941,5.75122549 L3.00367647,4.68014706 L2.11887255,6.28676471 L4.28431373,7.87009804 C4.22222222,8.13398693 4.17177288,8.39787582 4.13296569,8.66176471 C4.0941585,8.92565359 4.0747549,9.18954248 4.0747549,9.45343137 C4.0747549,9.71732026 4.0941585,9.98120915 4.13296569,10.245098 C4.17177288,10.5089869 4.22222222,10.7728758 4.28431373,11.0367647 L2.11887255,12.620098 L3.00367647,14.2267157 L5.44852941,13.1556373 C5.83660131,13.5437092 6.26348039,13.8696895 6.72916667,14.1335784 C7.19485294,14.3974673 7.68382353,14.5915033 8.19607843,14.7156863 L8.52205882,17.3235294 Z" id="Shape"></path>
            </g>
        </g>
    </g>
</svg>