<?xml version="1.0" encoding="UTF-8" standalone="no"?>
<!-- Created with Inkscape (http://www.inkscape.org/) -->

<svg
   version="1.1"
   id="svg2"
   xml:space="preserve"
   width="1081.2533"
   height="580.58667"
   viewBox="0 0 1081.2533 580.58667"
   sodipodi:docname="DBC-logo.eps"
   xmlns:inkscape="http://www.inkscape.org/namespaces/inkscape"
   xmlns:sodipodi="http://sodipodi.sourceforge.net/DTD/sodipodi-0.dtd"
   xmlns="http://www.w3.org/2000/svg"
   xmlns:svg="http://www.w3.org/2000/svg"><defs
     id="defs6"><clipPath
       clipPathUnits="userSpaceOnUse"
       id="clipPath18"><path
         d="m 5390.26,3766.49 v -630.94 h 126.72 v 251.67 c 0,94.16 42.24,124.07 95.92,124.07 43.99,0 74.8,-24.63 74.8,-91.51 v -284.23 h 129.35 v 303.59 c 0,131.11 -66.87,177.75 -166.31,177.75 -51.04,0 -101.2,-22.87 -133.76,-73.04 v 222.64 z"
         id="path16" /></clipPath><linearGradient
       x1="0"
       y1="0"
       x2="1"
       y2="0"
       gradientUnits="userSpaceOnUse"
       gradientTransform="matrix(3860.21,0,0,-3860.21,62.7695,3451.02)"
       spreadMethod="pad"
       id="linearGradient24"><stop
         style="stop-opacity:1;stop-color:#fab720"
         offset="0"
         id="stop20" /><stop
         style="stop-opacity:1;stop-color:#f47052"
         offset="1"
         id="stop22" /></linearGradient><clipPath
       clipPathUnits="userSpaceOnUse"
       id="clipPath34"><path
         d="m 3743.78,88.0313 c -46.15,0 -81.64,31.2387 -81.64,112.8907 0,73.84 32.65,110.758 81.64,110.758 52.54,0 83.78,-41.891 83.78,-115.02 0,-77.39 -38.34,-108.6287 -83.78,-108.6287 z M 3929.09,13.4805 V 391.199 h -100.82 v -56.09 c -20.59,41.891 -59.64,66.032 -107.21,66.032 -97.26,0 -164,-74.551 -164,-208.743 0,-119.9878 75.25,-190.98784 156.9,-190.98784 59.64,0 92.3,26.98044 115.02,64.60934 v -52.539 z"
         id="path32" /></clipPath><linearGradient
       x1="0"
       y1="0"
       x2="1"
       y2="0"
       gradientUnits="userSpaceOnUse"
       gradientTransform="matrix(3860.19,0,0,-3860.19,112.757,201.27)"
       spreadMethod="pad"
       id="linearGradient40"><stop
         style="stop-opacity:1;stop-color:#fab720"
         offset="0"
         id="stop36" /><stop
         style="stop-opacity:1;stop-color:#f47052"
         offset="1"
         id="stop38" /></linearGradient><clipPath
       clipPathUnits="userSpaceOnUse"
       id="clipPath50"><path
         d="m 6346.81,2806.49 v -630.94 h 126.72 v 251.67 c 0,94.16 42.23,124.07 95.91,124.07 44,0 74.8,-24.63 74.8,-91.51 v -284.23 h 129.35 v 303.59 c 0,131.11 -66.87,177.75 -166.3,177.75 -51.05,0 -101.21,-22.88 -133.76,-73.04 v 222.64 z"
         id="path48" /></clipPath><linearGradient
       x1="0"
       y1="0"
       x2="1"
       y2="0"
       gradientUnits="userSpaceOnUse"
       gradientTransform="matrix(3860.21,0,0,-3860.21,62.7495,2491.02)"
       spreadMethod="pad"
       id="linearGradient56"><stop
         style="stop-opacity:1;stop-color:#fab720"
         offset="0"
         id="stop52" /><stop
         style="stop-opacity:1;stop-color:#f47052"
         offset="1"
         id="stop54" /></linearGradient><clipPath
       clipPathUnits="userSpaceOnUse"
       id="clipPath66"><path
         d="m 4614.1,3731.29 v -132 h -65.12 v -88.88 h 65.12 v -285.99 c 0,-73.03 40.48,-95.03 144.32,-95.03 19.36,0 38.72,0 58.07,0.88 v 95.03 c -5.27,-0.88 -16.71,-0.88 -23.76,-0.88 -43.99,0 -52.79,5.28 -52.79,44 v 241.99 h 76.55 v 88.88 h -76.55 v 132 z"
         id="path64" /></clipPath><linearGradient
       x1="0"
       y1="0"
       x2="1"
       y2="0"
       gradientUnits="userSpaceOnUse"
       gradientTransform="matrix(3860.22,0,0,-3860.22,62.7611,3430.34)"
       spreadMethod="pad"
       id="linearGradient72"><stop
         style="stop-opacity:1;stop-color:#fab720"
         offset="0"
         id="stop68" /><stop
         style="stop-opacity:1;stop-color:#f47052"
         offset="1"
         id="stop70" /></linearGradient><clipPath
       clipPathUnits="userSpaceOnUse"
       id="clipPath82"><path
         d="m 4051.79,3604.57 v -300.95 c 0,-117.92 52.79,-178.63 161.03,-178.63 73.04,0 112.64,32.55 143.44,76.55 l -0.89,-65.99 h 124.96 v 469.02 H 4350.1 v -252.55 c 0,-89.76 -32.56,-122.32 -94.16,-122.32 -53.68,0 -73.92,26.4 -73.92,94.16 v 280.71 z"
         id="path80" /></clipPath><linearGradient
       x1="0"
       y1="0"
       x2="1"
       y2="0"
       gradientUnits="userSpaceOnUse"
       gradientTransform="matrix(3860.21,0,0,-3860.21,62.753,3364.78)"
       spreadMethod="pad"
       id="linearGradient88"><stop
         style="stop-opacity:1;stop-color:#fab720"
         offset="0"
         id="stop84" /><stop
         style="stop-opacity:1;stop-color:#f47052"
         offset="1"
         id="stop86" /></linearGradient><clipPath
       clipPathUnits="userSpaceOnUse"
       id="clipPath98"><path
         d="m 6769.04,315.941 v 71.707 h -61.76 v 106.5 h -101.54 v -106.5 h -52.54 v -71.707 h 52.54 V 85.1914 c 0,-58.9297 32.66,-76.67968 116.44,-76.67968 15.62,0 31.24,0 46.86,0.70703 V 85.8984 c -4.25,-0.707 -13.49,-0.707 -19.17,-0.707 -35.49,0 -42.59,4.2578 -42.59,35.4996 v 195.25 z"
         id="path96" /></clipPath><linearGradient
       x1="0"
       y1="0"
       x2="1"
       y2="0"
       gradientUnits="userSpaceOnUse"
       gradientTransform="matrix(3860.21,0,0,-3860.21,112.753,251.33)"
       spreadMethod="pad"
       id="linearGradient104"><stop
         style="stop-opacity:1;stop-color:#fab720"
         offset="0"
         id="stop100" /><stop
         style="stop-opacity:1;stop-color:#f47052"
         offset="1"
         id="stop102" /></linearGradient><clipPath
       clipPathUnits="userSpaceOnUse"
       id="clipPath114"><path
         d="m 3696.26,1197.95 c 190.96,0 261.36,138.15 268.4,231.43 h -135.52 c -13.2,-73.92 -64.24,-113.52 -135.52,-113.52 -79.2,0 -150.48,57.2 -150.48,209.44 0,150.47 65.13,218.23 149.6,218.23 86.24,0 124.97,-41.36 137.28,-107.35 h 136.4 c -3.52,110 -86.24,224.39 -267.51,224.39 -168.96,0 -296.56,-105.6 -296.56,-334.39 0,-225.28 130.24,-328.23 293.91,-328.23 z"
         id="path112" /></clipPath><linearGradient
       x1="0"
       y1="0"
       x2="1"
       y2="0"
       gradientUnits="userSpaceOnUse"
       gradientTransform="matrix(3860.2,0,0,-3860.2,62.7581,1529.26)"
       spreadMethod="pad"
       id="linearGradient120"><stop
         style="stop-opacity:1;stop-color:#fab720"
         offset="0"
         id="stop116" /><stop
         style="stop-opacity:1;stop-color:#f47052"
         offset="1"
         id="stop118" /></linearGradient><clipPath
       clipPathUnits="userSpaceOnUse"
       id="clipPath130"><path
         d="m 6410.18,1593.05 c 65.11,0 109.11,-47.52 109.11,-145.19 0,-90.64 -42.24,-142.56 -109.11,-142.56 -68.65,0 -109.13,48.4 -109.13,144.31 0,117.92 58.08,143.44 109.13,143.44 z m -242,-143.44 c 0,-148.71 90.64,-250.78 242.87,-250.78 159.27,0 241.12,105.59 241.12,249.03 0,154.88 -87.12,251.68 -241.99,251.68 -156.64,0 -242,-105.61 -242,-249.93 z"
         id="path128" /></clipPath><linearGradient
       x1="0"
       y1="0"
       x2="1"
       y2="0"
       gradientUnits="userSpaceOnUse"
       gradientTransform="matrix(3860.2,0,0,-3860.2,62.7768,1449.18)"
       spreadMethod="pad"
       id="linearGradient136"><stop
         style="stop-opacity:1;stop-color:#fab720"
         offset="0"
         id="stop132" /><stop
         style="stop-opacity:1;stop-color:#f47052"
         offset="1"
         id="stop134" /></linearGradient><clipPath
       clipPathUnits="userSpaceOnUse"
       id="clipPath146"><path
         d="m 7089.52,2267.94 c -57.2,0 -101.19,38.73 -101.19,139.92 0,91.52 40.48,137.28 101.19,137.28 65.12,0 103.84,-51.92 103.84,-142.56 0,-95.91 -47.52,-134.64 -103.84,-134.64 z m 229.68,-92.39 v 468.14 h -124.96 v -69.51 c -25.52,51.91 -73.92,81.83 -132.87,81.83 -120.56,0 -203.28,-92.4 -203.28,-258.71 0,-148.72 93.28,-236.71 194.48,-236.71 73.91,0 114.39,33.44 142.55,80.07 v -65.11 z"
         id="path144" /></clipPath><linearGradient
       x1="0"
       y1="0"
       x2="1"
       y2="0"
       gradientUnits="userSpaceOnUse"
       gradientTransform="matrix(3860.2,0,0,-3860.2,62.7559,2408.3)"
       spreadMethod="pad"
       id="linearGradient152"><stop
         style="stop-opacity:1;stop-color:#fab720"
         offset="0"
         id="stop148" /><stop
         style="stop-opacity:1;stop-color:#f47052"
         offset="1"
         id="stop150" /></linearGradient><clipPath
       clipPathUnits="userSpaceOnUse"
       id="clipPath162"><path
         d="m 6317.49,88.0313 c -46.15,0 -81.65,31.2387 -81.65,112.8907 0,73.84 32.66,110.758 81.65,110.758 52.54,0 83.78,-41.891 83.78,-115.02 0,-77.39 -38.34,-108.6287 -83.78,-108.6287 z m 185.3,-74.5508 V 391.199 h -100.82 v -56.09 c -20.58,41.891 -59.64,66.032 -107.2,66.032 -97.27,0 -164.01,-74.551 -164.01,-208.743 0,-119.9878 75.26,-190.98784 156.91,-190.98784 59.63,0 92.3,26.98044 115.02,64.60934 v -52.539 z"
         id="path160" /></clipPath><linearGradient
       x1="0"
       y1="0"
       x2="1"
       y2="0"
       gradientUnits="userSpaceOnUse"
       gradientTransform="matrix(3860.19,0,0,-3860.19,112.751,201.27)"
       spreadMethod="pad"
       id="linearGradient168"><stop
         style="stop-opacity:1;stop-color:#fab720"
         offset="0"
         id="stop164" /><stop
         style="stop-opacity:1;stop-color:#f47052"
         offset="1"
         id="stop166" /></linearGradient><clipPath
       clipPathUnits="userSpaceOnUse"
       id="clipPath178"><path
         d="m 6740.18,1215.55 h 126.71 v 251.67 c 0,102.96 47.52,123.2 93.29,123.2 51.91,0 78.31,-25.52 78.31,-90.64 v -284.23 h 130.23 v 316.79 c 0,113.51 -64.23,163.67 -166.31,163.67 -58.96,0 -103.84,-25.52 -139.92,-80.07 v 67.76 h -122.31 z"
         id="path176" /></clipPath><linearGradient
       x1="0"
       y1="0"
       x2="1"
       y2="0"
       gradientUnits="userSpaceOnUse"
       gradientTransform="matrix(3860.21,0,0,-3860.21,62.7592,1455.78)"
       spreadMethod="pad"
       id="linearGradient184"><stop
         style="stop-opacity:1;stop-color:#fab720"
         offset="0"
         id="stop180" /><stop
         style="stop-opacity:1;stop-color:#f47052"
         offset="1"
         id="stop182" /></linearGradient><clipPath
       clipPathUnits="userSpaceOnUse"
       id="clipPath194"><path
         d="m 6906.79,241.391 c 6.38,47.57 31.23,76.679 74.54,76.679 46.15,0 71.71,-29.82 73.84,-76.679 z m 73.84,160.461 c -103.67,0 -178.93,-75.262 -178.93,-202.352 0,-146.9687 97.27,-198.800781 185.31,-198.800781 105.79,0 166.85,56.089881 173.24,122.120781 H 7054.46 C 7042.39,93 7013.99,83.7695 6987.72,83.7695 c -55.38,0 -83.07,38.3395 -83.77,90.8785 h 257.01 c 4.25,158.321 -66.03,227.204 -180.33,227.204 z"
         id="path192" /></clipPath><linearGradient
       x1="0"
       y1="0"
       x2="1"
       y2="0"
       gradientUnits="userSpaceOnUse"
       gradientTransform="matrix(3860.18,0,0,-3860.18,112.787,201.27)"
       spreadMethod="pad"
       id="linearGradient200"><stop
         style="stop-opacity:1;stop-color:#fab720"
         offset="0"
         id="stop196" /><stop
         style="stop-opacity:1;stop-color:#f47052"
         offset="1"
         id="stop198" /></linearGradient><clipPath
       clipPathUnits="userSpaceOnUse"
       id="clipPath210"><path
         d="M 2269.11,13.4805 V 269.078 c 0,91.594 -51.82,132.063 -134.18,132.063 -47.58,0 -83.79,-20.59 -112.89,-64.61 v 54.668 h -98.69 V 13.4805 h 102.24 V 216.539 c 0,83.063 38.34,99.402 75.26,99.402 41.88,0 63.18,-20.589 63.18,-73.132 V 13.4805 Z"
         id="path208" /></clipPath><linearGradient
       x1="0"
       y1="0"
       x2="1"
       y2="0"
       gradientUnits="userSpaceOnUse"
       gradientTransform="matrix(3860.21,0,0,-3860.21,112.759,207.31)"
       spreadMethod="pad"
       id="linearGradient216"><stop
         style="stop-opacity:1;stop-color:#fab720"
         offset="0"
         id="stop212" /><stop
         style="stop-opacity:1;stop-color:#f47052"
         offset="1"
         id="stop214" /></linearGradient><clipPath
       clipPathUnits="userSpaceOnUse"
       id="clipPath226"><path
         d="M 0,0 H 8109 V 4354 H 0 Z"
         id="path224" /></clipPath><clipPath
       clipPathUnits="userSpaceOnUse"
       id="clipPath232"><path
         d="M 1870.87,3504.01 H 0 V 1519.76 H 623.613 V 952.828 H 3118.11 V 4354.4 H 1870.87 Z"
         id="path230" /></clipPath><linearGradient
       x1="0"
       y1="0"
       x2="1"
       y2="0"
       gradientUnits="userSpaceOnUse"
       gradientTransform="matrix(3860.22,0,0,-3860.22,62.755,2653.61)"
       spreadMethod="pad"
       id="linearGradient238"><stop
         style="stop-opacity:1;stop-color:#fab720"
         offset="0"
         id="stop234" /><stop
         style="stop-opacity:1;stop-color:#f47052"
         offset="1"
         id="stop236" /></linearGradient><clipPath
       clipPathUnits="userSpaceOnUse"
       id="clipPath248"><path
         d="m 2915.93,314.52 c 42.6,0 58.92,-27.688 63.89,-59.641 h 105.08 c -11.36,103.66 -68.15,146.262 -171.81,146.262 -117.15,0 -178.92,-82.371 -178.92,-205.899 C 2734.17,70.9883 2795.94,0 2912.37,0 c 101.54,0 166.86,73.1211 171.82,151.219 h -105.08 c -2.13,-36.207 -18.46,-65.3206 -63.9,-65.3206 -58.21,0 -74.54,49.7036 -74.54,112.1836 0,93.008 35.49,116.438 75.26,116.438 z"
         id="path246" /></clipPath><linearGradient
       x1="0"
       y1="0"
       x2="1"
       y2="0"
       gradientUnits="userSpaceOnUse"
       gradientTransform="matrix(3860.19,0,0,-3860.19,112.757,200.57)"
       spreadMethod="pad"
       id="linearGradient254"><stop
         style="stop-opacity:1;stop-color:#fab720"
         offset="0"
         id="stop250" /><stop
         style="stop-opacity:1;stop-color:#f47052"
         offset="1"
         id="stop252" /></linearGradient><clipPath
       clipPathUnits="userSpaceOnUse"
       id="clipPath264"><path
         d="m 3681.31,3249.06 h -119.68 v 406.55 h 119.68 c 101.19,0 146.07,-45.75 146.07,-196.23 0,-143.44 -58.07,-210.32 -146.07,-210.32 z m 10.56,520.07 h -263.12 v -633.58 h 275.43 c 162.8,0 262.24,124.07 262.24,332.63 0,210.31 -111.76,300.95 -274.55,300.95 z"
         id="path262" /></clipPath><linearGradient
       x1="0"
       y1="0"
       x2="1"
       y2="0"
       gradientUnits="userSpaceOnUse"
       gradientTransform="matrix(3860.21,0,0,-3860.21,62.7565,3452.34)"
       spreadMethod="pad"
       id="linearGradient270"><stop
         style="stop-opacity:1;stop-color:#fab720"
         offset="0"
         id="stop266" /><stop
         style="stop-opacity:1;stop-color:#f47052"
         offset="1"
         id="stop268" /></linearGradient><clipPath
       clipPathUnits="userSpaceOnUse"
       id="clipPath280"><path
         d="m 3167.27,494.148 v -106.5 h -52.54 v -71.707 h 52.54 V 85.1914 c 0,-58.9297 32.66,-76.67968 116.43,-76.67968 15.63,0 31.25,0 46.87,0.70703 V 85.8984 c -4.27,-0.707 -13.49,-0.707 -19.17,-0.707 -35.51,0 -42.6,4.2578 -42.6,35.4996 v 195.25 h 61.77 v 71.707 h -61.77 v 106.5 z"
         id="path278" /></clipPath><linearGradient
       x1="0"
       y1="0"
       x2="1"
       y2="0"
       gradientUnits="userSpaceOnUse"
       gradientTransform="matrix(3860.21,0,0,-3860.21,112.76,251.33)"
       spreadMethod="pad"
       id="linearGradient286"><stop
         style="stop-opacity:1;stop-color:#fab720"
         offset="0"
         id="stop282" /><stop
         style="stop-opacity:1;stop-color:#f47052"
         offset="1"
         id="stop284" /></linearGradient><clipPath
       clipPathUnits="userSpaceOnUse"
       id="clipPath296"><path
         d="m 2434.54,241.391 c 6.4,47.57 31.25,76.679 74.55,76.679 46.15,0 71.72,-29.82 73.85,-76.679 z m 73.85,160.461 c -103.66,0 -178.93,-75.262 -178.93,-202.352 0,-146.9687 97.28,-198.800781 185.32,-198.800781 105.79,0 166.84,56.089881 173.24,122.120781 H 2582.23 C 2570.16,93 2541.75,83.7695 2515.48,83.7695 c -55.37,0 -83.07,38.3395 -83.77,90.8785 h 257.01 c 4.26,158.321 -66.02,227.204 -180.33,227.204 z"
         id="path294" /></clipPath><linearGradient
       x1="0"
       y1="0"
       x2="1"
       y2="0"
       gradientUnits="userSpaceOnUse"
       gradientTransform="matrix(3860.22,0,0,-3860.22,112.739,201.27)"
       spreadMethod="pad"
       id="linearGradient302"><stop
         style="stop-opacity:1;stop-color:#fab720"
         offset="0"
         id="stop298" /><stop
         style="stop-opacity:1;stop-color:#f47052"
         offset="1"
         id="stop300" /></linearGradient><clipPath
       clipPathUnits="userSpaceOnUse"
       id="clipPath312"><path
         d="m 3715.63,2289.06 h -153.12 v 163.68 h 156.63 c 70.4,0 101.2,-26.4 101.2,-75.68 0,-64.24 -34.31,-88 -104.71,-88 z m -153.12,406.55 h 137.28 c 83.59,0 108.23,-22 108.23,-66 0,-46.64 -26.4,-68.63 -89.76,-68.63 h -155.75 z m 376.63,-51.92 c 0,105.6 -67.76,165.44 -216.47,165.44 h -289.52 v -633.58 h 288.64 c 188.31,0 236.71,99.44 236.71,191.83 0,79.2 -40.48,128.48 -95.92,147.84 63.36,34.32 76.56,76.55 76.56,128.47 z"
         id="path310" /></clipPath><linearGradient
       x1="0"
       y1="0"
       x2="1"
       y2="0"
       gradientUnits="userSpaceOnUse"
       gradientTransform="matrix(3860.21,0,0,-3860.21,62.755,2492.34)"
       spreadMethod="pad"
       id="linearGradient318"><stop
         style="stop-opacity:1;stop-color:#fab720"
         offset="0"
         id="stop314" /><stop
         style="stop-opacity:1;stop-color:#f47052"
         offset="1"
         id="stop316" /></linearGradient><clipPath
       clipPathUnits="userSpaceOnUse"
       id="clipPath328"><path
         d="m 810.07,314.52 c 42.598,0 58.922,-27.688 63.907,-59.641 H 979.055 C 967.688,358.539 910.891,401.141 807.234,401.141 690.09,401.141 628.313,318.77 628.313,195.242 628.313,70.9883 690.09,0 806.523,0 908.059,0 973.367,73.1211 978.34,151.219 H 873.262 c -2.129,-36.207 -18.465,-65.3206 -63.899,-65.3206 -58.218,0 -74.547,49.7036 -74.547,112.1836 0,93.008 35.497,116.438 75.254,116.438 z"
         id="path326" /></clipPath><linearGradient
       x1="0"
       y1="0"
       x2="1"
       y2="0"
       gradientUnits="userSpaceOnUse"
       gradientTransform="matrix(3860.2,0,0,-3860.2,112.755,200.57)"
       spreadMethod="pad"
       id="linearGradient334"><stop
         style="stop-opacity:1;stop-color:#fab720"
         offset="0"
         id="stop330" /><stop
         style="stop-opacity:1;stop-color:#f47052"
         offset="1"
         id="stop332" /></linearGradient><clipPath
       clipPathUnits="userSpaceOnUse"
       id="clipPath344"><path
         d="m 1307.78,200.922 c 0,-73.133 -34.08,-115.0236 -88.04,-115.0236 -55.37,0 -88.04,39.0506 -88.04,116.4416 0,95.14 46.86,115.73 88.04,115.73 52.54,0 88.04,-38.34 88.04,-117.148 z m -283.29,1.418 C 1024.49,82.3516 1097.63,0 1220.45,0 c 128.51,0 194.54,85.1914 194.54,200.922 0,124.949 -70.29,203.058 -195.25,203.058 -126.38,0 -195.25,-85.21 -195.25,-201.64 z"
         id="path342" /></clipPath><linearGradient
       x1="0"
       y1="0"
       x2="1"
       y2="0"
       gradientUnits="userSpaceOnUse"
       gradientTransform="matrix(3860.21,0,0,-3860.21,112.753,201.99)"
       spreadMethod="pad"
       id="linearGradient350"><stop
         style="stop-opacity:1;stop-color:#fab720"
         offset="0"
         id="stop346" /><stop
         style="stop-opacity:1;stop-color:#f47052"
         offset="1"
         id="stop348" /></linearGradient><clipPath
       clipPathUnits="userSpaceOnUse"
       id="clipPath360"><path
         d="m 6051.12,2548.66 c 52.81,0 73.04,-34.32 79.2,-73.92 h 130.24 c -14.09,128.47 -84.49,181.27 -212.96,181.27 -145.2,0 -221.75,-102.07 -221.75,-255.19 0,-153.99 76.55,-241.99 220.87,-241.99 125.84,0 206.8,90.63 212.96,187.43 h -130.24 c -2.64,-44.88 -22.88,-80.96 -79.2,-80.96 -72.15,0 -92.4,61.6 -92.4,139.04 0,115.28 44.01,144.32 93.28,144.32 z"
         id="path358" /></clipPath><linearGradient
       x1="0"
       y1="0"
       x2="1"
       y2="0"
       gradientUnits="userSpaceOnUse"
       gradientTransform="matrix(3860.21,0,0,-3860.21,62.7654,2407.42)"
       spreadMethod="pad"
       id="linearGradient366"><stop
         style="stop-opacity:1;stop-color:#fab720"
         offset="0"
         id="stop362" /><stop
         style="stop-opacity:1;stop-color:#f47052"
         offset="1"
         id="stop364" /></linearGradient><clipPath
       clipPathUnits="userSpaceOnUse"
       id="clipPath376"><path
         d="M 1831.76,13.4805 V 269.078 c 0,91.594 -51.83,132.063 -134.19,132.063 -47.57,0 -83.78,-20.59 -112.89,-64.61 v 54.668 h -98.69 V 13.4805 h 102.24 V 216.539 c 0,83.063 38.34,99.402 75.26,99.402 41.89,0 63.19,-20.589 63.19,-73.132 V 13.4805 Z"
         id="path374" /></clipPath><linearGradient
       x1="0"
       y1="0"
       x2="1"
       y2="0"
       gradientUnits="userSpaceOnUse"
       gradientTransform="matrix(3860.2,0,0,-3860.2,112.752,207.31)"
       spreadMethod="pad"
       id="linearGradient382"><stop
         style="stop-opacity:1;stop-color:#fab720"
         offset="0"
         id="stop378" /><stop
         style="stop-opacity:1;stop-color:#f47052"
         offset="1"
         id="stop380" /></linearGradient><clipPath
       clipPathUnits="userSpaceOnUse"
       id="clipPath392"><path
         d="m 5581.94,190.27 c 0,75.968 25.56,107.21 90.88,107.21 9.23,0 17.76,-0.71 29.11,-2.128 V 400.43 c -4.25,0.711 -7.1,0.711 -12.78,0.711 -46.86,0 -80.22,-16.332 -112.89,-75.27 v 66.039 h -97.98 V 13.4805 h 103.66 z"
         id="path390" /></clipPath><linearGradient
       x1="0"
       y1="0"
       x2="1"
       y2="0"
       gradientUnits="userSpaceOnUse"
       gradientTransform="matrix(3860.23,0,0,-3860.23,112.729,207.31)"
       spreadMethod="pad"
       id="linearGradient398"><stop
         style="stop-opacity:1;stop-color:#fab720"
         offset="0"
         id="stop394" /><stop
         style="stop-opacity:1;stop-color:#f47052"
         offset="1"
         id="stop396" /></linearGradient><clipPath
       clipPathUnits="userSpaceOnUse"
       id="clipPath408"><path
         d="m 4618.5,88.0313 c -46.16,0 -81.65,31.2387 -81.65,112.8907 0,73.84 32.65,110.758 81.65,110.758 52.54,0 83.78,-41.891 83.78,-115.02 0,-77.39 -38.34,-108.6287 -83.78,-108.6287 z M 4803.8,13.4805 V 523.969 H 4699.43 V 344.34 c -22.72,36.922 -61.06,56.801 -103.66,56.801 -97.26,0 -164,-74.551 -164,-208.743 0,-119.9878 75.25,-190.98784 156.9,-190.98784 59.64,0 92.31,26.98044 115.02,64.60934 v -52.539 z"
         id="path406" /></clipPath><linearGradient
       x1="0"
       y1="0"
       x2="1"
       y2="0"
       gradientUnits="userSpaceOnUse"
       gradientTransform="matrix(3860.19,0,0,-3860.19,112.749,262.69)"
       spreadMethod="pad"
       id="linearGradient414"><stop
         style="stop-opacity:1;stop-color:#fab720"
         offset="0"
         id="stop410" /><stop
         style="stop-opacity:1;stop-color:#f47052"
         offset="1"
         id="stop412" /></linearGradient><clipPath
       clipPathUnits="userSpaceOnUse"
       id="clipPath424"><path
         d="m 5268.82,1348.42 v 500.71 H 5142.1 v -519.18 c 0,-63.36 30.8,-120.57 126.72,-120.57 19.36,0 38.72,0 58.07,0.89 v 95.03 c -5.27,-0.88 -16.71,-0.88 -23.76,-0.88 -21.11,0 -34.31,14.08 -34.31,44 z"
         id="path422" /></clipPath><linearGradient
       x1="0"
       y1="0"
       x2="1"
       y2="0"
       gradientUnits="userSpaceOnUse"
       gradientTransform="matrix(3860.2,0,0,-3860.2,62.7507,1529.25)"
       spreadMethod="pad"
       id="linearGradient430"><stop
         style="stop-opacity:1;stop-color:#fab720"
         offset="0"
         id="stop426" /><stop
         style="stop-opacity:1;stop-color:#f47052"
         offset="1"
         id="stop428" /></linearGradient><clipPath
       clipPathUnits="userSpaceOnUse"
       id="clipPath440"><path
         d="m 4902.73,1442.58 c 0,-95.91 -47.52,-134.64 -103.83,-134.64 -57.2,0 -101.19,38.73 -101.19,139.92 0,91.52 40.47,137.28 101.19,137.28 65.11,0 103.83,-51.92 103.83,-142.56 z m -335.27,-5.28 c 0,-148.72 93.28,-236.71 194.48,-236.71 73.92,0 114.4,33.44 142.55,80.08 v -65.12 h 124.08 v 468.15 h -124.96 v -69.52 c -25.51,51.92 -73.91,81.83 -132.87,81.83 -120.55,0 -203.28,-92.39 -203.28,-258.71 z"
         id="path438" /></clipPath><linearGradient
       x1="0"
       y1="0"
       x2="1"
       y2="0"
       gradientUnits="userSpaceOnUse"
       gradientTransform="matrix(3860.2,0,0,-3860.2,62.7543,1448.3)"
       spreadMethod="pad"
       id="linearGradient446"><stop
         style="stop-opacity:1;stop-color:#fab720"
         offset="0"
         id="stop442" /><stop
         style="stop-opacity:1;stop-color:#f47052"
         offset="1"
         id="stop444" /></linearGradient><clipPath
       clipPathUnits="userSpaceOnUse"
       id="clipPath456"><path
         d="m 5057.6,2158.83 c 125.84,0 206.79,90.63 212.96,187.43 h -130.24 c -2.64,-44.88 -22.88,-80.96 -79.2,-80.96 -72.16,0 -92.4,61.6 -92.4,139.04 0,115.28 44,144.32 93.28,144.32 52.8,0 73.04,-34.32 79.2,-73.92 h 130.24 c -14.09,128.47 -84.49,181.27 -212.96,181.27 -145.2,0 -221.75,-102.07 -221.75,-255.19 0,-153.99 76.55,-241.99 220.87,-241.99 z"
         id="path454" /></clipPath><linearGradient
       x1="0"
       y1="0"
       x2="1"
       y2="0"
       gradientUnits="userSpaceOnUse"
       gradientTransform="matrix(3860.21,0,0,-3860.21,62.7333,2407.42)"
       spreadMethod="pad"
       id="linearGradient462"><stop
         style="stop-opacity:1;stop-color:#fab720"
         offset="0"
         id="stop458" /><stop
         style="stop-opacity:1;stop-color:#f47052"
         offset="1"
         id="stop460" /></linearGradient><clipPath
       clipPathUnits="userSpaceOnUse"
       id="clipPath472"><path
         d="m 5094.58,3508.66 c 52.8,0 73.04,-34.32 79.2,-73.92 h 130.23 c -14.08,128.47 -84.48,181.27 -212.96,181.27 -145.19,0 -221.74,-102.07 -221.74,-255.19 0,-153.99 76.55,-241.99 220.87,-241.99 125.84,0 206.79,90.63 212.95,187.43 H 5172.9 c -2.65,-44.88 -22.88,-80.96 -79.2,-80.96 -72.16,0 -92.4,61.6 -92.4,139.04 0,115.28 44,144.32 93.28,144.32 z"
         id="path470" /></clipPath><linearGradient
       x1="0"
       y1="0"
       x2="1"
       y2="0"
       gradientUnits="userSpaceOnUse"
       gradientTransform="matrix(3860.21,0,0,-3860.21,62.7499,3367.42)"
       spreadMethod="pad"
       id="linearGradient478"><stop
         style="stop-opacity:1;stop-color:#fab720"
         offset="0"
         id="stop474" /><stop
         style="stop-opacity:1;stop-color:#f47052"
         offset="1"
         id="stop476" /></linearGradient><clipPath
       clipPathUnits="userSpaceOnUse"
       id="clipPath488"><path
         d="m 4062.33,2809.13 v -519.19 c 0,-63.35 30.8,-120.55 126.72,-120.55 19.37,0 38.72,0 58.08,0.88 v 95.03 c -5.27,-0.88 -16.72,-0.88 -23.76,-0.88 -21.11,0 -34.32,14.09 -34.32,44 v 500.71 z"
         id="path486" /></clipPath><linearGradient
       x1="0"
       y1="0"
       x2="1"
       y2="0"
       gradientUnits="userSpaceOnUse"
       gradientTransform="matrix(3860.2,0,0,-3860.2,62.7634,2489.26)"
       spreadMethod="pad"
       id="linearGradient494"><stop
         style="stop-opacity:1;stop-color:#fab720"
         offset="0"
         id="stop490" /><stop
         style="stop-opacity:1;stop-color:#f47052"
         offset="1"
         id="stop492" /></linearGradient><clipPath
       clipPathUnits="userSpaceOnUse"
       id="clipPath504"><path
         d="m 4642.24,2407.86 c 0,-90.64 -42.24,-142.56 -109.11,-142.56 -68.65,0 -109.13,48.4 -109.13,144.32 0,117.91 58.08,143.44 109.13,143.44 65.11,0 109.11,-47.52 109.11,-145.2 z m -351.11,1.76 c 0,-148.72 90.64,-250.79 242.87,-250.79 159.27,0 241.12,105.59 241.12,249.03 0,154.87 -87.12,251.67 -241.99,251.67 -156.65,0 -242,-105.59 -242,-249.91 z"
         id="path502" /></clipPath><linearGradient
       x1="0"
       y1="0"
       x2="1"
       y2="0"
       gradientUnits="userSpaceOnUse"
       gradientTransform="matrix(3860.2,0,0,-3860.2,62.7584,2409.18)"
       spreadMethod="pad"
       id="linearGradient510"><stop
         style="stop-opacity:1;stop-color:#fab720"
         offset="0"
         id="stop506" /><stop
         style="stop-opacity:1;stop-color:#f47052"
         offset="1"
         id="stop508" /></linearGradient><clipPath
       clipPathUnits="userSpaceOnUse"
       id="clipPath520"><path
         d="m 7560.32,2813.53 h -128.47 v -115.28 h 128.47 z"
         id="path518" /></clipPath><linearGradient
       x1="0"
       y1="0"
       x2="1"
       y2="0"
       gradientUnits="userSpaceOnUse"
       gradientTransform="matrix(3860.19,0,0,-3860.19,62.7838,2755.89)"
       spreadMethod="pad"
       id="linearGradient526"><stop
         style="stop-opacity:1;stop-color:#fab720"
         offset="0"
         id="stop522" /><stop
         style="stop-opacity:1;stop-color:#f47052"
         offset="1"
         id="stop524" /></linearGradient><clipPath
       clipPathUnits="userSpaceOnUse"
       id="clipPath536"><path
         d="M 0,0 H 8109 V 4354 H 0 Z"
         id="path534" /></clipPath><clipPath
       clipPathUnits="userSpaceOnUse"
       id="clipPath542"><path
         d="m 7943.13,2656.01 c -58.97,0 -103.84,-25.52 -139.93,-80.07 v 67.75 h -122.31 v -468.14 h 126.72 v 251.67 c 0,102.96 47.52,123.2 93.28,123.2 51.91,0 78.31,-25.52 78.31,-90.64 v -284.23 h 130.23 v 316.79 c 0,113.51 -64.23,163.67 -166.3,163.67 z"
         id="path540" /></clipPath><linearGradient
       x1="0"
       y1="0"
       x2="1"
       y2="0"
       gradientUnits="userSpaceOnUse"
       gradientTransform="matrix(3860.21,0,0,-3860.21,62.7689,2415.78)"
       spreadMethod="pad"
       id="linearGradient548"><stop
         style="stop-opacity:1;stop-color:#fab720"
         offset="0"
         id="stop544" /><stop
         style="stop-opacity:1;stop-color:#f47052"
         offset="1"
         id="stop546" /></linearGradient><clipPath
       clipPathUnits="userSpaceOnUse"
       id="clipPath558"><path
         d="m 7431.85,2175.55 h 128.47 v 469.03 h -128.47 z"
         id="path556" /></clipPath><linearGradient
       x1="0"
       y1="0"
       x2="1"
       y2="0"
       gradientUnits="userSpaceOnUse"
       gradientTransform="matrix(3860.19,0,0,-3860.19,62.7838,2410.06)"
       spreadMethod="pad"
       id="linearGradient564"><stop
         style="stop-opacity:1;stop-color:#fab720"
         offset="0"
         id="stop560" /><stop
         style="stop-opacity:1;stop-color:#f47052"
         offset="1"
         id="stop562" /></linearGradient><clipPath
       clipPathUnits="userSpaceOnUse"
       id="clipPath574"><path
         d="m 4268.26,1593.05 c 65.12,0 109.11,-47.52 109.11,-145.19 0,-90.64 -42.23,-142.56 -109.11,-142.56 -68.64,0 -109.12,48.4 -109.12,144.31 0,117.92 58.08,143.44 109.12,143.44 z m 0.88,-394.22 c 159.27,0 241.11,105.59 241.11,249.03 0,154.88 -87.12,251.68 -241.99,251.68 -156.64,0 -241.99,-105.61 -241.99,-249.93 0,-148.71 90.63,-250.78 242.87,-250.78 z"
         id="path572" /></clipPath><linearGradient
       x1="0"
       y1="0"
       x2="1"
       y2="0"
       gradientUnits="userSpaceOnUse"
       gradientTransform="matrix(3860.2,0,0,-3860.2,62.7544,1449.18)"
       spreadMethod="pad"
       id="linearGradient580"><stop
         style="stop-opacity:1;stop-color:#fab720"
         offset="0"
         id="stop576" /><stop
         style="stop-opacity:1;stop-color:#f47052"
         offset="1"
         id="stop578" /></linearGradient><clipPath
       clipPathUnits="userSpaceOnUse"
       id="clipPath590"><path
         d="M 4019.26,13.4805 H 4121.5 V 216.539 c 0,83.063 38.34,99.402 75.26,99.402 41.89,0 63.19,-20.589 63.19,-73.132 V 13.4805 h 105.08 V 269.078 c 0,91.594 -51.83,132.063 -134.19,132.063 -47.57,0 -83.78,-20.59 -112.89,-64.61 v 54.668 h -98.69 z"
         id="path588" /></clipPath><linearGradient
       x1="0"
       y1="0"
       x2="1"
       y2="0"
       gradientUnits="userSpaceOnUse"
       gradientTransform="matrix(3860.19,0,0,-3860.19,112.772,207.31)"
       spreadMethod="pad"
       id="linearGradient596"><stop
         style="stop-opacity:1;stop-color:#fab720"
         offset="0"
         id="stop592" /><stop
         style="stop-opacity:1;stop-color:#f47052"
         offset="1"
         id="stop594" /></linearGradient><clipPath
       clipPathUnits="userSpaceOnUse"
       id="clipPath606"><path
         d="m 6077.53,1853.53 h -128.48 v -115.28 h 128.48 z"
         id="path604" /></clipPath><linearGradient
       x1="0"
       y1="0"
       x2="1"
       y2="0"
       gradientUnits="userSpaceOnUse"
       gradientTransform="matrix(3860.19,0,0,-3860.19,62.7837,1795.89)"
       spreadMethod="pad"
       id="linearGradient612"><stop
         style="stop-opacity:1;stop-color:#fab720"
         offset="0"
         id="stop608" /><stop
         style="stop-opacity:1;stop-color:#f47052"
         offset="1"
         id="stop610" /></linearGradient><clipPath
       clipPathUnits="userSpaceOnUse"
       id="clipPath622"><path
         d="m 5401.69,1215.55 h 128.48 v 469.03 h -128.48 z"
         id="path620" /></clipPath><linearGradient
       x1="0"
       y1="0"
       x2="1"
       y2="0"
       gradientUnits="userSpaceOnUse"
       gradientTransform="matrix(3860.19,0,0,-3860.19,62.7799,1450.06)"
       spreadMethod="pad"
       id="linearGradient628"><stop
         style="stop-opacity:1;stop-color:#fab720"
         offset="0"
         id="stop624" /><stop
         style="stop-opacity:1;stop-color:#f47052"
         offset="1"
         id="stop626" /></linearGradient><clipPath
       clipPathUnits="userSpaceOnUse"
       id="clipPath638"><path
         d="M 5239.02,401.141 C 5121.87,401.141 5060.1,318.77 5060.1,195.242 5060.1,70.9883 5121.87,0 5238.31,0 c 101.52,0 166.85,73.1211 171.82,151.219 h -105.08 c -2.13,-36.207 -18.46,-65.3206 -63.9,-65.3206 -58.22,0 -74.55,49.7036 -74.55,112.1836 0,93.008 35.5,116.438 75.26,116.438 42.59,0 58.93,-27.688 63.9,-59.641 h 105.08 c -11.37,103.66 -68.16,146.262 -171.82,146.262 z"
         id="path636" /></clipPath><linearGradient
       x1="0"
       y1="0"
       x2="1"
       y2="0"
       gradientUnits="userSpaceOnUse"
       gradientTransform="matrix(3860.2,0,0,-3860.2,112.742,200.57)"
       spreadMethod="pad"
       id="linearGradient644"><stop
         style="stop-opacity:1;stop-color:#fab720"
         offset="0"
         id="stop640" /><stop
         style="stop-opacity:1;stop-color:#f47052"
         offset="1"
         id="stop642" /></linearGradient><clipPath
       clipPathUnits="userSpaceOnUse"
       id="clipPath654"><path
         d="m 5792.41,1811.29 h -125.84 v -132 h -65.11 v -88.87 h 65.11 v -286 c 0,-73.03 40.48,-95.04 144.32,-95.04 19.36,0 38.72,0 58.07,0.89 v 95.03 c -5.27,-0.88 -16.71,-0.88 -23.75,-0.88 -44,0 -52.8,5.28 -52.8,44 v 242 h 76.55 v 88.87 h -76.55 z"
         id="path652" /></clipPath><linearGradient
       x1="0"
       y1="0"
       x2="1"
       y2="0"
       gradientUnits="userSpaceOnUse"
       gradientTransform="matrix(3860.22,0,0,-3860.22,62.7407,1510.34)"
       spreadMethod="pad"
       id="linearGradient660"><stop
         style="stop-opacity:1;stop-color:#fab720"
         offset="0"
         id="stop656" /><stop
         style="stop-opacity:1;stop-color:#f47052"
         offset="1"
         id="stop658" /></linearGradient><clipPath
       clipPathUnits="userSpaceOnUse"
       id="clipPath670"><path
         d="m 5530.17,1853.53 h -128.48 v -115.28 h 128.48 z"
         id="path668" /></clipPath><linearGradient
       x1="0"
       y1="0"
       x2="1"
       y2="0"
       gradientUnits="userSpaceOnUse"
       gradientTransform="matrix(3860.19,0,0,-3860.19,62.7799,1795.89)"
       spreadMethod="pad"
       id="linearGradient676"><stop
         style="stop-opacity:1;stop-color:#fab720"
         offset="0"
         id="stop672" /><stop
         style="stop-opacity:1;stop-color:#f47052"
         offset="1"
         id="stop674" /></linearGradient><clipPath
       clipPathUnits="userSpaceOnUse"
       id="clipPath686"><path
         d="m 6077.53,1684.58 h -128.48 v -469.03 h 128.48 z"
         id="path684" /></clipPath><linearGradient
       x1="0"
       y1="0"
       x2="1"
       y2="0"
       gradientUnits="userSpaceOnUse"
       gradientTransform="matrix(3860.19,0,0,-3860.19,62.7837,1450.06)"
       spreadMethod="pad"
       id="linearGradient692"><stop
         style="stop-opacity:1;stop-color:#fab720"
         offset="0"
         id="stop688" /><stop
         style="stop-opacity:1;stop-color:#f47052"
         offset="1"
         id="stop690" /></linearGradient><clipPath
       clipPathUnits="userSpaceOnUse"
       id="clipPath702"><path
         d="M 5355.05,2175.55 H 5480 v 144.31 l 50.17,52.8 108.23,-197.11 h 153.11 l -168.95,286.87 162.79,180.39 H 5628.72 L 5480,2468.58 v 337.91 h -124.95 z"
         id="path700" /></clipPath><linearGradient
       x1="0"
       y1="0"
       x2="1"
       y2="0"
       gradientUnits="userSpaceOnUse"
       gradientTransform="matrix(3860.21,0,0,-3860.21,62.7341,2491.02)"
       spreadMethod="pad"
       id="linearGradient708"><stop
         style="stop-opacity:1;stop-color:#fab720"
         offset="0"
         id="stop704" /><stop
         style="stop-opacity:1;stop-color:#f47052"
         offset="1"
         id="stop706" /></linearGradient><clipPath
       clipPathUnits="userSpaceOnUse"
       id="clipPath718"><path
         d="m 5834.7,241.391 c 6.38,47.57 31.23,76.679 74.54,76.679 46.15,0 71.71,-29.82 73.84,-76.679 z m 73.84,160.461 c -103.67,0 -178.93,-75.262 -178.93,-202.352 0,-146.9687 97.27,-198.800781 185.31,-198.800781 105.79,0 166.85,56.089881 173.24,122.120781 H 5982.37 C 5970.3,93 5941.9,83.7695 5915.63,83.7695 c -55.38,0 -83.07,38.3395 -83.77,90.8785 h 257.01 c 4.26,158.321 -66.03,227.204 -180.33,227.204 z"
         id="path716" /></clipPath><linearGradient
       x1="0"
       y1="0"
       x2="1"
       y2="0"
       gradientUnits="userSpaceOnUse"
       gradientTransform="matrix(3860.18,0,0,-3860.18,112.802,201.27)"
       spreadMethod="pad"
       id="linearGradient724"><stop
         style="stop-opacity:1;stop-color:#fab720"
         offset="0"
         id="stop720" /><stop
         style="stop-opacity:1;stop-color:#f47052"
         offset="1"
         id="stop722" /></linearGradient></defs><sodipodi:namedview
     id="namedview4"
     pagecolor="#ffffff"
     bordercolor="#666666"
     borderopacity="1.0"
     inkscape:pageshadow="2"
     inkscape:pageopacity="0.0"
     inkscape:pagecheckerboard="0" /><g
     id="g8"
     inkscape:groupmode="layer"
     inkscape:label="ink_ext_XXXXXX"
     transform="matrix(1.3333333,0,0,-1.3333333,0,580.58667)"><g
       id="g10"
       transform="scale(0.1)"><g
         id="g12"><g
           id="g14"
           clip-path="url(#clipPath18)"><path
             d="m 5390.26,3766.49 v -630.94 h 126.72 v 251.67 c 0,94.16 42.24,124.07 95.92,124.07 43.99,0 74.8,-24.63 74.8,-91.51 v -284.23 h 129.35 v 303.59 c 0,131.11 -66.87,177.75 -166.31,177.75 -51.04,0 -101.2,-22.87 -133.76,-73.04 v 222.64 h -126.72"
             style="fill:url(#linearGradient24);fill-opacity:1;fill-rule:nonzero;stroke:none"
             id="path26" /></g></g><g
         id="g28"><g
           id="g30"
           clip-path="url(#clipPath34)"><path
             d="m 3743.78,88.0313 c -46.15,0 -81.64,31.2387 -81.64,112.8907 0,73.84 32.65,110.758 81.64,110.758 52.54,0 83.78,-41.891 83.78,-115.02 0,-77.39 -38.34,-108.6287 -83.78,-108.6287 z M 3929.09,13.4805 V 391.199 h -100.82 v -56.09 c -20.59,41.891 -59.64,66.032 -107.21,66.032 -97.26,0 -164,-74.551 -164,-208.743 0,-119.9878 75.25,-190.98784 156.9,-190.98784 59.64,0 92.3,26.98044 115.02,64.60934 v -52.539 h 100.11"
             style="fill:url(#linearGradient40);fill-opacity:1;fill-rule:nonzero;stroke:none"
             id="path42" /></g></g><g
         id="g44"><g
           id="g46"
           clip-path="url(#clipPath50)"><path
             d="m 6346.81,2806.49 v -630.94 h 126.72 v 251.67 c 0,94.16 42.23,124.07 95.91,124.07 44,0 74.8,-24.63 74.8,-91.51 v -284.23 h 129.35 v 303.59 c 0,131.11 -66.87,177.75 -166.3,177.75 -51.05,0 -101.21,-22.88 -133.76,-73.04 v 222.64 h -126.72"
             style="fill:url(#linearGradient56);fill-opacity:1;fill-rule:nonzero;stroke:none"
             id="path58" /></g></g><g
         id="g60"><g
           id="g62"
           clip-path="url(#clipPath66)"><path
             d="m 4614.1,3731.29 v -132 h -65.12 v -88.88 h 65.12 v -285.99 c 0,-73.03 40.48,-95.03 144.32,-95.03 19.36,0 38.72,0 58.07,0.88 v 95.03 c -5.27,-0.88 -16.71,-0.88 -23.76,-0.88 -43.99,0 -52.79,5.28 -52.79,44 v 241.99 h 76.55 v 88.88 h -76.55 v 132 H 4614.1"
             style="fill:url(#linearGradient72);fill-opacity:1;fill-rule:nonzero;stroke:none"
             id="path74" /></g></g><g
         id="g76"><g
           id="g78"
           clip-path="url(#clipPath82)"><path
             d="m 4051.79,3604.57 v -300.95 c 0,-117.92 52.79,-178.63 161.03,-178.63 73.04,0 112.64,32.55 143.44,76.55 l -0.89,-65.99 h 124.96 v 469.02 H 4350.1 v -252.55 c 0,-89.76 -32.56,-122.32 -94.16,-122.32 -53.68,0 -73.92,26.4 -73.92,94.16 v 280.71 h -130.23"
             style="fill:url(#linearGradient88);fill-opacity:1;fill-rule:nonzero;stroke:none"
             id="path90" /></g></g><g
         id="g92"><g
           id="g94"
           clip-path="url(#clipPath98)"><path
             d="m 6769.04,315.941 v 71.707 h -61.76 v 106.5 h -101.54 v -106.5 h -52.54 v -71.707 h 52.54 V 85.1914 c 0,-58.9297 32.66,-76.67968 116.44,-76.67968 15.62,0 31.24,0 46.86,0.70703 V 85.8984 c -4.25,-0.707 -13.49,-0.707 -19.17,-0.707 -35.49,0 -42.59,4.2578 -42.59,35.4996 v 195.25 h 61.76"
             style="fill:url(#linearGradient104);fill-opacity:1;fill-rule:nonzero;stroke:none"
             id="path106" /></g></g><g
         id="g108"><g
           id="g110"
           clip-path="url(#clipPath114)"><path
             d="m 3696.26,1197.95 c 190.96,0 261.36,138.15 268.4,231.43 h -135.52 c -13.2,-73.92 -64.24,-113.52 -135.52,-113.52 -79.2,0 -150.48,57.2 -150.48,209.44 0,150.47 65.13,218.23 149.6,218.23 86.24,0 124.97,-41.36 137.28,-107.35 h 136.4 c -3.52,110 -86.24,224.39 -267.51,224.39 -168.96,0 -296.56,-105.6 -296.56,-334.39 0,-225.28 130.24,-328.23 293.91,-328.23"
             style="fill:url(#linearGradient120);fill-opacity:1;fill-rule:nonzero;stroke:none"
             id="path122" /></g></g><g
         id="g124"><g
           id="g126"
           clip-path="url(#clipPath130)"><path
             d="m 6410.18,1593.05 c 65.11,0 109.11,-47.52 109.11,-145.19 0,-90.64 -42.24,-142.56 -109.11,-142.56 -68.65,0 -109.13,48.4 -109.13,144.31 0,117.92 58.08,143.44 109.13,143.44 z m -242,-143.44 c 0,-148.71 90.64,-250.78 242.87,-250.78 159.27,0 241.12,105.59 241.12,249.03 0,154.88 -87.12,251.68 -241.99,251.68 -156.64,0 -242,-105.61 -242,-249.93"
             style="fill:url(#linearGradient136);fill-opacity:1;fill-rule:nonzero;stroke:none"
             id="path138" /></g></g><g
         id="g140"><g
           id="g142"
           clip-path="url(#clipPath146)"><path
             d="m 7089.52,2267.94 c -57.2,0 -101.19,38.73 -101.19,139.92 0,91.52 40.48,137.28 101.19,137.28 65.12,0 103.84,-51.92 103.84,-142.56 0,-95.91 -47.52,-134.64 -103.84,-134.64 z m 229.68,-92.39 v 468.14 h -124.96 v -69.51 c -25.52,51.91 -73.92,81.83 -132.87,81.83 -120.56,0 -203.28,-92.4 -203.28,-258.71 0,-148.72 93.28,-236.71 194.48,-236.71 73.91,0 114.39,33.44 142.55,80.07 v -65.11 h 124.08"
             style="fill:url(#linearGradient152);fill-opacity:1;fill-rule:nonzero;stroke:none"
             id="path154" /></g></g><g
         id="g156"><g
           id="g158"
           clip-path="url(#clipPath162)"><path
             d="m 6317.49,88.0313 c -46.15,0 -81.65,31.2387 -81.65,112.8907 0,73.84 32.66,110.758 81.65,110.758 52.54,0 83.78,-41.891 83.78,-115.02 0,-77.39 -38.34,-108.6287 -83.78,-108.6287 z m 185.3,-74.5508 V 391.199 h -100.82 v -56.09 c -20.58,41.891 -59.64,66.032 -107.2,66.032 -97.27,0 -164.01,-74.551 -164.01,-208.743 0,-119.9878 75.26,-190.98784 156.91,-190.98784 59.63,0 92.3,26.98044 115.02,64.60934 v -52.539 h 100.1"
             style="fill:url(#linearGradient168);fill-opacity:1;fill-rule:nonzero;stroke:none"
             id="path170" /></g></g><g
         id="g172"><g
           id="g174"
           clip-path="url(#clipPath178)"><path
             d="m 6740.18,1215.55 h 126.71 v 251.67 c 0,102.96 47.52,123.2 93.29,123.2 51.91,0 78.31,-25.52 78.31,-90.64 v -284.23 h 130.23 v 316.79 c 0,113.51 -64.23,163.67 -166.31,163.67 -58.96,0 -103.84,-25.52 -139.92,-80.07 v 67.76 h -122.31 v -468.15"
             style="fill:url(#linearGradient184);fill-opacity:1;fill-rule:nonzero;stroke:none"
             id="path186" /></g></g><g
         id="g188"><g
           id="g190"
           clip-path="url(#clipPath194)"><path
             d="m 6906.79,241.391 c 6.38,47.57 31.23,76.679 74.54,76.679 46.15,0 71.71,-29.82 73.84,-76.679 z m 73.84,160.461 c -103.67,0 -178.93,-75.262 -178.93,-202.352 0,-146.9687 97.27,-198.800781 185.31,-198.800781 105.79,0 166.85,56.089881 173.24,122.120781 H 7054.46 C 7042.39,93 7013.99,83.7695 6987.72,83.7695 c -55.38,0 -83.07,38.3395 -83.77,90.8785 h 257.01 c 4.25,158.321 -66.03,227.204 -180.33,227.204"
             style="fill:url(#linearGradient200);fill-opacity:1;fill-rule:nonzero;stroke:none"
             id="path202" /></g></g><g
         id="g204"><g
           id="g206"
           clip-path="url(#clipPath210)"><path
             d="M 2269.11,13.4805 V 269.078 c 0,91.594 -51.82,132.063 -134.18,132.063 -47.58,0 -83.79,-20.59 -112.89,-64.61 v 54.668 h -98.69 V 13.4805 h 102.24 V 216.539 c 0,83.063 38.34,99.402 75.26,99.402 41.88,0 63.18,-20.589 63.18,-73.132 V 13.4805 h 105.08"
             style="fill:url(#linearGradient216);fill-opacity:1;fill-rule:nonzero;stroke:none"
             id="path218" /></g></g><g
         id="g220"><g
           id="g222"
           clip-path="url(#clipPath226)"><g
             id="g228"
             clip-path="url(#clipPath232)"><path
               d="m 623,952 v 567 H 0 v 1986 h 1870 v 849 H 3119 V 952"
               style="fill:url(#linearGradient238);fill-opacity:1;fill-rule:nonzero;stroke:none"
               id="path240" /></g></g></g><g
         id="g242"><g
           id="g244"
           clip-path="url(#clipPath248)"><path
             d="m 2915.93,314.52 c 42.6,0 58.92,-27.688 63.89,-59.641 h 105.08 c -11.36,103.66 -68.15,146.262 -171.81,146.262 -117.15,0 -178.92,-82.371 -178.92,-205.899 C 2734.17,70.9883 2795.94,0 2912.37,0 c 101.54,0 166.86,73.1211 171.82,151.219 h -105.08 c -2.13,-36.207 -18.46,-65.3206 -63.9,-65.3206 -58.21,0 -74.54,49.7036 -74.54,112.1836 0,93.008 35.49,116.438 75.26,116.438"
             style="fill:url(#linearGradient254);fill-opacity:1;fill-rule:nonzero;stroke:none"
             id="path256" /></g></g><g
         id="g258"><g
           id="g260"
           clip-path="url(#clipPath264)"><path
             d="m 3681.31,3249.06 h -119.68 v 406.55 h 119.68 c 101.19,0 146.07,-45.75 146.07,-196.23 0,-143.44 -58.07,-210.32 -146.07,-210.32 z m 10.56,520.07 h -263.12 v -633.58 h 275.43 c 162.8,0 262.24,124.07 262.24,332.63 0,210.31 -111.76,300.95 -274.55,300.95"
             style="fill:url(#linearGradient270);fill-opacity:1;fill-rule:nonzero;stroke:none"
             id="path272" /></g></g><g
         id="g274"><g
           id="g276"
           clip-path="url(#clipPath280)"><path
             d="m 3167.27,494.148 v -106.5 h -52.54 v -71.707 h 52.54 V 85.1914 c 0,-58.9297 32.66,-76.67968 116.43,-76.67968 15.63,0 31.25,0 46.87,0.70703 V 85.8984 c -4.27,-0.707 -13.49,-0.707 -19.17,-0.707 -35.51,0 -42.6,4.2578 -42.6,35.4996 v 195.25 h 61.77 v 71.707 h -61.77 v 106.5 h -101.53"
             style="fill:url(#linearGradient286);fill-opacity:1;fill-rule:nonzero;stroke:none"
             id="path288" /></g></g><g
         id="g290"><g
           id="g292"
           clip-path="url(#clipPath296)"><path
             d="m 2434.54,241.391 c 6.4,47.57 31.25,76.679 74.55,76.679 46.15,0 71.72,-29.82 73.85,-76.679 z m 73.85,160.461 c -103.66,0 -178.93,-75.262 -178.93,-202.352 0,-146.9687 97.28,-198.800781 185.32,-198.800781 105.79,0 166.84,56.089881 173.24,122.120781 H 2582.23 C 2570.16,93 2541.75,83.7695 2515.48,83.7695 c -55.37,0 -83.07,38.3395 -83.77,90.8785 h 257.01 c 4.26,158.321 -66.02,227.204 -180.33,227.204"
             style="fill:url(#linearGradient302);fill-opacity:1;fill-rule:nonzero;stroke:none"
             id="path304" /></g></g><g
         id="g306"><g
           id="g308"
           clip-path="url(#clipPath312)"><path
             d="m 3715.63,2289.06 h -153.12 v 163.68 h 156.63 c 70.4,0 101.2,-26.4 101.2,-75.68 0,-64.24 -34.31,-88 -104.71,-88 z m -153.12,406.55 h 137.28 c 83.59,0 108.23,-22 108.23,-66 0,-46.64 -26.4,-68.63 -89.76,-68.63 h -155.75 z m 376.63,-51.92 c 0,105.6 -67.76,165.44 -216.47,165.44 h -289.52 v -633.58 h 288.64 c 188.31,0 236.71,99.44 236.71,191.83 0,79.2 -40.48,128.48 -95.92,147.84 63.36,34.32 76.56,76.55 76.56,128.47"
             style="fill:url(#linearGradient318);fill-opacity:1;fill-rule:nonzero;stroke:none"
             id="path320" /></g></g><g
         id="g322"><g
           id="g324"
           clip-path="url(#clipPath328)"><path
             d="m 810.07,314.52 c 42.598,0 58.922,-27.688 63.907,-59.641 H 979.055 C 967.688,358.539 910.891,401.141 807.234,401.141 690.09,401.141 628.313,318.77 628.313,195.242 628.313,70.9883 690.09,0 806.523,0 908.059,0 973.367,73.1211 978.34,151.219 H 873.262 c -2.129,-36.207 -18.465,-65.3206 -63.899,-65.3206 -58.218,0 -74.547,49.7036 -74.547,112.1836 0,93.008 35.497,116.438 75.254,116.438"
             style="fill:url(#linearGradient334);fill-opacity:1;fill-rule:nonzero;stroke:none"
             id="path336" /></g></g><g
         id="g338"><g
           id="g340"
           clip-path="url(#clipPath344)"><path
             d="m 1307.78,200.922 c 0,-73.133 -34.08,-115.0236 -88.04,-115.0236 -55.37,0 -88.04,39.0506 -88.04,116.4416 0,95.14 46.86,115.73 88.04,115.73 52.54,0 88.04,-38.34 88.04,-117.148 z m -283.29,1.418 C 1024.49,82.3516 1097.63,0 1220.45,0 c 128.51,0 194.54,85.1914 194.54,200.922 0,124.949 -70.29,203.058 -195.25,203.058 -126.38,0 -195.25,-85.21 -195.25,-201.64"
             style="fill:url(#linearGradient350);fill-opacity:1;fill-rule:nonzero;stroke:none"
             id="path352" /></g></g><g
         id="g354"><g
           id="g356"
           clip-path="url(#clipPath360)"><path
             d="m 6051.12,2548.66 c 52.81,0 73.04,-34.32 79.2,-73.92 h 130.24 c -14.09,128.47 -84.49,181.27 -212.96,181.27 -145.2,0 -221.75,-102.07 -221.75,-255.19 0,-153.99 76.55,-241.99 220.87,-241.99 125.84,0 206.8,90.63 212.96,187.43 h -130.24 c -2.64,-44.88 -22.88,-80.96 -79.2,-80.96 -72.15,0 -92.4,61.6 -92.4,139.04 0,115.28 44.01,144.32 93.28,144.32"
             style="fill:url(#linearGradient366);fill-opacity:1;fill-rule:nonzero;stroke:none"
             id="path368" /></g></g><g
         id="g370"><g
           id="g372"
           clip-path="url(#clipPath376)"><path
             d="M 1831.76,13.4805 V 269.078 c 0,91.594 -51.83,132.063 -134.19,132.063 -47.57,0 -83.78,-20.59 -112.89,-64.61 v 54.668 h -98.69 V 13.4805 h 102.24 V 216.539 c 0,83.063 38.34,99.402 75.26,99.402 41.89,0 63.19,-20.589 63.19,-73.132 V 13.4805 h 105.08"
             style="fill:url(#linearGradient382);fill-opacity:1;fill-rule:nonzero;stroke:none"
             id="path384" /></g></g><g
         id="g386"><g
           id="g388"
           clip-path="url(#clipPath392)"><path
             d="m 5581.94,190.27 c 0,75.968 25.56,107.21 90.88,107.21 9.23,0 17.76,-0.71 29.11,-2.128 V 400.43 c -4.25,0.711 -7.1,0.711 -12.78,0.711 -46.86,0 -80.22,-16.332 -112.89,-75.27 v 66.039 h -97.98 V 13.4805 h 103.66 V 190.27"
             style="fill:url(#linearGradient398);fill-opacity:1;fill-rule:nonzero;stroke:none"
             id="path400" /></g></g><g
         id="g402"><g
           id="g404"
           clip-path="url(#clipPath408)"><path
             d="m 4618.5,88.0313 c -46.16,0 -81.65,31.2387 -81.65,112.8907 0,73.84 32.65,110.758 81.65,110.758 52.54,0 83.78,-41.891 83.78,-115.02 0,-77.39 -38.34,-108.6287 -83.78,-108.6287 z M 4803.8,13.4805 V 523.969 H 4699.43 V 344.34 c -22.72,36.922 -61.06,56.801 -103.66,56.801 -97.26,0 -164,-74.551 -164,-208.743 0,-119.9878 75.25,-190.98784 156.9,-190.98784 59.64,0 92.31,26.98044 115.02,64.60934 v -52.539 h 100.11"
             style="fill:url(#linearGradient414);fill-opacity:1;fill-rule:nonzero;stroke:none"
             id="path416" /></g></g><g
         id="g418"><g
           id="g420"
           clip-path="url(#clipPath424)"><path
             d="m 5268.82,1348.42 v 500.71 H 5142.1 v -519.18 c 0,-63.36 30.8,-120.57 126.72,-120.57 19.36,0 38.72,0 58.07,0.89 v 95.03 c -5.27,-0.88 -16.71,-0.88 -23.76,-0.88 -21.11,0 -34.31,14.08 -34.31,44"
             style="fill:url(#linearGradient430);fill-opacity:1;fill-rule:nonzero;stroke:none"
             id="path432" /></g></g><g
         id="g434"><g
           id="g436"
           clip-path="url(#clipPath440)"><path
             d="m 4902.73,1442.58 c 0,-95.91 -47.52,-134.64 -103.83,-134.64 -57.2,0 -101.19,38.73 -101.19,139.92 0,91.52 40.47,137.28 101.19,137.28 65.11,0 103.83,-51.92 103.83,-142.56 z m -335.27,-5.28 c 0,-148.72 93.28,-236.71 194.48,-236.71 73.92,0 114.4,33.44 142.55,80.08 v -65.12 h 124.08 v 468.15 h -124.96 v -69.52 c -25.51,51.92 -73.91,81.83 -132.87,81.83 -120.55,0 -203.28,-92.39 -203.28,-258.71"
             style="fill:url(#linearGradient446);fill-opacity:1;fill-rule:nonzero;stroke:none"
             id="path448" /></g></g><g
         id="g450"><g
           id="g452"
           clip-path="url(#clipPath456)"><path
             d="m 5057.6,2158.83 c 125.84,0 206.79,90.63 212.96,187.43 h -130.24 c -2.64,-44.88 -22.88,-80.96 -79.2,-80.96 -72.16,0 -92.4,61.6 -92.4,139.04 0,115.28 44,144.32 93.28,144.32 52.8,0 73.04,-34.32 79.2,-73.92 h 130.24 c -14.09,128.47 -84.49,181.27 -212.96,181.27 -145.2,0 -221.75,-102.07 -221.75,-255.19 0,-153.99 76.55,-241.99 220.87,-241.99"
             style="fill:url(#linearGradient462);fill-opacity:1;fill-rule:nonzero;stroke:none"
             id="path464" /></g></g><g
         id="g466"><g
           id="g468"
           clip-path="url(#clipPath472)"><path
             d="m 5094.58,3508.66 c 52.8,0 73.04,-34.32 79.2,-73.92 h 130.23 c -14.08,128.47 -84.48,181.27 -212.96,181.27 -145.19,0 -221.74,-102.07 -221.74,-255.19 0,-153.99 76.55,-241.99 220.87,-241.99 125.84,0 206.79,90.63 212.95,187.43 H 5172.9 c -2.65,-44.88 -22.88,-80.96 -79.2,-80.96 -72.16,0 -92.4,61.6 -92.4,139.04 0,115.28 44,144.32 93.28,144.32"
             style="fill:url(#linearGradient478);fill-opacity:1;fill-rule:nonzero;stroke:none"
             id="path480" /></g></g><g
         id="g482"><g
           id="g484"
           clip-path="url(#clipPath488)"><path
             d="m 4062.33,2809.13 v -519.19 c 0,-63.35 30.8,-120.55 126.72,-120.55 19.37,0 38.72,0 58.08,0.88 v 95.03 c -5.27,-0.88 -16.72,-0.88 -23.76,-0.88 -21.11,0 -34.32,14.09 -34.32,44 v 500.71 h -126.72"
             style="fill:url(#linearGradient494);fill-opacity:1;fill-rule:nonzero;stroke:none"
             id="path496" /></g></g><g
         id="g498"><g
           id="g500"
           clip-path="url(#clipPath504)"><path
             d="m 4642.24,2407.86 c 0,-90.64 -42.24,-142.56 -109.11,-142.56 -68.65,0 -109.13,48.4 -109.13,144.32 0,117.91 58.08,143.44 109.13,143.44 65.11,0 109.11,-47.52 109.11,-145.2 z m -351.11,1.76 c 0,-148.72 90.64,-250.79 242.87,-250.79 159.27,0 241.12,105.59 241.12,249.03 0,154.87 -87.12,251.67 -241.99,251.67 -156.65,0 -242,-105.59 -242,-249.91"
             style="fill:url(#linearGradient510);fill-opacity:1;fill-rule:nonzero;stroke:none"
             id="path512" /></g></g><g
         id="g514"><g
           id="g516"
           clip-path="url(#clipPath520)"><path
             d="m 7560.32,2813.53 h -128.47 v -115.28 h 128.47 v 115.28"
             style="fill:url(#linearGradient526);fill-opacity:1;fill-rule:nonzero;stroke:none"
             id="path528" /></g></g><g
         id="g530"><g
           id="g532"
           clip-path="url(#clipPath536)"><g
             id="g538"
             clip-path="url(#clipPath542)"><path
               d="m 7680,2175 v 469 h 124 v -65 h 1 v 2 h 1 v 1 h 1 v 1 h 1 v 2 h 1 v 1 h 1 v 1 h 1 v 2 h 1 v 1 h 1 v 1 h 1 v 2 h 1 v 1 h 1 v 1 h 1 v 1 h 1 v 2 h 1 v 1 h 1 v 1 h 1 v 1 h 1 v 1 h 1 v 1 h 1 v 1 h 1 v 1 h 1 v 1 h 1 v 2 h 1 v 1 h 1 v 1 h 1 v 1 h 1 v 1 h 1 v 1 h 1 v 1 h 1 v 1 h 2 v 1 h 1 v 1 h 1 v 1 h 1 v 1 h 1 v 1 h 1 v 1 h 1 v 1 h 2 v 1 h 1 v 1 h 1 v 1 h 1 v 1 h 1 v 1 h 2 v 1 h 1 v 1 h 2 v 1 h 1 v 1 h 2 v 1 h 1 v 1 h 2 v 1 h 1 v 1 h 2 v 1 h 1 v 1 h 2 v 1 h 2 v 1 h 2 v 1 h 2 v 1 h 3 v 1 h 2 v 1 h 2 v 1 h 2 v 1 h 2 v 1 h 3 v 1 h 3 v 1 h 3 v 1 h 3 v 1 h 3 v 1 h 3 v 1 h 6 v 1 h 5 v 1 h 6 v 1 h 7 v 1 h 13 v 1 h 12 v -1 h 17 v -1 h 10 v -1 h 8 v -1 h 5 v -1 h 6 v -1 h 4 v -1 h 4 v -1 h 4 v -1 h 3 v -1 h 4 v -1 h 2 v -1 h 3 v -1 h 3 v -1 h 2 v -1 h 3 v -1 h 2 v -1 h 2 v -1 h 2 v -1 h 2 v -1 h 2 v -1 h 2 v -1 h 2 v -1 h 2 v -1 h 1 v -1 h 2 v -1 h 2 v -1 h 1 v -1 h 2 v -1 h 1 v -1 h 2 v -1 h 1 v -1 h 1 v -1 h 1 v -1 h 2 v -1 h 1 v -1 h 1 v -1 h 1 v -1 h 2 v -1 h 1 v -1 h 1 v -1 h 1 v -1 h 1 v -1 h 1 v -1 h 1 v -1 h 1 v -2 h 1 v -1 h 1 v -1 h 1 v -1 h 1 v -1 h 1 v -1 h 1 v -1 h 1 v -2 h 1 v -1 h 1 v -1 h 1 v -2 h 1 v -1 h 1 v -2 h 1 v -1 h 1 v -2 h 1 v -1 h 1 v -2 h 1 v -2 h 1 v -2 h 1 v -1 h 1 v -2 h 1 v -2 h 1 v -3 h 1 v -2 h 1 v -2 h 1 v -3 h 1 v -2 h 1 v -2 h 1 v -4 h 1 v -3 h 1 v -3 h 1 v -3 h 1 v -4 h 1 v -5 h 1 v -4 h 1 v -5 h 1 v -7 h 1 v -9 h 1 v -344 h -130 v 293 h -1 v 13 h -1 v 6 h -1 v 5 h -1 v 5 h -1 v 5 h -1 v 2 h -1 v 3 h -1 v 2 h -1 v 3 h -1 v 2 h -1 v 3 h -1 v 1 h -1 v 2 h -1 v 1 h -1 v 2 h -1 v 1 h -1 v 1 h -1 v 2 h -1 v 1 h -1 v 1 h -1 v 1 h -1 v 1 h -1 v 1 h -1 v 1 h -1 v 1 h -1 v 1 h -2 v 1 h -1 v 1 h -1 v 1 h -1 v 1 h -2 v 1 h -2 v 1 h -2 v 1 h -2 v 1 h -3 v 1 h -2 v 1 h -3 v 1 h -4 v 1 h -4 v 1 h -5 v 1 h -9 v 1 h -19 v -1 h -9 v -1 h -5 v -1 h -4 v -1 h -4 v -1 h -3 v -1 h -3 v -1 h -2 v -1 h -3 v -1 h -2 v -1 h -2 v -1 h -1 v -1 h -2 v -1 h -2 v -1 h -1 v -1 h -1 v -1 h -2 v -1 h -1 v -1 h -1 v -1 h -1 v -1 h -2 v -1 h -1 v -1 h -1 v -1 h -1 v -1 h -1 v -1 h -1 v -2 h -1 v -1 h -1 v -1 h -1 v -1 h -1 v -2 h -1 v -1 h -1 v -2 h -1 v -1 h -1 v -2 h -1 v -1 h -1 v -2 h -1 v -2 h -1 v -2 h -1 v -2 h -1 v -2 h -1 v -3 h -1 v -3 h -1 v -2 h -1 v -3 h -1 v -3 h -1 v -4 h -1 v -4 h -1 v -4 h -1 v -6 h -1 v -6 h -1 v -9 h -1 v -13 h -1 v -266"
               style="fill:url(#linearGradient548);fill-opacity:1;fill-rule:nonzero;stroke:none"
               id="path550" /></g></g></g><g
         id="g552"><g
           id="g554"
           clip-path="url(#clipPath558)"><path
             d="m 7431.85,2175.55 h 128.47 v 469.03 h -128.47 v -469.03"
             style="fill:url(#linearGradient564);fill-opacity:1;fill-rule:nonzero;stroke:none"
             id="path566" /></g></g><g
         id="g568"><g
           id="g570"
           clip-path="url(#clipPath574)"><path
             d="m 4268.26,1593.05 c 65.12,0 109.11,-47.52 109.11,-145.19 0,-90.64 -42.23,-142.56 -109.11,-142.56 -68.64,0 -109.12,48.4 -109.12,144.31 0,117.92 58.08,143.44 109.12,143.44 z m 0.88,-394.22 c 159.27,0 241.11,105.59 241.11,249.03 0,154.88 -87.12,251.68 -241.99,251.68 -156.64,0 -241.99,-105.61 -241.99,-249.93 0,-148.71 90.63,-250.78 242.87,-250.78"
             style="fill:url(#linearGradient580);fill-opacity:1;fill-rule:nonzero;stroke:none"
             id="path582" /></g></g><g
         id="g584"><g
           id="g586"
           clip-path="url(#clipPath590)"><path
             d="M 4019.26,13.4805 H 4121.5 V 216.539 c 0,83.063 38.34,99.402 75.26,99.402 41.89,0 63.19,-20.589 63.19,-73.132 V 13.4805 h 105.08 V 269.078 c 0,91.594 -51.83,132.063 -134.19,132.063 -47.57,0 -83.78,-20.59 -112.89,-64.61 v 54.668 h -98.69 V 13.4805"
             style="fill:url(#linearGradient596);fill-opacity:1;fill-rule:nonzero;stroke:none"
             id="path598" /></g></g><g
         id="g600"><g
           id="g602"
           clip-path="url(#clipPath606)"><path
             d="m 6077.53,1853.53 h -128.48 v -115.28 h 128.48 v 115.28"
             style="fill:url(#linearGradient612);fill-opacity:1;fill-rule:nonzero;stroke:none"
             id="path614" /></g></g><g
         id="g616"><g
           id="g618"
           clip-path="url(#clipPath622)"><path
             d="m 5401.69,1215.55 h 128.48 v 469.03 h -128.48 v -469.03"
             style="fill:url(#linearGradient628);fill-opacity:1;fill-rule:nonzero;stroke:none"
             id="path630" /></g></g><g
         id="g632"><g
           id="g634"
           clip-path="url(#clipPath638)"><path
             d="M 5239.02,401.141 C 5121.87,401.141 5060.1,318.77 5060.1,195.242 5060.1,70.9883 5121.87,0 5238.31,0 c 101.52,0 166.85,73.1211 171.82,151.219 h -105.08 c -2.13,-36.207 -18.46,-65.3206 -63.9,-65.3206 -58.22,0 -74.55,49.7036 -74.55,112.1836 0,93.008 35.5,116.438 75.26,116.438 42.59,0 58.93,-27.688 63.9,-59.641 h 105.08 c -11.37,103.66 -68.16,146.262 -171.82,146.262"
             style="fill:url(#linearGradient644);fill-opacity:1;fill-rule:nonzero;stroke:none"
             id="path646" /></g></g><g
         id="g648"><g
           id="g650"
           clip-path="url(#clipPath654)"><path
             d="m 5792.41,1811.29 h -125.84 v -132 h -65.11 v -88.87 h 65.11 v -286 c 0,-73.03 40.48,-95.04 144.32,-95.04 19.36,0 38.72,0 58.07,0.89 v 95.03 c -5.27,-0.88 -16.71,-0.88 -23.75,-0.88 -44,0 -52.8,5.28 -52.8,44 v 242 h 76.55 v 88.87 h -76.55 v 132"
             style="fill:url(#linearGradient660);fill-opacity:1;fill-rule:nonzero;stroke:none"
             id="path662" /></g></g><g
         id="g664"><g
           id="g666"
           clip-path="url(#clipPath670)"><path
             d="m 5530.17,1853.53 h -128.48 v -115.28 h 128.48 v 115.28"
             style="fill:url(#linearGradient676);fill-opacity:1;fill-rule:nonzero;stroke:none"
             id="path678" /></g></g><g
         id="g680"><g
           id="g682"
           clip-path="url(#clipPath686)"><path
             d="m 6077.53,1684.58 h -128.48 v -469.03 h 128.48 v 469.03"
             style="fill:url(#linearGradient692);fill-opacity:1;fill-rule:nonzero;stroke:none"
             id="path694" /></g></g><g
         id="g696"><g
           id="g698"
           clip-path="url(#clipPath702)"><path
             d="M 5355.05,2175.55 H 5480 v 144.31 l 50.17,52.8 108.23,-197.11 h 153.11 l -168.95,286.87 162.79,180.39 H 5628.72 L 5480,2468.58 v 337.91 h -124.95 v -630.94"
             style="fill:url(#linearGradient708);fill-opacity:1;fill-rule:nonzero;stroke:none"
             id="path710" /></g></g><g
         id="g712"><g
           id="g714"
           clip-path="url(#clipPath718)"><path
             d="m 5834.7,241.391 c 6.38,47.57 31.23,76.679 74.54,76.679 46.15,0 71.71,-29.82 73.84,-76.679 z m 73.84,160.461 c -103.67,0 -178.93,-75.262 -178.93,-202.352 0,-146.9687 97.27,-198.800781 185.31,-198.800781 105.79,0 166.85,56.089881 173.24,122.120781 H 5982.37 C 5970.3,93 5941.9,83.7695 5915.63,83.7695 c -55.38,0 -83.07,38.3395 -83.77,90.8785 h 257.01 c 4.26,158.321 -66.03,227.204 -180.33,227.204"
             style="fill:url(#linearGradient724);fill-opacity:1;fill-rule:nonzero;stroke:none"
             id="path726" /></g></g></g></g></svg>
