<?xml version="1.0" encoding="utf-8"?>
<!-- Generator: Adobe Illustrator 26.0.1, SVG Export Plug-In . SVG Version: 6.00 Build 0)  -->
<svg version="1.1" id="Ebene_1" xmlns="http://www.w3.org/2000/svg" xmlns:xlink="http://www.w3.org/1999/xlink" x="0px" y="0px"
	 viewBox="0 0 1080 1080" style="enable-background:new 0 0 1080 1080;" xml:space="preserve">
<style type="text/css">
	.st0{fill:none;stroke:url(#SVGID_1_);stroke-width:5.5808;stroke-miterlimit:10;}
	
		.st1{fill:none;stroke:url(#SVGID_00000170274848969508432730000010746329231801295024_);stroke-width:5.5808;stroke-miterlimit:10;}
	
		.st2{fill:none;stroke:url(#SVGID_00000072265909199539403400000010197120048737730732_);stroke-width:5.5808;stroke-miterlimit:10;}
	
		.st3{fill:none;stroke:url(#SVGID_00000166657025588193687560000003278727800006618253_);stroke-width:5.5808;stroke-miterlimit:10;}
	
		.st4{fill:none;stroke:url(#SVGID_00000065042280770572144470000016884833420239866553_);stroke-width:5.5808;stroke-miterlimit:10;}
	
		.st5{fill:none;stroke:url(#SVGID_00000075882426263091434660000005649821227183787909_);stroke-width:5.5808;stroke-miterlimit:10;}
	
		.st6{fill:none;stroke:url(#SVGID_00000129925903377359733320000005311465422303611027_);stroke-width:5.5808;stroke-miterlimit:10;}
	
		.st7{fill:none;stroke:url(#SVGID_00000183234524973681563800000001991909769156290946_);stroke-width:5.5808;stroke-miterlimit:10;}
	
		.st8{fill:none;stroke:url(#SVGID_00000099640732246606652180000011400462627645184397_);stroke-width:5.5808;stroke-miterlimit:10;}
	
		.st9{fill:none;stroke:url(#SVGID_00000134930789938178962310000003428968908161986978_);stroke-width:5.5808;stroke-miterlimit:10;}
	
		.st10{fill:none;stroke:url(#SVGID_00000068656133887328858060000000047483367243800767_);stroke-width:5.5808;stroke-miterlimit:10;}
	
		.st11{fill:none;stroke:url(#SVGID_00000006702458538035357700000018150414057157924000_);stroke-width:5.5808;stroke-miterlimit:10;}
	
		.st12{fill:none;stroke:url(#SVGID_00000091000215795497934070000013687991113091634607_);stroke-width:5.5808;stroke-miterlimit:10;}
	
		.st13{fill:none;stroke:url(#SVGID_00000016786833027577363500000012480552884140229293_);stroke-width:5.5808;stroke-miterlimit:10;}
	
		.st14{fill:none;stroke:url(#SVGID_00000000181789108029019680000016347947926656438176_);stroke-width:5.5808;stroke-miterlimit:10;}
	
		.st15{fill:none;stroke:url(#SVGID_00000149363123259685234430000011595843872953128615_);stroke-width:5.5808;stroke-miterlimit:10;}
	
		.st16{fill:none;stroke:url(#SVGID_00000052822360415349162560000017150225953826975150_);stroke-width:5.5808;stroke-miterlimit:10;}
	
		.st17{fill:none;stroke:url(#SVGID_00000115509993602713075020000005785781836214420661_);stroke-width:5.5808;stroke-miterlimit:10;}
	
		.st18{fill:none;stroke:url(#SVGID_00000089542741731294010500000009764520636513279911_);stroke-width:5.5808;stroke-miterlimit:10;}
	
		.st19{fill:none;stroke:url(#SVGID_00000091695854966710956740000017768847920029579656_);stroke-width:5.5808;stroke-miterlimit:10;}
	
		.st20{fill:none;stroke:url(#SVGID_00000137118230717191777820000006323967487490298540_);stroke-width:5.5808;stroke-miterlimit:10;}
	
		.st21{fill:none;stroke:url(#SVGID_00000044152651071067988130000002107855680547168411_);stroke-width:5.5808;stroke-miterlimit:10;}
	
		.st22{fill:none;stroke:url(#SVGID_00000116201778972080223420000009525471306472328098_);stroke-width:5.5808;stroke-miterlimit:10;}
	
		.st23{fill:none;stroke:url(#SVGID_00000088821918407706067050000006833877331274042031_);stroke-width:5.5808;stroke-miterlimit:10;}
	
		.st24{fill:none;stroke:url(#SVGID_00000021107228352269160140000008955948605065529501_);stroke-width:5.5808;stroke-miterlimit:10;}
	
		.st25{fill:none;stroke:url(#SVGID_00000118359648394564420340000005161676249275452051_);stroke-width:5.5808;stroke-miterlimit:10;}
	
		.st26{fill:none;stroke:url(#SVGID_00000062878423247494041580000010342456478499136662_);stroke-width:5.5808;stroke-miterlimit:10;}
	.st27{opacity:0.7;}
	
		.st28{fill:none;stroke:url(#SVGID_00000110438291140354027950000015666586065996748181_);stroke-width:5.5808;stroke-miterlimit:10;}
	
		.st29{fill:none;stroke:url(#SVGID_00000062898183702303448680000000300110012421046197_);stroke-width:5.5808;stroke-miterlimit:10;}
	
		.st30{fill:none;stroke:url(#SVGID_00000085217948372600399990000012591853960166920614_);stroke-width:5.5808;stroke-miterlimit:10;}
	
		.st31{fill:none;stroke:url(#SVGID_00000145050487657361838290000013734978585577331615_);stroke-width:5.5808;stroke-miterlimit:10;}
	
		.st32{fill:none;stroke:url(#SVGID_00000157302917942347193870000018378197267979563401_);stroke-width:5.5808;stroke-miterlimit:10;}
	
		.st33{fill:none;stroke:url(#SVGID_00000158735037484503621120000004320062428760439711_);stroke-width:5.5808;stroke-miterlimit:10;}
	
		.st34{fill:none;stroke:url(#SVGID_00000018197112913683885170000003161884531658810511_);stroke-width:5.5808;stroke-miterlimit:10;}
	
		.st35{fill:none;stroke:url(#SVGID_00000116919640683738528170000006373489177684128431_);stroke-width:5.5808;stroke-miterlimit:10;}
	
		.st36{fill:none;stroke:url(#SVGID_00000173845542607595412230000014973167769745608613_);stroke-width:5.5808;stroke-miterlimit:10;}
</style>
<g>
	<g>
		<g>
			<path d="M221.47,828.77v141.39h-12.96v-19.82c-8.2,13.53-22.11,20.77-38.68,20.77c-28.58,0-49.93-20.77-49.93-51.07
				c0-30.3,21.34-50.88,49.93-50.88c16.01,0,29.73,6.86,38.11,19.82v-60.22H221.47z M208.13,920.04c0-23.44-16.01-39.06-37.16-39.06
				c-21.34,0-37.35,15.63-37.35,39.06c0,23.44,16.01,39.07,37.35,39.07C192.12,959.11,208.13,943.48,208.13,920.04z"/>
			<path d="M341.71,924.24h-83.85c1.52,20.96,17.53,34.87,39.45,34.87c12.2,0,23.06-4.38,30.68-13.15l7.62,8.77
				c-8.96,10.67-22.87,16.39-38.68,16.39c-31.25,0-52.59-21.34-52.59-51.07c0-29.73,20.77-50.88,48.97-50.88
				s48.59,20.77,48.59,50.88C341.9,921.19,341.71,922.71,341.71,924.24z M257.86,914.14h71.08c-1.72-19.63-16.01-33.35-35.63-33.35
				C273.87,880.79,259.58,894.51,257.86,914.14z"/>
			<path d="M364.76,828.77h13.53v141.39h-13.53V828.77z"/>
			<path d="M468.23,964.06c-5.34,4.76-13.34,7.05-21.15,7.05c-18.86,0-29.35-10.67-29.35-29.16v-60.6h-17.91v-11.43h17.91v-21.91
				h13.53v21.91h30.49v11.43h-30.49v59.84c0,11.82,6.1,18.29,17.34,18.29c5.53,0,11.05-1.71,14.86-5.14L468.23,964.06z"/>
			<path d="M567.51,908.04v62.12h-12.96v-15.63c-6.1,10.29-17.91,16.58-34.49,16.58c-22.68,0-36.59-11.81-36.59-29.16
				c0-15.44,9.91-28.39,38.68-28.39h31.82v-6.1c0-17.15-9.72-26.49-28.39-26.49c-12.96,0-25.15,4.57-33.35,11.81l-6.1-10.1
				c10.1-8.58,24.96-13.53,40.78-13.53C552.84,869.16,567.51,882.12,567.51,908.04z M553.98,940.05v-16.39h-31.44
				c-19.44,0-25.73,7.62-25.73,17.91c0,11.62,9.34,18.87,25.34,18.87C537.4,960.44,548.65,953.2,553.98,940.05z"/>
		</g>
		<g>
			<path d="M650.95,970.14H607.6c-6.07,0-10.99-4.92-10.99-10.99V889.9c0-6.07,4.92-10.99,10.99-10.99
				c6.07,0,10.99,4.92,10.99,10.99v58.27h31.57c0.35-0.03,0.72-0.03,1.08-0.02h0.13c26.65,0,48.33-21.68,48.33-48.33
				c0-26.65-21.68-48.33-48.33-48.33h-0.42c-1.12,0-2.21-0.17-3.23-0.48H607.6c-6.07,0-10.99-4.92-10.99-10.99
				s4.92-10.99,10.99-10.99h43.34c1.2,0,2.35,0.19,3.43,0.54c37.38,1.58,67.3,32.48,67.3,70.24c0,38.66-31.36,70.13-69.98,70.3
				C651.45,970.13,651.2,970.14,650.95,970.14z"/>
		</g>
		<g>
			<path d="M848.03,970.16H738.45c-6.16,0-11.15-4.99-11.15-11.15c0-6.16,4.99-11.15,11.15-11.15h90.42l-48.27-84.91l-13.7,24.1
				c-3.05,5.36-9.85,7.23-15.21,4.18c-5.35-3.04-7.23-9.85-4.18-15.21l23.4-41.15c1.98-3.49,5.69-5.64,9.7-5.64l0,0
				c4.01,0,7.71,2.15,9.7,5.64l67.44,118.63c1.96,3.45,1.94,7.69-0.06,11.12C855.68,968.04,852,970.16,848.03,970.16z"/>
		</g>
		<g>
			<path d="M897.62,969.88c-5.5,0-10.29-4.06-11.06-9.66c-0.84-6.11,3.44-11.75,9.55-12.59c23.73-3.26,41.63-23.81,41.63-47.81
				c0-26.61-21.64-48.25-48.25-48.25c-13.95,0-27.21,6.05-36.4,16.59c-4.05,4.65-11.11,5.14-15.77,1.09
				c-4.65-4.05-5.14-11.11-1.09-15.77c13.43-15.42,32.84-24.26,53.25-24.26c38.93,0,70.6,31.67,70.6,70.6
				c0,35.11-26.2,65.18-60.94,69.95C898.64,969.85,898.13,969.88,897.62,969.88z"/>
		</g>
	</g>
	<g>
		<g>
			<g>
				<linearGradient id="SVGID_1_" gradientUnits="userSpaceOnUse" x1="507.8049" y1="146.4159" x2="775.4268" y2="146.4159">
					<stop  offset="0.1324" style="stop-color:#00FFFF"/>
					<stop  offset="0.8573" style="stop-color:#0F2AA5"/>
				</linearGradient>
				<path class="st0" d="M773.73,194.98c-5.66-4.34-11.06-6.68-17.21-8.92c0,0-45.52-20.54-113.22-45.3s-115.75-38.42-115.75-38.42
					c-6.53-2.12-13.08-3.4-19.53-3.92"/>
				
					<linearGradient id="SVGID_00000062183497496091927080000012991941590921154217_" gradientUnits="userSpaceOnUse" x1="482.8248" y1="171.8042" x2="782.0878" y2="171.8042">
					<stop  offset="0.1324" style="stop-color:#00FFFF"/>
					<stop  offset="0.8573" style="stop-color:#0F2AA5"/>
				</linearGradient>
				
					<path style="fill:none;stroke:url(#SVGID_00000062183497496091927080000012991941590921154217_);stroke-width:5.5808;stroke-miterlimit:10;" d="
					M780.25,226.5c-6.57-5.76-14.19-11.06-22.84-15.76c-5.29-2.88-52.05-24.81-121.37-50.16c-69.32-25.35-119.24-38.76-125.18-39.98
					c-9.76-2.01-19.13-2.91-28-2.78"/>
				
					<linearGradient id="SVGID_00000175290822643424451550000001976062721797563057_" gradientUnits="userSpaceOnUse" x1="455.8774" y1="196.7786" x2="790.7379" y2="196.7786">
					<stop  offset="0.1324" style="stop-color:#00FFFF"/>
					<stop  offset="0.8573" style="stop-color:#0F2AA5"/>
				</linearGradient>
				
					<path style="fill:none;stroke:url(#SVGID_00000175290822643424451550000001976062721797563057_);stroke-width:5.5808;stroke-miterlimit:10;" d="
					M788.78,258.22c-8.07-7.94-18.61-16.01-30.48-22.81c-10.45-5.99-58.59-29.08-129.52-55.02
					c-70.93-25.94-122.68-39.36-134.61-41.53c-13.63-2.49-26.67-3.21-38.09-2.42"/>
				
					<linearGradient id="SVGID_00000145019395665846538880000003338709826314187917_" gradientUnits="userSpaceOnUse" x1="430.0583" y1="221.5046" x2="798.4133" y2="221.5046">
					<stop  offset="0.1324" style="stop-color:#00FFFF"/>
					<stop  offset="0.8573" style="stop-color:#0F2AA5"/>
				</linearGradient>
				
					<path style="fill:none;stroke:url(#SVGID_00000145019395665846538880000003338709826314187917_);stroke-width:5.5808;stroke-miterlimit:10;" d="
					M796.37,289.47c-9.28-10-22.06-20.38-37.18-29.39c-15.52-9.25-65.12-33.35-137.68-59.87c-72.54-26.53-126.1-40.13-144.04-43.09
					c-17.69-2.92-33.37-3.38-47.09-1.79"/>
				
					<linearGradient id="SVGID_00000061452318913517601640000003717085373948582796_" gradientUnits="userSpaceOnUse" x1="405.7256" y1="245.8795" x2="805.0883" y2="245.8795">
					<stop  offset="0.1324" style="stop-color:#00FFFF"/>
					<stop  offset="0.8573" style="stop-color:#0F2AA5"/>
				</linearGradient>
				
					<path style="fill:none;stroke:url(#SVGID_00000061452318913517601640000003717085373948582796_);stroke-width:5.5808;stroke-miterlimit:10;" d="
					M802.97,320.02c-10.28-12.03-24.37-23.88-42.89-35.26c-20.53-12.61-71.66-37.61-145.83-64.73
					c-74.16-27.12-129.5-41-153.48-44.64c-21.1-3.21-39.24-3.41-54.65-1.23"/>
				
					<linearGradient id="SVGID_00000022561749300011120390000008259690952392090796_" gradientUnits="userSpaceOnUse" x1="371.5831" y1="273.3022" x2="816.4879" y2="273.3022">
					<stop  offset="0.1324" style="stop-color:#00FFFF"/>
					<stop  offset="0.8573" style="stop-color:#0F2AA5"/>
				</linearGradient>
				
					<path style="fill:none;stroke:url(#SVGID_00000022561749300011120390000008259690952392090796_);stroke-width:5.5808;stroke-miterlimit:10;" d="
					M814.22,356.75c-11.13-15.58-28.67-31.86-53.25-47.31c-25.49-16.03-78.19-41.88-153.98-69.59
					c-75.77-27.71-132.9-41.95-162.91-46.2c-29.21-4.13-53.16-3.17-71.83,1.34"/>
				
					<linearGradient id="SVGID_00000139978098441875844910000013157854422354624915_" gradientUnits="userSpaceOnUse" x1="351.1853" y1="295.7624" x2="820.0266" y2="295.7624">
					<stop  offset="0.1324" style="stop-color:#00FFFF"/>
					<stop  offset="0.8573" style="stop-color:#0F2AA5"/>
				</linearGradient>
				
					<path style="fill:none;stroke:url(#SVGID_00000139978098441875844910000013157854422354624915_);stroke-width:5.5808;stroke-miterlimit:10;" d="
					M817.77,383.58c-11.76-16.08-29.96-32.82-55.92-49.46c-30.42-19.5-84.73-46.15-162.13-74.45
					c-77.38-28.3-136.29-42.96-172.34-47.76c-31.2-4.15-56.02-3.6-75.56,0.92"/>
				
					<linearGradient id="SVGID_00000181803666281878008430000002505283345838889348_" gradientUnits="userSpaceOnUse" x1="326.1914" y1="320.1166" x2="826.5191" y2="320.1166">
					<stop  offset="0.1324" style="stop-color:#00FFFF"/>
					<stop  offset="0.8573" style="stop-color:#0F2AA5"/>
				</linearGradient>
				
					<path style="fill:none;stroke:url(#SVGID_00000181803666281878008430000002505283345838889348_);stroke-width:5.5808;stroke-miterlimit:10;" d="
					M824.22,414.47c-12.28-17.83-31.98-36.47-61.48-55.68c-35.33-23.01-91.27-50.42-170.29-79.31c-79-28.89-139.67-44-181.78-49.31
					c-35.17-4.44-62.83-4.39-83.8,0.91"/>
				
					<linearGradient id="SVGID_00000090989241788749291360000004581261356148243621_" gradientUnits="userSpaceOnUse" x1="300.9565" y1="344.0424" x2="832.368" y2="344.0424">
					<stop  offset="0.1324" style="stop-color:#00FFFF"/>
					<stop  offset="0.8573" style="stop-color:#0F2AA5"/>
				</linearGradient>
				
					<path style="fill:none;stroke:url(#SVGID_00000090989241788749291360000004581261356148243621_);stroke-width:5.5808;stroke-miterlimit:10;" d="
					M830.05,444.5c-28.64-43-99.09-91.91-244.86-145.2c-147.42-53.9-233.89-62.55-283.47-48.51"/>
			</g>
			<g>
				
					<linearGradient id="SVGID_00000105425028839642876730000002038280549309683891_" gradientUnits="userSpaceOnUse" x1="587.3969" y1="737.879" x2="857.4396" y2="467.8362">
					<stop  offset="0.071" style="stop-color:#3C7CE1"/>
					<stop  offset="0.1304" style="stop-color:#3570D8"/>
					<stop  offset="0.3033" style="stop-color:#2552C2"/>
					<stop  offset="0.4739" style="stop-color:#193DB2"/>
					<stop  offset="0.6398" style="stop-color:#1230A8"/>
					<stop  offset="0.7954" style="stop-color:#102CA5"/>
				</linearGradient>
				
					<path style="fill:none;stroke:url(#SVGID_00000105425028839642876730000002038280549309683891_);stroke-width:5.5808;stroke-miterlimit:10;" d="
					M579.61,727.17c18.42,0.92,37.56-4.73,53.47-18.04c0,0,40.55-29.15,95.84-75.4c55.29-46.26,91.15-81.03,91.15-81.03
					c33.26-27.83,34.03-78.47,9.7-108.61"/>
				
					<linearGradient id="SVGID_00000144334102257956208950000010648152715933872807_" gradientUnits="userSpaceOnUse" x1="564.2106" y1="727.7255" x2="852.8476" y2="439.0885">
					<stop  offset="0.071" style="stop-color:#3C7CE1"/>
					<stop  offset="0.1304" style="stop-color:#3570D8"/>
					<stop  offset="0.3033" style="stop-color:#2552C2"/>
					<stop  offset="0.4739" style="stop-color:#193DB2"/>
					<stop  offset="0.6398" style="stop-color:#1230A8"/>
					<stop  offset="0.7954" style="stop-color:#102CA5"/>
				</linearGradient>
				
					<path style="fill:none;stroke:url(#SVGID_00000144334102257956208950000010648152715933872807_);stroke-width:5.5808;stroke-miterlimit:10;" d="
					M554.55,715.29c17.98-0.1,37.55-5.88,56.96-17.85c5.09-3.14,47.38-32.65,103.88-79.92c56.72-47.45,93.34-83.95,97.34-88.42
					c34.6-38.66,37.03-84.62,11.31-114.88"/>
				
					<linearGradient id="SVGID_00000121994568899088096340000000449729787735622839_" gradientUnits="userSpaceOnUse" x1="544.0955" y1="714.0247" x2="848.1427" y2="409.9775">
					<stop  offset="0.071" style="stop-color:#3C7CE1"/>
					<stop  offset="0.1304" style="stop-color:#3570D8"/>
					<stop  offset="0.3033" style="stop-color:#2552C2"/>
					<stop  offset="0.4739" style="stop-color:#193DB2"/>
					<stop  offset="0.6398" style="stop-color:#1230A8"/>
					<stop  offset="0.7954" style="stop-color:#102CA5"/>
				</linearGradient>
				
					<path style="fill:none;stroke:url(#SVGID_00000121994568899088096340000000449729787735622839_);stroke-width:5.5808;stroke-miterlimit:10;" d="
					M537.04,704.49c16.33-1.72,34.18-7.74,52.91-18.73c10.31-6.05,54.2-36.16,111.91-84.43c58.15-48.65,95.73-86.69,103.54-95.81
					c39.38-46,39.27-91.77,12.17-122.17"/>
				
					<linearGradient id="SVGID_00000140694271286275927980000011793294085120741819_" gradientUnits="userSpaceOnUse" x1="521.295" y1="706.2462" x2="844.5163" y2="383.025">
					<stop  offset="0.071" style="stop-color:#3C7CE1"/>
					<stop  offset="0.1304" style="stop-color:#3570D8"/>
					<stop  offset="0.3033" style="stop-color:#2552C2"/>
					<stop  offset="0.4739" style="stop-color:#193DB2"/>
					<stop  offset="0.6398" style="stop-color:#1230A8"/>
					<stop  offset="0.7954" style="stop-color:#102CA5"/>
				</linearGradient>
				
					<path style="fill:none;stroke:url(#SVGID_00000140694271286275927980000011793294085120741819_);stroke-width:5.5808;stroke-miterlimit:10;" d="
					M511.61,694.1c17.01-1.94,36.01-8.31,56.78-20.03c15.62-8.81,61.03-39.66,119.95-88.95c59.58-49.84,98.24-89.33,109.73-103.21
					c42.09-50.85,40.66-95.32,15.72-125.7"/>
				
					<linearGradient id="SVGID_00000034076646106444518860000017018284243974981557_" gradientUnits="userSpaceOnUse" x1="492.8884" y1="696.2107" x2="838.0001" y2="351.099">
					<stop  offset="0.071" style="stop-color:#3C7CE1"/>
					<stop  offset="0.1304" style="stop-color:#3570D8"/>
					<stop  offset="0.3033" style="stop-color:#2552C2"/>
					<stop  offset="0.4739" style="stop-color:#193DB2"/>
					<stop  offset="0.6398" style="stop-color:#1230A8"/>
					<stop  offset="0.7954" style="stop-color:#102CA5"/>
				</linearGradient>
				
					<path style="fill:none;stroke:url(#SVGID_00000034076646106444518860000017018284243974981557_);stroke-width:5.5808;stroke-miterlimit:10;" d="
					M483.24,684.05c18.45-1.76,39.61-8.54,63.58-21.66c20.97-11.48,67.86-43.17,127.98-93.46c61.01-51.04,100.85-91.91,115.92-110.6
					c49.03-60.79,39.38-108.8,12.16-138.4"/>
				
					<linearGradient id="SVGID_00000070814632579693406250000018054103974268884878_" gradientUnits="userSpaceOnUse" x1="467.6495" y1="687.3494" x2="832.9171" y2="322.0818">
					<stop  offset="0.071" style="stop-color:#3C7CE1"/>
					<stop  offset="0.1304" style="stop-color:#3570D8"/>
					<stop  offset="0.3033" style="stop-color:#2552C2"/>
					<stop  offset="0.4739" style="stop-color:#193DB2"/>
					<stop  offset="0.6398" style="stop-color:#1230A8"/>
					<stop  offset="0.7954" style="stop-color:#102CA5"/>
				</linearGradient>
				
					<path style="fill:none;stroke:url(#SVGID_00000070814632579693406250000018054103974268884878_);stroke-width:5.5808;stroke-miterlimit:10;" d="
					M456.64,673.83c19.46-1.84,42.19-9.01,68.61-23.12c26.36-14.08,74.69-46.68,136.02-97.98
					c62.44-52.24,103.51-94.44,122.12-117.99c53.9-68.23,43.15-113.41,12.24-145.99"/>
				
					<linearGradient id="SVGID_00000159460745519065701280000008346809945487300246_" gradientUnits="userSpaceOnUse" x1="443.8599" y1="676.9786" x2="827.6903" y2="293.1482">
					<stop  offset="0.071" style="stop-color:#3C7CE1"/>
					<stop  offset="0.1304" style="stop-color:#3570D8"/>
					<stop  offset="0.3033" style="stop-color:#2552C2"/>
					<stop  offset="0.4739" style="stop-color:#193DB2"/>
					<stop  offset="0.6398" style="stop-color:#1230A8"/>
					<stop  offset="0.7954" style="stop-color:#102CA5"/>
				</linearGradient>
				
					<path style="fill:none;stroke:url(#SVGID_00000159460745519065701280000008346809945487300246_);stroke-width:5.5808;stroke-miterlimit:10;" d="
					M432.67,663.34c19.93-2.3,43.4-9.86,71.02-24.32c31.78-16.63,81.52-50.18,144.05-102.5c63.87-53.43,106.22-96.93,128.31-125.39
					c58.77-75.69,44.76-122.6,12.11-153.5"/>
				
					<linearGradient id="SVGID_00000010306207132411774270000001194369386656737967_" gradientUnits="userSpaceOnUse" x1="415.5981" y1="670.3589" x2="821.8987" y2="264.0583">
					<stop  offset="0.071" style="stop-color:#3C7CE1"/>
					<stop  offset="0.1304" style="stop-color:#3570D8"/>
					<stop  offset="0.3033" style="stop-color:#2552C2"/>
					<stop  offset="0.4739" style="stop-color:#193DB2"/>
					<stop  offset="0.6398" style="stop-color:#1230A8"/>
					<stop  offset="0.7954" style="stop-color:#102CA5"/>
				</linearGradient>
				
					<path style="fill:none;stroke:url(#SVGID_00000010306207132411774270000001194369386656737967_);stroke-width:5.5808;stroke-miterlimit:10;" d="
					M401.39,653.59c21.94-1.69,48.49-9.66,80.73-26.25c37.21-19.15,88.34-53.69,152.09-107.01c65.3-54.63,108.96-99.41,134.5-132.78
					c63.66-83.16,45.07-130.45,11.04-161.48"/>
				
					<linearGradient id="SVGID_00000148647188029317017700000008595510545138026665_" gradientUnits="userSpaceOnUse" x1="388.4966" y1="662.8871" x2="817.5522" y2="233.8314">
					<stop  offset="0.071" style="stop-color:#3C7CE1"/>
					<stop  offset="0.1304" style="stop-color:#3570D8"/>
					<stop  offset="0.3033" style="stop-color:#2552C2"/>
					<stop  offset="0.4739" style="stop-color:#193DB2"/>
					<stop  offset="0.6398" style="stop-color:#1230A8"/>
					<stop  offset="0.7954" style="stop-color:#102CA5"/>
				</linearGradient>
				
					<path style="fill:none;stroke:url(#SVGID_00000148647188029317017700000008595510545138026665_);stroke-width:5.5808;stroke-miterlimit:10;" d="
					M371.83,643.58c51.28-2.77,128.86-39.08,248.85-139.46C845.3,316.21,822.26,232.38,772.83,194.28"/>
			</g>
			<g>
				
					<linearGradient id="SVGID_00000173132757046667651150000001727181198662973079_" gradientUnits="userSpaceOnUse" x1="305.0013" y1="646.9261" x2="305.0013" y2="247.9825">
					<stop  offset="0.0332" style="stop-color:#3C7CE1"/>
					<stop  offset="0.1315" style="stop-color:#67ADEF"/>
					<stop  offset="0.961" style="stop-color:#00FFFF"/>
				</linearGradient>
				
					<path style="fill:none;stroke:url(#SVGID_00000173132757046667651150000001727181198662973079_);stroke-width:5.5808;stroke-miterlimit:10;" d="
					M302.08,250.73c-38.49,6.91-67.8,46.37-60.27,89.44c0,0,4.97,49.69,17.38,120.7c12.41,71.01,24.6,119.45,24.6,119.45
					c7.47,42.72,51,67.93,88.05,63.26"/>
				
					<linearGradient id="SVGID_00000036237138742910275130000015244224921303552664_" gradientUnits="userSpaceOnUse" x1="330.7948" y1="656.9982" x2="330.7948" y2="228.2518">
					<stop  offset="0.0332" style="stop-color:#3C7CE1"/>
					<stop  offset="0.1315" style="stop-color:#67ADEF"/>
					<stop  offset="0.961" style="stop-color:#00FFFF"/>
				</linearGradient>
				
					<path style="fill:none;stroke:url(#SVGID_00000036237138742910275130000015244224921303552664_);stroke-width:5.5808;stroke-miterlimit:10;" d="
					M327.21,230.99c-39.05,7.76-65.9,44.24-64.49,96.23c0.16,5.99,4.56,57.4,17.26,130.04c12.73,72.81,26.06,122.77,27.97,128.51
					c16.38,49.41,52.05,72.65,93.45,67.82"/>
				
					<linearGradient id="SVGID_00000057125865918379008360000011920063303469926072_" gradientUnits="userSpaceOnUse" x1="356.9753" y1="667.2526" x2="356.9753" y2="209.9843">
					<stop  offset="0.0332" style="stop-color:#3C7CE1"/>
					<stop  offset="0.1315" style="stop-color:#67ADEF"/>
					<stop  offset="0.961" style="stop-color:#00FFFF"/>
				</linearGradient>
				
					<path style="fill:none;stroke:url(#SVGID_00000057125865918379008360000011920063303469926072_);stroke-width:5.5808;stroke-miterlimit:10;" d="
					M352.24,212.74c-38.76,6.48-68.6,37.99-68.6,101.52c0,11.98,4.16,65.11,17.14,139.38c13.04,74.6,27.27,126.18,31.33,137.57
					c20.45,57.35,59.47,78.62,100.57,72.14"/>
				
					<linearGradient id="SVGID_00000043422387117763979330000014616905030972801696_" gradientUnits="userSpaceOnUse" x1="379.4073" y1="677.5147" x2="379.4073" y2="192.1619">
					<stop  offset="0.0332" style="stop-color:#3C7CE1"/>
					<stop  offset="0.1315" style="stop-color:#67ADEF"/>
					<stop  offset="0.961" style="stop-color:#00FFFF"/>
				</linearGradient>
				
					<path style="fill:none;stroke:url(#SVGID_00000043422387117763979330000014616905030972801696_);stroke-width:5.5808;stroke-miterlimit:10;" d="
					M372.67,194.91c-37.93,6.97-67.33,40.96-68.12,106.4c-0.22,17.96,3.75,72.82,17.02,148.71c13.35,76.4,28.32,129.65,34.7,146.62
					c23.09,61.46,62.54,82.93,100.38,77.19"/>
				
					<linearGradient id="SVGID_00000114034089017893287920000013876003561474287792_" gradientUnits="userSpaceOnUse" x1="403.1186" y1="687.5803" x2="403.1186" y2="171.3533">
					<stop  offset="0.0332" style="stop-color:#3C7CE1"/>
					<stop  offset="0.1315" style="stop-color:#67ADEF"/>
					<stop  offset="0.961" style="stop-color:#00FFFF"/>
				</linearGradient>
				
					<path style="fill:none;stroke:url(#SVGID_00000114034089017893287920000013876003561474287792_);stroke-width:5.5808;stroke-miterlimit:10;" d="
					M406.29,174.13c-42.83,3.82-78.87,36.73-80.82,114.22c-0.6,23.95,3.34,80.53,16.9,158.05c13.67,78.19,29.27,133.16,38.07,155.68
					c25.98,66.51,65.49,87.05,102.81,81.97"/>
				
					<linearGradient id="SVGID_00000067221574604590805690000018315868878010897051_" gradientUnits="userSpaceOnUse" x1="427.7202" y1="697.7547" x2="427.7202" y2="152.4669">
					<stop  offset="0.0332" style="stop-color:#3C7CE1"/>
					<stop  offset="0.1315" style="stop-color:#67ADEF"/>
					<stop  offset="0.961" style="stop-color:#00FFFF"/>
				</linearGradient>
				
					<path style="fill:none;stroke:url(#SVGID_00000067221574604590805690000018315868878010897051_);stroke-width:5.5808;stroke-miterlimit:10;" d="
					M431.07,155.25c-43.91,3.05-81.61,34.07-84.68,120.14c-1.07,29.92,2.94,88.24,16.77,167.39
					c13.98,79.99,30.15,136.7,41.44,164.74c29.15,72.44,69.47,92.05,107.02,86.58"/>
				
					<linearGradient id="SVGID_00000030486970895877653020000017301850114260530579_" gradientUnits="userSpaceOnUse" x1="451.079" y1="707.7939" x2="451.079" y2="133.6195">
					<stop  offset="0.0332" style="stop-color:#3C7CE1"/>
					<stop  offset="0.1315" style="stop-color:#67ADEF"/>
					<stop  offset="0.961" style="stop-color:#00FFFF"/>
				</linearGradient>
				
					<path style="fill:none;stroke:url(#SVGID_00000030486970895877653020000017301850114260530579_);stroke-width:5.5808;stroke-miterlimit:10;" d="
					M456.76,136.41c-44.99,2.28-85.27,31.35-89.46,126.03c-1.59,35.9,2.53,95.96,16.65,176.73c14.3,81.78,30.98,140.27,44.81,173.8
					c31.55,76.54,71.69,96.09,108.86,91.38"/>
				
					<linearGradient id="SVGID_00000043432275495584320250000010135724034402188428_" gradientUnits="userSpaceOnUse" x1="470.1523" y1="718.0731" x2="470.1523" y2="115.0257">
					<stop  offset="0.0332" style="stop-color:#3C7CE1"/>
					<stop  offset="0.1315" style="stop-color:#67ADEF"/>
					<stop  offset="0.961" style="stop-color:#00FFFF"/>
				</linearGradient>
				
					<path style="fill:none;stroke:url(#SVGID_00000043432275495584320250000010135724034402188428_);stroke-width:5.5808;stroke-miterlimit:10;" d="
					M483.44,117.82c-46.27,0-89.91,28.36-95.23,131.66c-2.15,41.86,2.13,103.67,16.53,186.07c14.61,83.58,31.78,143.85,48.17,182.86
					c30.96,73.65,68.12,96.61,102.46,96.88"/>
				
					<linearGradient id="SVGID_00000090279108075594108510000017160499092746190499_" gradientUnits="userSpaceOnUse" x1="492.8347" y1="729.9521" x2="492.8347" y2="95.4067">
					<stop  offset="0.0332" style="stop-color:#3C7CE1"/>
					<stop  offset="0.1315" style="stop-color:#67ADEF"/>
					<stop  offset="0.961" style="stop-color:#00FFFF"/>
				</linearGradient>
				
					<path style="fill:none;stroke:url(#SVGID_00000090279108075594108510000017160499092746190499_);stroke-width:5.5808;stroke-miterlimit:10;" d="
					M508.45,98.46c-64.42-4.7-131.97,52.77-82.91,333.47c40.31,230.62,100.29,292.53,154.07,295.24"/>
			</g>
		</g>
		<g class="st27">
			
				<linearGradient id="SVGID_00000109001700437780101170000017424033441545774722_" gradientUnits="userSpaceOnUse" x1="507.8049" y1="146.4159" x2="775.4268" y2="146.4159">
				<stop  offset="0.1465" style="stop-color:#FFFFFF;stop-opacity:0"/>
				<stop  offset="0.288" style="stop-color:#FFFFFF;stop-opacity:0.9"/>
				<stop  offset="0.45" style="stop-color:#FFFFFF;stop-opacity:0.9"/>
				<stop  offset="0.7548" style="stop-color:#FFFFFF;stop-opacity:0"/>
				<stop  offset="0.8998" style="stop-color:#FFFFFF;stop-opacity:0"/>
			</linearGradient>
			
				<path style="fill:none;stroke:url(#SVGID_00000109001700437780101170000017424033441545774722_);stroke-width:5.5808;stroke-miterlimit:10;" d="
				M773.73,194.98c-5.66-4.34-11.06-6.68-17.21-8.92c0,0-45.52-20.54-113.22-45.3s-115.75-38.42-115.75-38.42
				c-6.53-2.12-13.08-3.4-19.53-3.92"/>
			
				<linearGradient id="SVGID_00000069388477940933031950000010615544802075897278_" gradientUnits="userSpaceOnUse" x1="482.8248" y1="171.8042" x2="782.0878" y2="171.8042">
				<stop  offset="0.1465" style="stop-color:#FFFFFF;stop-opacity:0"/>
				<stop  offset="0.288" style="stop-color:#FFFFFF;stop-opacity:0.9"/>
				<stop  offset="0.45" style="stop-color:#FFFFFF;stop-opacity:0.9"/>
				<stop  offset="0.7548" style="stop-color:#FFFFFF;stop-opacity:0"/>
				<stop  offset="0.8998" style="stop-color:#FFFFFF;stop-opacity:0"/>
			</linearGradient>
			
				<path style="fill:none;stroke:url(#SVGID_00000069388477940933031950000010615544802075897278_);stroke-width:5.5808;stroke-miterlimit:10;" d="
				M780.25,226.5c-6.57-5.76-14.19-11.06-22.84-15.76c-5.29-2.88-52.05-24.81-121.37-50.16c-69.32-25.35-119.24-38.76-125.18-39.98
				c-9.76-2.01-19.13-2.91-28-2.78"/>
			
				<linearGradient id="SVGID_00000030481163454936319420000013362918705657254814_" gradientUnits="userSpaceOnUse" x1="455.8774" y1="196.7786" x2="790.7379" y2="196.7786">
				<stop  offset="0.1465" style="stop-color:#FFFFFF;stop-opacity:0"/>
				<stop  offset="0.288" style="stop-color:#FFFFFF;stop-opacity:0.9"/>
				<stop  offset="0.45" style="stop-color:#FFFFFF;stop-opacity:0.9"/>
				<stop  offset="0.7548" style="stop-color:#FFFFFF;stop-opacity:0"/>
				<stop  offset="0.8998" style="stop-color:#FFFFFF;stop-opacity:0"/>
			</linearGradient>
			
				<path style="fill:none;stroke:url(#SVGID_00000030481163454936319420000013362918705657254814_);stroke-width:5.5808;stroke-miterlimit:10;" d="
				M788.78,258.22c-8.07-7.94-18.61-16.01-30.48-22.81c-10.45-5.99-58.59-29.08-129.52-55.02
				c-70.93-25.94-122.68-39.36-134.61-41.53c-13.63-2.49-26.67-3.21-38.09-2.42"/>
			
				<linearGradient id="SVGID_00000035505350638800163760000015779226070677706663_" gradientUnits="userSpaceOnUse" x1="430.0583" y1="221.5046" x2="798.4133" y2="221.5046">
				<stop  offset="0.1465" style="stop-color:#FFFFFF;stop-opacity:0"/>
				<stop  offset="0.288" style="stop-color:#FFFFFF;stop-opacity:0.9"/>
				<stop  offset="0.45" style="stop-color:#FFFFFF;stop-opacity:0.9"/>
				<stop  offset="0.7548" style="stop-color:#FFFFFF;stop-opacity:0"/>
				<stop  offset="0.8998" style="stop-color:#FFFFFF;stop-opacity:0"/>
			</linearGradient>
			
				<path style="fill:none;stroke:url(#SVGID_00000035505350638800163760000015779226070677706663_);stroke-width:5.5808;stroke-miterlimit:10;" d="
				M796.37,289.47c-9.28-10-22.06-20.38-37.18-29.39c-15.52-9.25-65.12-33.35-137.68-59.87c-72.54-26.53-126.1-40.13-144.04-43.09
				c-17.69-2.92-33.37-3.38-47.09-1.79"/>
			
				<linearGradient id="SVGID_00000147929658858975504950000011571415898970721943_" gradientUnits="userSpaceOnUse" x1="405.7256" y1="245.8795" x2="805.0883" y2="245.8795">
				<stop  offset="0.1465" style="stop-color:#FFFFFF;stop-opacity:0"/>
				<stop  offset="0.288" style="stop-color:#FFFFFF;stop-opacity:0.9"/>
				<stop  offset="0.45" style="stop-color:#FFFFFF;stop-opacity:0.9"/>
				<stop  offset="0.7548" style="stop-color:#FFFFFF;stop-opacity:0"/>
				<stop  offset="0.8998" style="stop-color:#FFFFFF;stop-opacity:0"/>
			</linearGradient>
			
				<path style="fill:none;stroke:url(#SVGID_00000147929658858975504950000011571415898970721943_);stroke-width:5.5808;stroke-miterlimit:10;" d="
				M802.97,320.02c-10.28-12.03-24.37-23.88-42.89-35.26c-20.53-12.61-71.66-37.61-145.83-64.73c-74.16-27.12-129.5-41-153.48-44.64
				c-21.1-3.21-39.24-3.41-54.65-1.23"/>
			
				<linearGradient id="SVGID_00000116220482789733384100000005091425920253357731_" gradientUnits="userSpaceOnUse" x1="371.5831" y1="273.3022" x2="816.4879" y2="273.3022">
				<stop  offset="0.1465" style="stop-color:#FFFFFF;stop-opacity:0"/>
				<stop  offset="0.288" style="stop-color:#FFFFFF;stop-opacity:0.9"/>
				<stop  offset="0.45" style="stop-color:#FFFFFF;stop-opacity:0.9"/>
				<stop  offset="0.7548" style="stop-color:#FFFFFF;stop-opacity:0"/>
				<stop  offset="0.8998" style="stop-color:#FFFFFF;stop-opacity:0"/>
			</linearGradient>
			
				<path style="fill:none;stroke:url(#SVGID_00000116220482789733384100000005091425920253357731_);stroke-width:5.5808;stroke-miterlimit:10;" d="
				M814.22,356.75c-11.13-15.58-28.67-31.86-53.25-47.31c-25.49-16.03-78.19-41.88-153.98-69.59
				c-75.77-27.71-132.9-41.95-162.91-46.2c-29.21-4.13-53.16-3.17-71.83,1.34"/>
			
				<linearGradient id="SVGID_00000017487316116315748580000002782435865573502888_" gradientUnits="userSpaceOnUse" x1="351.1853" y1="295.7624" x2="820.0266" y2="295.7624">
				<stop  offset="0.1465" style="stop-color:#FFFFFF;stop-opacity:0"/>
				<stop  offset="0.288" style="stop-color:#FFFFFF;stop-opacity:0.9"/>
				<stop  offset="0.45" style="stop-color:#FFFFFF;stop-opacity:0.9"/>
				<stop  offset="0.7548" style="stop-color:#FFFFFF;stop-opacity:0"/>
				<stop  offset="0.8998" style="stop-color:#FFFFFF;stop-opacity:0"/>
			</linearGradient>
			
				<path style="fill:none;stroke:url(#SVGID_00000017487316116315748580000002782435865573502888_);stroke-width:5.5808;stroke-miterlimit:10;" d="
				M817.77,383.58c-11.76-16.08-29.96-32.82-55.92-49.46c-30.42-19.5-84.73-46.15-162.13-74.45
				c-77.38-28.3-136.29-42.96-172.34-47.76c-31.2-4.15-56.02-3.6-75.56,0.92"/>
			
				<linearGradient id="SVGID_00000131345384858118318890000011238880494163476612_" gradientUnits="userSpaceOnUse" x1="326.1914" y1="320.1166" x2="826.5191" y2="320.1166">
				<stop  offset="0.1465" style="stop-color:#FFFFFF;stop-opacity:0"/>
				<stop  offset="0.288" style="stop-color:#FFFFFF;stop-opacity:0.9"/>
				<stop  offset="0.45" style="stop-color:#FFFFFF;stop-opacity:0.9"/>
				<stop  offset="0.7548" style="stop-color:#FFFFFF;stop-opacity:0"/>
				<stop  offset="0.8998" style="stop-color:#FFFFFF;stop-opacity:0"/>
			</linearGradient>
			
				<path style="fill:none;stroke:url(#SVGID_00000131345384858118318890000011238880494163476612_);stroke-width:5.5808;stroke-miterlimit:10;" d="
				M824.22,414.47c-12.28-17.83-31.98-36.47-61.48-55.68c-35.33-23.01-91.27-50.42-170.29-79.31c-79-28.89-139.67-44-181.78-49.31
				c-35.17-4.44-62.83-4.39-83.8,0.91"/>
			
				<linearGradient id="SVGID_00000127759570180072139780000012829174610583760514_" gradientUnits="userSpaceOnUse" x1="300.9565" y1="344.0424" x2="832.368" y2="344.0424">
				<stop  offset="0.1465" style="stop-color:#FFFFFF;stop-opacity:0"/>
				<stop  offset="0.288" style="stop-color:#FFFFFF;stop-opacity:0.9"/>
				<stop  offset="0.45" style="stop-color:#FFFFFF;stop-opacity:0.9"/>
				<stop  offset="0.7548" style="stop-color:#FFFFFF;stop-opacity:0"/>
				<stop  offset="0.8998" style="stop-color:#FFFFFF;stop-opacity:0"/>
			</linearGradient>
			
				<path style="fill:none;stroke:url(#SVGID_00000127759570180072139780000012829174610583760514_);stroke-width:5.5808;stroke-miterlimit:10;" d="
				M830.05,444.5c-28.64-43-99.09-91.91-244.86-145.2c-147.42-53.9-233.89-62.55-283.47-48.51"/>
		</g>
	</g>
</g>
</svg>
