<?xml version="1.0" encoding="UTF-8" standalone="no"?>
<!-- Created with Inkscape (http://www.inkscape.org/) -->

<svg
   version="1.1"
   id="svg2"
   xml:space="preserve"
   width="246.37334"
   height="145.77333"
   viewBox="0 0 246.37334 145.77333"
   sodipodi:docname="gaia-x-netherlands-logo.eps"
   xmlns:inkscape="http://www.inkscape.org/namespaces/inkscape"
   xmlns:sodipodi="http://sodipodi.sourceforge.net/DTD/sodipodi-0.dtd"
   xmlns="http://www.w3.org/2000/svg"
   xmlns:svg="http://www.w3.org/2000/svg"><defs
     id="defs6" /><sodipodi:namedview
     id="namedview4"
     pagecolor="#ffffff"
     bordercolor="#666666"
     borderopacity="1.0"
     inkscape:pageshadow="2"
     inkscape:pageopacity="0.0"
     inkscape:pagecheckerboard="0" /><g
     id="g8"
     inkscape:groupmode="layer"
     inkscape:label="ink_ext_XXXXXX"
     transform="matrix(1.3333333,0,0,-1.3333333,0,145.77333)"><g
       id="g10"
       transform="scale(0.1)"><path
         d="m 749.172,383.406 h -51.106 c -5.183,0 -9.574,-4.383 -9.574,-9.57 0,-5.449 4.297,-9.887 9.574,-9.887 h 51.106 c 5.461,0 9.59,4.254 9.59,9.887 0,5.371 -4.211,9.57 -9.59,9.57"
         style="fill:#2f3192;fill-opacity:1;fill-rule:nonzero;stroke:none"
         id="path12" /><path
         d="m 1019.92,1040.49 c -2.92,0 -5.83,1.11 -8.06,3.33 l -30.008,30.01 c -4.45,4.45 -4.45,11.66 0,16.12 4.457,4.43 11.66,4.43 16.113,0 l 30.005,-30.01 c 4.45,-4.45 4.45,-11.67 0,-16.12 -2.23,-2.22 -5.14,-3.33 -8.05,-3.33"
         style="fill:#2f3192;fill-opacity:1;fill-rule:nonzero;stroke:none"
         id="path14" /><path
         d="m 1517.65,1040.49 c -2.91,0 -5.83,1.11 -8.05,3.33 -4.45,4.45 -4.45,11.67 0,16.12 l 30,30.01 c 4.46,4.43 11.66,4.43 16.12,0 4.45,-4.46 4.45,-11.67 0,-16.12 l -30.01,-30.01 c -2.23,-2.22 -5.14,-3.33 -8.06,-3.33"
         style="fill:#2f3192;fill-opacity:1;fill-rule:nonzero;stroke:none"
         id="path16" /><path
         d="m 989.906,512.75 c -2.914,0 -5.824,1.117 -8.054,3.34 -4.45,4.445 -4.446,11.66 0,16.113 l 30.008,30 c 4.46,4.442 11.66,4.442 16.11,0 4.45,-4.453 4.45,-11.668 0,-16.113 l -30.005,-30 c -2.227,-2.223 -5.141,-3.34 -8.059,-3.34"
         style="fill:#2f3192;fill-opacity:1;fill-rule:nonzero;stroke:none"
         id="path18" /><path
         d="m 1547.66,512.75 c -2.91,0 -5.83,1.117 -8.06,3.34 l -30,30 c -4.45,4.445 -4.45,11.66 0,16.113 4.45,4.442 11.65,4.442 16.11,0 l 30.01,-30 c 4.44,-4.453 4.45,-11.668 0,-16.113 -2.23,-2.223 -5.15,-3.34 -8.06,-3.34"
         style="fill:#2f3192;fill-opacity:1;fill-rule:nonzero;stroke:none"
         id="path20" /><path
         d="m 1123.31,1034.11 c -3.87,0 -7.65,1.97 -9.78,5.53 l -21.84,36.38 c -3.24,5.4 -1.49,12.4 3.91,15.63 5.4,3.25 12.39,1.48 15.63,-3.9 l 21.83,-36.38 c 3.24,-5.41 1.49,-12.4 -3.9,-15.63 -1.84,-1.11 -3.86,-1.63 -5.85,-1.63"
         style="fill:#2f3192;fill-opacity:1;fill-rule:nonzero;stroke:none"
         id="path22" /><path
         d="m 1221.32,1028.88 c -5.32,0 -10.07,3.74 -11.16,9.16 l -8.32,41.61 c -1.24,6.17 2.77,12.17 8.93,13.4 6.15,1.22 12.17,-2.76 13.41,-8.93 l 8.32,-41.61 c 1.24,-6.17 -2.77,-12.17 -8.94,-13.41 -0.75,-0.15 -1.5,-0.22 -2.24,-0.22"
         style="fill:#2f3192;fill-opacity:1;fill-rule:nonzero;stroke:none"
         id="path24" /><path
         d="m 1223.6,927.172 c -4.77,0 -9.21,3.012 -10.81,7.793 l -13.41,40.265 c -1.99,5.965 1.23,12.415 7.2,14.407 5.96,2.008 12.41,-1.235 14.41,-7.207 l 13.42,-40.266 c 1.99,-5.965 -1.24,-12.414 -7.21,-14.406 -1.19,-0.399 -2.4,-0.586 -3.6,-0.586"
         style="fill:#2f3192;fill-opacity:1;fill-rule:nonzero;stroke:none"
         id="path26" /><path
         d="m 1414.26,1034.11 c -1.99,0 -4.02,0.52 -5.85,1.63 -5.39,3.23 -7.15,10.22 -3.9,15.63 l 21.83,36.38 c 3.24,5.38 10.23,7.15 15.63,3.9 5.4,-3.23 7.15,-10.23 3.9,-15.63 l -21.83,-36.38 c -2.14,-3.56 -5.91,-5.53 -9.78,-5.53"
         style="fill:#2f3192;fill-opacity:1;fill-rule:nonzero;stroke:none"
         id="path28" /><path
         d="m 1316.25,1028.88 c -0.74,0 -1.49,0.07 -2.25,0.22 -6.16,1.24 -10.17,7.24 -8.93,13.41 l 8.32,41.61 c 1.23,6.17 7.21,10.14 13.41,8.93 6.16,-1.23 10.17,-7.23 8.93,-13.4 l -8.32,-41.61 c -1.09,-5.42 -5.84,-9.16 -11.16,-9.16"
         style="fill:#2f3192;fill-opacity:1;fill-rule:nonzero;stroke:none"
         id="path30" /><path
         d="m 1313.97,927.172 c -1.2,0 -2.41,0.187 -3.6,0.586 -5.98,1.992 -9.2,8.441 -7.21,14.406 l 13.42,40.266 c 1.99,5.972 8.42,9.215 14.41,7.207 5.97,-1.992 9.19,-8.442 7.2,-14.407 l -13.41,-40.265 c -1.6,-4.781 -6.04,-7.793 -10.81,-7.793"
         style="fill:#2f3192;fill-opacity:1;fill-rule:nonzero;stroke:none"
         id="path32" /><path
         d="m 1101.45,512.75 c -2,0 -4.02,0.52 -5.85,1.629 -5.4,3.238 -7.15,10.23 -3.91,15.629 l 21.84,36.383 c 3.24,5.382 10.24,7.152 15.63,3.902 5.39,-3.238 7.14,-10.23 3.9,-15.629 l -21.83,-36.383 c -2.14,-3.558 -5.91,-5.531 -9.78,-5.531"
         style="fill:#2f3192;fill-opacity:1;fill-rule:nonzero;stroke:none"
         id="path34" /><path
         d="m 1213.02,512.75 c -0.74,0 -1.49,0.07 -2.25,0.223 -6.16,1.234 -10.17,7.238 -8.93,13.41 l 8.32,41.609 c 1.24,6.172 7.23,10.188 13.4,8.938 6.17,-1.239 10.18,-7.239 8.94,-13.41 l -8.32,-41.61 c -1.08,-5.418 -5.84,-9.16 -11.16,-9.16"
         style="fill:#2f3192;fill-opacity:1;fill-rule:nonzero;stroke:none"
         id="path36" /><path
         d="m 1210.18,615.809 c -1.19,0 -2.41,0.187 -3.6,0.582 -5.97,1.996 -9.2,8.449 -7.2,14.41 l 13.41,40.258 c 2,5.976 8.43,9.23 14.41,7.207 5.97,-1.993 9.2,-8.442 7.21,-14.411 l -13.42,-40.257 c -1.6,-4.774 -6.04,-7.789 -10.81,-7.789"
         style="fill:#2f3192;fill-opacity:1;fill-rule:nonzero;stroke:none"
         id="path38" /><path
         d="m 1436.12,512.75 c -3.87,0 -7.64,1.973 -9.78,5.531 l -21.83,36.383 c -3.25,5.399 -1.49,12.391 3.9,15.629 5.42,3.25 12.41,1.48 15.63,-3.902 l 21.83,-36.383 c 3.25,-5.399 1.5,-12.391 -3.9,-15.629 -1.83,-1.109 -3.85,-1.629 -5.85,-1.629"
         style="fill:#2f3192;fill-opacity:1;fill-rule:nonzero;stroke:none"
         id="path40" /><path
         d="m 1324.55,512.75 c -5.32,0 -10.08,3.742 -11.16,9.16 l -8.32,41.61 c -1.24,6.171 2.77,12.171 8.93,13.41 6.19,1.258 12.17,-2.766 13.41,-8.938 l 8.32,-41.609 c 1.24,-6.172 -2.77,-12.176 -8.93,-13.41 -0.76,-0.153 -1.51,-0.223 -2.25,-0.223"
         style="fill:#2f3192;fill-opacity:1;fill-rule:nonzero;stroke:none"
         id="path42" /><path
         d="m 1327.39,615.809 c -4.77,0 -9.22,3.015 -10.81,7.789 l -13.42,40.257 c -1.99,5.969 1.23,12.418 7.21,14.411 5.95,2.023 12.41,-1.231 14.41,-7.207 l 13.41,-40.258 c 1.99,-5.961 -1.23,-12.414 -7.2,-14.41 -1.19,-0.395 -2.41,-0.582 -3.6,-0.582"
         style="fill:#2f3192;fill-opacity:1;fill-rule:nonzero;stroke:none"
         id="path44" /><path
         d="m 1444.6,615.809 c -2.92,0 -5.84,1.113 -8.06,3.336 l -30.01,30.003 c -4.45,4.45 -4.45,11.668 0,16.114 4.46,4.445 11.66,4.445 16.12,0 l 30,-30.004 c 4.45,-4.449 4.45,-11.664 0,-16.113 -2.22,-2.223 -5.14,-3.336 -8.05,-3.336"
         style="fill:#2f3192;fill-opacity:1;fill-rule:nonzero;stroke:none"
         id="path46" /><path
         d="m 1511.29,937.113 c -3.87,0 -7.65,1.973 -9.79,5.539 -3.23,5.391 -1.49,12.387 3.92,15.629 l 36.38,21.824 c 5.4,3.223 12.4,1.477 15.63,-3.91 3.23,-5.394 1.49,-12.386 -3.91,-15.629 l -36.39,-21.832 c -1.83,-1.097 -3.85,-1.621 -5.84,-1.621"
         style="fill:#2f3192;fill-opacity:1;fill-rule:nonzero;stroke:none"
         id="path48" /><path
         d="m 1506.03,839.07 c -5.31,0 -10.07,3.746 -11.16,9.157 -1.23,6.171 2.78,12.171 8.94,13.41 l 41.62,8.32 c 6.15,1.242 12.16,-2.766 13.4,-8.937 1.24,-6.168 -2.77,-12.168 -8.94,-13.403 l -41.61,-8.324 c -0.76,-0.148 -1.51,-0.223 -2.25,-0.223"
         style="fill:#2f3192;fill-opacity:1;fill-rule:nonzero;stroke:none"
         id="path50" /><path
         d="m 1404.34,836.805 c -4.77,0 -9.22,3.019 -10.81,7.793 -1.99,5.968 1.24,12.422 7.21,14.41 l 40.26,13.414 c 5.97,2.008 12.41,-1.234 14.4,-7.207 1.99,-5.961 -1.23,-12.422 -7.21,-14.406 l -40.25,-13.418 c -1.2,-0.399 -2.41,-0.586 -3.6,-0.586"
         style="fill:#2f3192;fill-opacity:1;fill-rule:nonzero;stroke:none"
         id="path52" /><path
         d="m 1547.65,624.301 c -2,0 -4.02,0.523 -5.85,1.621 l -36.38,21.828 c -5.41,3.246 -7.15,10.238 -3.92,15.629 3.25,5.394 10.26,7.148 15.63,3.914 l 36.39,-21.828 c 5.4,-3.242 7.14,-10.235 3.91,-15.625 -2.14,-3.567 -5.91,-5.539 -9.78,-5.539"
         style="fill:#2f3192;fill-opacity:1;fill-rule:nonzero;stroke:none"
         id="path54" /><path
         d="m 1547.68,735.844 c -0.75,0 -1.5,0.07 -2.25,0.219 l -41.62,8.332 c -6.17,1.234 -10.17,7.234 -8.94,13.406 1.25,6.172 7.21,10.129 13.41,8.937 l 41.61,-8.332 c 6.17,-1.234 10.18,-7.234 8.94,-13.406 -1.09,-5.414 -5.84,-9.156 -11.15,-9.156"
         style="fill:#2f3192;fill-opacity:1;fill-rule:nonzero;stroke:none"
         id="path56" /><path
         d="m 1444.6,733.016 c -1.2,0 -2.41,0.187 -3.6,0.582 l -40.26,13.422 c -5.97,1.992 -9.2,8.445 -7.21,14.41 1.99,5.972 8.44,9.215 14.41,7.207 l 40.25,-13.422 c 5.98,-1.992 9.2,-8.442 7.21,-14.406 -1.59,-4.778 -6.03,-7.793 -10.8,-7.793"
         style="fill:#2f3192;fill-opacity:1;fill-rule:nonzero;stroke:none"
         id="path58" /><path
         d="m 1026.28,937.113 c -1.99,0 -4.01,0.524 -5.84,1.621 l -36.385,21.832 c -5.403,3.243 -7.157,10.235 -3.918,15.629 3.238,5.387 10.265,7.133 15.629,3.91 l 36.384,-21.824 c 5.4,-3.242 7.15,-10.238 3.91,-15.629 -2.13,-3.566 -5.91,-5.539 -9.78,-5.539"
         style="fill:#2f3192;fill-opacity:1;fill-rule:nonzero;stroke:none"
         id="path60" /><path
         d="m 1031.54,839.07 c -0.74,0 -1.5,0.075 -2.25,0.223 l -41.618,8.324 c -6.164,1.235 -10.172,7.235 -8.938,13.403 1.246,6.171 7.207,10.175 13.411,8.937 l 41.615,-8.32 c 6.16,-1.239 10.17,-7.239 8.94,-13.41 -1.09,-5.411 -5.85,-9.157 -11.16,-9.157"
         style="fill:#2f3192;fill-opacity:1;fill-rule:nonzero;stroke:none"
         id="path62" /><path
         d="m 1133.23,836.805 c -1.19,0 -2.4,0.187 -3.6,0.586 l -40.25,13.418 c -5.98,1.984 -9.2,8.445 -7.21,14.406 1.98,5.965 8.44,9.215 14.4,7.207 l 40.26,-13.414 c 5.97,-1.988 9.2,-8.442 7.21,-14.41 -1.59,-4.77 -6.04,-7.793 -10.81,-7.793"
         style="fill:#2f3192;fill-opacity:1;fill-rule:nonzero;stroke:none"
         id="path64" /><path
         d="m 989.922,624.301 c -3.871,0 -7.645,1.972 -9.785,5.539 -3.239,5.39 -1.485,12.383 3.918,15.625 l 36.385,21.828 c 5.39,3.234 12.4,1.48 15.62,-3.914 3.24,-5.391 1.49,-12.383 -3.91,-15.629 l -36.384,-21.828 c -1.828,-1.098 -3.852,-1.621 -5.844,-1.621"
         style="fill:#2f3192;fill-opacity:1;fill-rule:nonzero;stroke:none"
         id="path66" /><path
         d="m 989.895,735.844 c -5.317,0 -10.071,3.742 -11.161,9.156 -1.234,6.172 2.77,12.172 8.938,13.406 l 41.618,8.332 c 6.15,1.196 12.17,-2.765 13.41,-8.937 1.23,-6.172 -2.77,-12.172 -8.94,-13.406 l -41.615,-8.332 c -0.758,-0.149 -1.504,-0.219 -2.25,-0.219"
         style="fill:#2f3192;fill-opacity:1;fill-rule:nonzero;stroke:none"
         id="path68" /><path
         d="m 1092.97,733.016 c -4.77,0 -9.21,3.015 -10.8,7.793 -2,5.964 1.23,12.414 7.21,14.406 l 40.25,13.422 c 5.94,2.008 12.42,-1.235 14.41,-7.207 1.99,-5.965 -1.24,-12.418 -7.21,-14.41 l -40.26,-13.422 c -1.19,-0.395 -2.4,-0.582 -3.6,-0.582"
         style="fill:#2f3192;fill-opacity:1;fill-rule:nonzero;stroke:none"
         id="path70" /><path
         d="m 1232.1,816.91 c -5.83,0 -11.66,2.227 -16.1,6.68 l -30.01,30.004 c -8.9,8.89 -8.9,23.32 0,32.215 8.88,8.898 23.33,8.898 32.21,0 l 30.01,-30.008 c 8.9,-8.891 8.9,-23.321 0,-32.211 -4.44,-4.453 -10.28,-6.68 -16.11,-6.68"
         style="fill:#2f3192;fill-opacity:1;fill-rule:nonzero;stroke:none"
         id="path72" /><path
         d="m 1305.46,816.91 c -5.82,0 -11.66,2.227 -16.1,6.68 -8.9,8.89 -8.9,23.32 0,32.211 l 30.01,30.008 c 8.88,8.898 23.33,8.898 32.21,0 8.9,-8.895 8.9,-23.325 0,-32.215 l -30.01,-30.004 c -4.44,-4.453 -10.28,-6.68 -16.11,-6.68"
         style="fill:#2f3192;fill-opacity:1;fill-rule:nonzero;stroke:none"
         id="path74" /><path
         d="m 1202.1,713.543 c -5.83,0 -11.67,2.227 -16.11,6.68 -8.9,8.894 -8.9,23.32 0,32.215 l 30.01,30.007 c 8.88,8.899 23.32,8.899 32.21,0 8.9,-8.894 8.9,-23.324 0,-32.215 l -30.01,-30.007 c -4.44,-4.453 -10.27,-6.68 -16.1,-6.68"
         style="fill:#2f3192;fill-opacity:1;fill-rule:nonzero;stroke:none"
         id="path76" /><path
         d="m 1335.47,713.543 c -5.83,0 -11.66,2.227 -16.1,6.68 l -30.01,30.007 c -8.9,8.891 -8.9,23.321 0,32.215 8.89,8.899 23.33,8.899 32.21,0 l 30.01,-30.007 c 8.9,-8.895 8.9,-23.321 0,-32.215 -4.44,-4.453 -10.28,-6.68 -16.11,-6.68"
         style="fill:#2f3192;fill-opacity:1;fill-rule:nonzero;stroke:none"
         id="path78" /><path
         d="m 856.379,374.359 66.984,66.993 c 4.453,4.449 4.453,11.66 0,16.113 -4.453,4.445 -11.652,4.445 -16.113,0 l -66.984,-66.992 -66.993,66.992 c -4.46,4.445 -11.656,4.445 -16.113,0 -4.449,-4.453 -4.449,-11.664 0,-16.113 l 66.992,-66.993 -66.992,-66.984 c -4.449,-4.457 -4.449,-11.668 0,-16.117 2.231,-2.219 5.141,-3.34 8.055,-3.34 2.914,0 5.832,1.121 8.058,3.34 l 66.993,66.988 66.984,-66.988 c 2.234,-2.219 5.145,-3.34 8.059,-3.34 2.914,0 5.828,1.121 8.054,3.34 4.453,4.449 4.453,11.66 0,16.117 l -66.984,66.984"
         style="fill:#2f3192;fill-opacity:1;fill-rule:nonzero;stroke:none"
         id="path80" /><path
         d="m 1092.97,615.809 c -2.91,0 -5.83,1.113 -8.05,3.336 -4.46,4.449 -4.46,11.664 0,16.113 l 30,30.004 c 4.46,4.445 11.66,4.445 16.12,0 4.45,-4.446 4.45,-11.664 0,-16.114 l -30.01,-30.003 c -2.23,-2.223 -5.14,-3.336 -8.06,-3.336"
         style="fill:#2f3192;fill-opacity:1;fill-rule:nonzero;stroke:none"
         id="path82" /><path
         d="m 1122.98,937.43 c -2.91,0 -5.83,1.113 -8.06,3.336 l -30,30.004 c -4.46,4.453 -4.46,11.668 0,16.113 4.46,4.445 11.65,4.445 16.11,0 l 30.01,-30.004 c 4.45,-4.449 4.45,-11.664 0,-16.113 -2.23,-2.223 -5.15,-3.336 -8.06,-3.336"
         style="fill:#2f3192;fill-opacity:1;fill-rule:nonzero;stroke:none"
         id="path84" /><path
         d="m 1414.59,937.43 c -2.91,0 -5.83,1.113 -8.06,3.336 -4.45,4.449 -4.45,11.664 0,16.113 l 30.01,30.004 c 4.46,4.445 11.65,4.445 16.11,0 4.45,-4.445 4.45,-11.66 0,-16.113 l -30,-30.004 c -2.23,-2.223 -5.15,-3.336 -8.06,-3.336"
         style="fill:#2f3192;fill-opacity:1;fill-rule:nonzero;stroke:none"
         id="path86" /><path
         d="m 283.859,311.297 c -31.929,0 -57.902,27.91 -57.902,62.219 0,34.472 25.973,62.519 57.902,62.519 31.914,0 57.875,-28.047 57.875,-62.519 0,-34.309 -25.961,-62.219 -57.875,-62.219 z m 69.086,146.832 c -6.289,0 -11.211,-4.922 -11.211,-11.207 v -14.824 c -15.101,16.574 -36.066,26.031 -57.875,26.031 -44.289,0 -80.312,-37.957 -80.312,-84.613 0,-46.664 36.023,-84.629 80.312,-84.629 21.707,0 42.657,9.566 57.875,26.328 v -15.121 c 0,-6.082 5.133,-11.207 11.211,-11.207 6.078,0 11.207,5.125 11.207,11.207 v 146.828 c 0,6.285 -4.922,11.207 -11.207,11.207"
         style="fill:#2f3192;fill-opacity:1;fill-rule:nonzero;stroke:none"
         id="path88" /><path
         d="m 430.805,515.879 c -6.078,0 -11.203,-5.129 -11.203,-11.207 v -7.641 c 0,-6.445 5.125,-11.879 11.203,-11.879 6.375,0 11.554,5.325 11.554,11.879 v 7.641 c 0,6.176 -5.179,11.207 -11.554,11.207"
         style="fill:#2f3192;fill-opacity:1;fill-rule:nonzero;stroke:none"
         id="path90" /><path
         d="m 430.805,458.129 c -6.282,0 -11.203,-4.922 -11.203,-11.207 V 300.094 c 0,-6.082 5.125,-11.207 11.203,-11.207 6.375,0 11.554,5.031 11.554,11.207 v 146.828 c 0,6.394 -4.964,11.207 -11.554,11.207"
         style="fill:#2f3192;fill-opacity:1;fill-rule:nonzero;stroke:none"
         id="path92" /><path
         d="m 626.34,373.516 c 0,-34.309 -25.969,-62.219 -57.883,-62.219 -31.93,0 -57.898,27.91 -57.898,62.219 0,34.472 25.968,62.519 57.898,62.519 31.914,0 57.883,-28.047 57.883,-62.519 z m 11.203,84.613 c -6.289,0 -11.203,-4.922 -11.203,-11.207 v -14.824 c -15.11,16.574 -36.067,26.031 -57.883,26.031 -44.285,0 -80.312,-37.957 -80.312,-84.613 0,-46.664 36.027,-84.629 80.312,-84.629 21.711,0 42.656,9.566 57.883,26.328 v -15.121 c 0,-6.082 5.125,-11.207 11.203,-11.207 6.078,0 11.211,5.125 11.211,11.207 v 146.828 c 0,6.285 -4.926,11.207 -11.211,11.207"
         style="fill:#2f3192;fill-opacity:1;fill-rule:nonzero;stroke:none"
         id="path94" /><path
         d="m 79.6328,435.711 c 31.7462,0 57.5702,-27.609 57.5702,-61.547 0,-34.289 -25.824,-62.203 -57.5702,-62.203 -31.5469,0 -57.2187,27.914 -57.2187,62.203 0,33.938 25.6718,61.547 57.2187,61.547 z m 0,-145.832 c 22.0232,0 42.8512,9.375 57.5702,25.812 v -10.617 c 0,-32.086 -25.289,-57.222 -57.5702,-57.222 -8.1484,0 -15.5547,1.589 -23.3086,5.015 -7.8164,3.446 -13.8515,7.641 -18.9375,13.137 -1.8945,2.41 -4.5586,3.871 -7.5586,4.098 -0.0898,0 -0.1797,0.003 -0.2617,0.003 -3.082,0 -6.0117,-1.132 -8.0234,-3.085 -4.9102,-4.086 -4.2735,-11.145 -1.0586,-15.868 4.8047,-4.847 9.9609,-9.027 15.164,-12.461 3.4102,-2.101 7.0039,-4.082 11.0274,-5.859 10.8281,-4.777 21.168,-6.996 32.539,-6.996 34.4962,0 63.2692,20.57 74.8632,50.312 3.129,8.036 4.914,16.766 5.313,25.911 0.148,24.988 0.222,144.863 0.222,144.863 0,5.973 -5.078,11.207 -10.867,11.207 -6.367,0 -11.543,-5.027 -11.543,-11.207 V 432.223 C 122.336,448.719 101.5,458.129 79.6328,458.129 35.7227,458.129 0,420.465 0,374.164 0,327.684 35.7227,289.879 79.6328,289.879"
         style="fill:#2f3192;fill-opacity:1;fill-rule:nonzero;stroke:none"
         id="path96" /><path
         d="M 12.2773,128.113 H 190.855 V 9.05859 H 12.2773 V 128.113"
         style="fill:#2a4892;fill-opacity:1;fill-rule:nonzero;stroke:none"
         id="path98" /><path
         d="M 12.2773,128.113 H 190.855 V 48.7383 H 12.2773 v 79.3747"
         style="fill:#ffffff;fill-opacity:1;fill-rule:nonzero;stroke:none"
         id="path100" /><path
         d="M 12.2773,128.113 H 190.855 V 88.4297 H 12.2773 v 39.6833"
         style="fill:#ac192e;fill-opacity:1;fill-rule:nonzero;stroke:none"
         id="path102" /><path
         d="M 179.977,4.71875 H 23.1797 c -6.0156,0 -10.8945,4.88281 -10.8945,10.89065 V 121.391 c 0,6.015 4.8789,10.894 10.8945,10.894 H 179.977 c 6.015,0 10.89,-4.879 10.89,-10.894 V 15.6094 c 0,-6.00784 -4.875,-10.89065 -10.89,-10.89065 z"
         style="fill:none;stroke:#9a9b9a;stroke-width:9.44608;stroke-linecap:butt;stroke-linejoin:miter;stroke-miterlimit:10;stroke-dasharray:none;stroke-opacity:1"
         id="path104" /><path
         d="M 372.074,62.3984 H 307.191 V 4.71094 H 293.004 V 132.262 h 14.187 V 75.1211 h 64.883 V 132.262 H 386.09 V 4.71094 H 372.074 V 62.3984"
         style="fill:#2f3192;fill-opacity:1;fill-rule:nonzero;stroke:none"
         id="path106" /><path
         d="M 484.563,96.8711 V 4.71094 h -13.825 v 6.44926 c 0,0 -13.824,-8.30082 -27.281,-8.30082 -25.805,0 -31.152,11.98042 -31.152,45.90232 v 48.1094 h 13.824 V 48.9414 c 0,-25.4297 2.215,-33.7305 19.355,-33.7305 13.641,0 25.254,6.8204 25.254,6.8204 v 74.8398 h 13.825"
         style="fill:#2f3192;fill-opacity:1;fill-rule:nonzero;stroke:none"
         id="path108" /><path
         d="m 569.574,52.2695 c 0,23.7696 -4.789,34.0899 -21.008,34.0899 -12.722,0 -25.621,-5.3399 -25.621,-5.3399 V 16.1289 c 0,0 11.977,-0.918 16.953,-0.918 25.254,0 29.676,11.2383 29.676,37.0586 z m 14.012,0 c 0,-36.6875 -9.953,-49.41012 -43.504,-49.41012 -11.059,0 -30.781,2.03125 -30.781,2.03125 V 137.051 h 13.644 V 92.2617 c 0,0 14.004,6.4492 27.094,6.4492 25.07,0 33.547,-13.2695 33.547,-46.4414"
         style="fill:#2f3192;fill-opacity:1;fill-rule:nonzero;stroke:none"
         id="path110" /><path
         d="M 661.602,84.8906 V 40.8281 c 0,-20.0898 1.289,-25.7968 13.269,-25.7968 5.164,0 16.41,1.0976 16.41,1.0976 l 0.922,-11.41796 c 0,0 -12.355,-2.03125 -18.805,-2.03125 -18.984,0 -25.433,7.1914 -25.433,33.73051 v 48.4804 h -13.094 v 11.9805 h 13.094 v 28.2029 h 13.637 V 96.8711 H 690.91 V 84.8906 h -29.308"
         style="fill:#2f3192;fill-opacity:1;fill-rule:nonzero;stroke:none"
         id="path112" /><path
         d="M 706.051,4.71094 V 137.051 h 13.82 V 91.7109 c 0,0 14.746,7 28.391,7 25.25,0 31.148,-12.5312 31.148,-45.3398 V 4.71094 H 765.586 V 53 c 0,24.3281 -2.762,33.3594 -19.723,33.3594 -13.086,0 -25.992,-5.5313 -25.992,-5.5313 V 4.71094 h -13.82"
         style="fill:#2f3192;fill-opacity:1;fill-rule:nonzero;stroke:none"
         id="path114" /><path
         d="m 860.918,56.1289 c 0,22.8594 -7.008,30.9727 -23.227,30.9727 -15.664,0 -24.511,-8.6602 -24.699,-30.9727 z m 10.324,-39.4375 0.363,-10.88281 c 0,0 -21.007,-2.94921 -35.941,-2.94921 -27.465,0 -36.5,16.03902 -36.5,47.37112 0,35.0312 15.117,48.4804 38.527,48.4804 24.516,0 37.051,-12.9023 37.051,-43.1289 L 874.004,45.0703 H 813.18 c 0,-19.7187 6.078,-30.039 24.144,-30.039 13.824,0 33.918,1.6601 33.918,1.6601"
         style="fill:#2f3192;fill-opacity:1;fill-rule:nonzero;stroke:none"
         id="path116" /><path
         d="m 935.621,132.262 h 26.543 L 1011.01,17.2383 h 3.87 V 132.262 h 14.01 V 4.71094 H 1002.9 L 953.316,119.727 h -3.507 V 4.71094 H 935.621 V 132.262"
         style="fill:#2f3192;fill-opacity:1;fill-rule:nonzero;stroke:none"
         id="path118" /><path
         d="m 1112.81,56.1289 c 0,22.8594 -7.01,30.9727 -23.23,30.9727 -15.67,0 -24.52,-8.6602 -24.7,-30.9727 z m 10.32,-39.4375 0.37,-10.88281 c 0,0 -21.01,-2.94921 -35.95,-2.94921 -27.46,0 -36.49,16.03902 -36.49,47.37112 0,35.0312 15.11,48.4804 38.52,48.4804 24.52,0 37.05,-12.9023 37.05,-43.1289 l -0.74,-10.5117 h -60.83 c 0,-19.7187 6.09,-30.039 24.15,-30.039 13.83,0 33.92,1.6601 33.92,1.6601"
         style="fill:#2f3192;fill-opacity:1;fill-rule:nonzero;stroke:none"
         id="path120" /><path
         d="M 1164.27,84.8906 V 40.8281 c 0,-20.0898 1.29,-25.7968 13.27,-25.7968 5.16,0 16.41,1.0976 16.41,1.0976 l 0.92,-11.41796 c 0,0 -12.36,-2.03125 -18.81,-2.03125 -18.98,0 -25.43,7.1914 -25.43,33.73051 v 48.4804 h -13.09 v 11.9805 h 13.09 v 28.2029 h 13.64 V 96.8711 h 29.3 V 84.8906 h -29.3"
         style="fill:#2f3192;fill-opacity:1;fill-rule:nonzero;stroke:none"
         id="path122" /><path
         d="M 1208.72,4.71094 V 137.051 h 13.82 V 91.7109 c 0,0 14.75,7 28.39,7 25.25,0 31.15,-12.5312 31.15,-45.3398 V 4.71094 h -13.83 V 53 c 0,24.3281 -2.76,33.3594 -19.72,33.3594 -13.09,0 -25.99,-5.5313 -25.99,-5.5313 V 4.71094 h -13.82"
         style="fill:#2f3192;fill-opacity:1;fill-rule:nonzero;stroke:none"
         id="path124" /><path
         d="m 1363.58,56.1289 c 0,22.8594 -7,30.9727 -23.22,30.9727 -15.67,0 -24.51,-8.6602 -24.7,-30.9727 z m 10.33,-39.4375 0.36,-10.88281 c 0,0 -21.01,-2.94921 -35.94,-2.94921 -27.47,0 -36.5,16.03902 -36.5,47.37112 0,35.0312 15.12,48.4804 38.53,48.4804 24.51,0 37.05,-12.9023 37.05,-43.1289 l -0.74,-10.5117 h -60.82 c 0,-19.7187 6.07,-30.039 24.14,-30.039 13.82,0 33.92,1.6601 33.92,1.6601"
         style="fill:#2f3192;fill-opacity:1;fill-rule:nonzero;stroke:none"
         id="path126" /><path
         d="m 1397.17,96.8711 h 13.64 V 84.3398 c 0,0 16.04,11.0547 33.73,14.5547 V 84.8906 c -17.33,-3.5 -33.55,-12.539 -33.55,-12.539 V 4.71094 h -13.82 V 96.8711"
         style="fill:#2f3192;fill-opacity:1;fill-rule:nonzero;stroke:none"
         id="path128" /><path
         d="m 1460.23,137.051 h 13.82 V 4.71094 h -13.82 V 137.051"
         style="fill:#2f3192;fill-opacity:1;fill-rule:nonzero;stroke:none"
         id="path130" /><path
         d="m 1523.83,48.0195 c -11.24,-1.0976 -15.67,-6.4492 -15.67,-16.5781 0,-10.7031 4.61,-16.9609 14.01,-16.9609 13.64,0 28.94,5.7109 28.94,5.7109 v 30.4102 z m 41.11,-26.1679 c 0.36,-5.3516 4.79,-7.3711 10.69,-8.1133 l -0.56,-10.87892 c -9.77,0 -16.4,1.85156 -21.93,7.37112 0,0 -16.59,-7.37112 -33.18,-7.37112 -16.77,0 -25.99,9.58982 -25.99,28.19922 0,17.7031 9.22,25.4414 28.2,27.2812 l 28.94,2.7696 v 7.9297 c 0,12.9023 -5.53,17.5117 -16.59,17.5117 -12.9,0 -34.84,-2.4024 -34.84,-2.4024 l -0.55,10.5079 c 0,0 20.28,4.0546 36.13,4.0546 20.83,0 29.68,-9.582 29.68,-29.6718 V 21.8516"
         style="fill:#2f3192;fill-opacity:1;fill-rule:nonzero;stroke:none"
         id="path132" /><path
         d="M 1590.41,4.71094 V 96.8711 h 13.64 v -6.4492 c 0,0 14.93,8.289 28.57,8.289 25.44,0 31.15,-12.5312 31.15,-45.3398 V 4.71094 h -13.64 V 53 c 0,24.3281 -2.76,33.3594 -19.91,33.3594 -13.27,0 -25.99,-6.8203 -25.99,-6.8203 V 4.71094 h -13.82"
         style="fill:#2f3192;fill-opacity:1;fill-rule:nonzero;stroke:none"
         id="path134" /><path
         d="m 1744.72,22.0313 v 62.4882 c -2.95,0.5508 -14.37,2.211 -21.93,2.211 -19.36,0 -25.07,-12.7188 -25.07,-36.6797 0,-29.8594 9.77,-34.8399 20.64,-34.8399 13.09,0 26.36,6.8204 26.36,6.8204 z m 13.64,-17.32036 h -13.64 v 6.26956 c 0,0 -14.19,-8.12112 -28.02,-8.12112 -18.06,0 -33.17,7.37112 -33.17,47.19142 0,32.4375 10.5,48.6601 38.52,48.6601 7.93,0 19.91,-1.8398 22.67,-2.3945 v 40.7346 h 13.64 V 4.71094"
         style="fill:#2f3192;fill-opacity:1;fill-rule:nonzero;stroke:none"
         id="path136" /><path
         d="m 1844.48,83.4102 c 0,0 -20.46,2.9492 -32.26,2.9492 -11.43,0 -20.09,-3.1289 -20.09,-14.0078 0,-8.6602 4.42,-11.0625 23.96,-14.3711 23.04,-3.8711 31.71,-8.4805 31.71,-26.3594 0,-21.5703 -13.64,-28.76172 -35.76,-28.76172 -11.8,0 -32.44,3.51171 -32.44,3.51171 l 0.73,11.98051 c 0,0 21.01,-3.1407 30.42,-3.1407 15.11,0 23.22,3.3204 23.22,15.8477 0,9.5898 -4.79,11.9922 -24.88,15.1211 -20.83,3.3203 -30.78,7.1914 -30.78,25.6211 0,20.2773 16.4,26.9101 33.17,26.9101 13.83,0 33.37,-3.5 33.37,-3.5 l -0.37,-11.8007"
         style="fill:#2f3192;fill-opacity:1;fill-rule:nonzero;stroke:none"
         id="path138" /></g></g></svg>
