<?xml version="1.0" encoding="UTF-8" standalone="no"?>
<!-- Created with Inkscape (http://www.inkscape.org/) -->

<svg
   version="1.1"
   id="svg2"
   xml:space="preserve"
   width="237.67999"
   height="122.84"
   viewBox="0 0 237.67999 122.84"
   sodipodi:docname="RW-logo.eps"
   xmlns:inkscape="http://www.inkscape.org/namespaces/inkscape"
   xmlns:sodipodi="http://sodipodi.sourceforge.net/DTD/sodipodi-0.dtd"
   xmlns="http://www.w3.org/2000/svg"
   xmlns:svg="http://www.w3.org/2000/svg"><defs
     id="defs6" /><sodipodi:namedview
     id="namedview4"
     pagecolor="#ffffff"
     bordercolor="#666666"
     borderopacity="1.0"
     inkscape:pageshadow="2"
     inkscape:pageopacity="0.0"
     inkscape:pagecheckerboard="0" /><g
     id="g8"
     inkscape:groupmode="layer"
     inkscape:label="ink_ext_XXXXXX"
     transform="matrix(1.3333333,0,0,-1.3333333,0,122.84)"><g
       id="g10"
       transform="scale(0.1)"><path
         d="M 552.758,184.254 V 921.262 H 184.254 V 184.254 h 368.504"
         style="fill:#0f578e;fill-opacity:1;fill-rule:nonzero;stroke:none"
         id="path12" /><path
         d="m 386.809,433.668 c 0,-1.602 0.984,-3.945 3.125,-3.273 0.105,0.05 0.203,0.019 0.179,-0.086 -0.328,-1.789 -3.511,-3.418 -4.968,-1.309 -1.29,-2.727 -0.989,-5.273 1.796,-6.777 0.153,-0.09 0.184,-0.285 0.008,-0.41 -1.66,-1.211 -4.25,-0.938 -5.457,1.386 -2.281,-1.719 -1.949,-5.39 -0.562,-6.64 0,-0.02 -6.328,-3.762 -12.075,-1.086 -3.804,1.828 -6.906,4.16 -11.82,3.781 0.684,6.883 4.125,8.699 10.453,9.687 5.063,0.821 5.703,3.145 4.985,4.903 -1.719,0.457 -4.868,-1.125 -4.868,-1.125 -0.562,0.949 0.254,1.933 0.254,1.933 -0.308,0.383 -0.464,1.653 -0.464,1.653 3.535,0 4.16,0.781 4.16,0.781 0.629,3.68 -3.121,4.07 -5.981,2.09 -1.328,1.172 -1.109,2.734 -1.109,2.734 -0.399,0.195 -0.649,0.809 -0.649,1.074 0,0.868 4.196,3.231 5.278,3.504 0.269,1.223 1.797,2.91 6.25,2.512 0.531,1.18 -0.332,5.488 -0.879,6.648 -0.18,0.352 0.078,0.547 0.469,0.305 1.554,-0.988 3.101,-4.621 4.16,-4.687 0,0 5.008,2.625 5.254,2.48 0.238,-0.137 0.945,-5.734 0.945,-5.734 0.664,-0.821 4.531,-0.02 6.223,-0.742 0.425,-0.184 0.41,-0.497 0.027,-0.555 -1.266,-0.215 -5.297,-1.953 -5.961,-3.067 2.313,-3.468 1.227,-8.574 1.227,-9.98 z m -44.696,-2.852 c -0.375,-0.519 -1.609,0.02 -2.078,0.235 -0.109,0.047 -0.129,0 -0.09,-0.078 0.297,-0.664 1.493,-2.657 3.258,-2.657 0.801,0 1.969,0.469 2.301,1.004 0,0 6.918,-2.246 10.34,-3.191 -1.328,-1.77 -2.156,-3.899 -2.324,-6.211 -2.758,1.699 -13.797,7.617 -13.797,7.617 l -3.422,-4.68 c -0.571,-0.769 -3.305,1.223 -2.738,2.004 l 2.613,3.575 c -0.863,0.918 -2.949,0.339 -3.516,0.175 -0.078,-0.019 -0.148,0.02 -0.078,0.157 0.332,0.703 1.633,2.871 4.883,1.894 0.012,1.981 -2.949,1.348 -3.719,1.133 -0.094,-0.02 -0.125,0.02 -0.039,0.105 0.801,0.86 3.203,2.805 5.895,1.211 l 1.168,1.614 -2.368,2.488 1.485,2.043 1.66,-2.238 12.746,17.453 c 0.312,0.429 2.836,1.16 3.789,1.367 0.102,-0.977 0.211,-3.594 -0.094,-4.023 l -12.535,-17.61 2.645,-0.867 -1.461,-2.051 -3.121,1.453 z m 95.078,-91.836 c 0.164,0.028 0.188,0.157 0.079,0.235 -1.657,1.074 -2.946,2.566 -2.946,4.207 0,2.93 5.621,6.777 8.309,6.777 1.597,0 2.75,-1.914 5.828,-1.914 1.598,0 3.457,0.645 4.996,2.578 0.113,0.149 0.051,0.266 -0.133,0.235 -1.277,-0.203 -4.754,-1.063 -6.375,5.215 -1.679,6.535 -2.246,11.281 0.653,13.781 2.453,2.109 13.242,6.199 19.179,8.465 0.321,0.129 0.293,0.343 0,0.41 -1.64,0.461 -3.242,1.457 -3.457,3.476 -0.144,1.262 0.117,2.981 1.543,3.821 -2.933,3.172 -8.75,5.39 -11.816,5.39 -11.746,0 -21.711,-15.918 -26.485,-15.918 -0.593,0 -1.371,0.223 -2.07,1.239 -0.156,0.214 -0.32,0.234 -0.32,-0.125 0,-4.805 2.547,-5.235 3.898,-5.235 0.77,-0.012 1.594,0.235 2.184,0.567 0.156,0.097 0.234,0.027 0.234,-0.149 0,-0.195 -0.039,-0.672 -0.039,-1.004 0,-5.664 5.918,-11.855 5.918,-11.855 -2.676,-2.785 -9.363,-7.461 -11.234,-4.973 -0.797,1.008 -4.301,7.317 -8.981,2.297 -0.164,-0.187 -0.051,-0.402 0.266,-0.402 2.637,0 4.691,-1.797 3.984,-4.52 -3.797,3.027 -9.035,2.539 -9.035,-4.453 0,-0.273 0.274,-0.332 0.41,-0.137 2.5,3.594 6.457,1.16 7.028,0.645 -2.653,-0.403 -7.25,-3.516 -3.207,-9.043 0.168,-0.246 0.328,-0.188 0.351,0 0.414,3.633 2.625,4.246 4.43,4.246 3.711,0 6.418,-3.406 9.25,0.215 1.019,-4.735 6.281,-4.285 7.558,-4.071 z m -129.82,4.071 c 2.832,-3.621 5.543,-0.215 9.254,-0.215 1.809,0 4.02,-0.613 4.434,-4.246 0.019,-0.188 0.175,-0.246 0.351,0 4.043,5.527 -0.558,8.64 -3.211,9.043 0.571,0.515 4.528,2.949 7.031,-0.645 0.137,-0.195 0.411,-0.136 0.411,0.137 0,6.992 -5.243,7.48 -9.036,4.453 -0.71,2.723 1.344,4.52 3.985,4.52 0.316,0 0.43,0.215 0.265,0.402 -4.683,5.02 -8.191,-1.289 -8.984,-2.297 -1.871,-2.488 -8.558,2.188 -11.23,4.973 0,0 5.914,6.191 5.914,11.855 0,0.332 -0.039,0.809 -0.039,1.004 0,0.176 0.078,0.246 0.238,0.149 0.586,-0.332 1.414,-0.579 2.176,-0.567 1.351,0 3.906,0.43 3.906,5.235 0,0.359 -0.164,0.339 -0.32,0.125 -0.703,-1.016 -1.481,-1.239 -2.078,-1.239 -4.77,0 -14.735,15.918 -26.485,15.918 -3.062,0 -8.875,-2.218 -11.808,-5.39 1.418,-0.84 1.687,-2.559 1.543,-3.821 -0.215,-2.019 -1.817,-3.015 -3.458,-3.476 -0.292,-0.067 -0.32,-0.281 0,-0.41 5.93,-2.266 16.727,-6.356 19.18,-8.465 2.899,-2.5 2.332,-7.246 0.653,-13.781 -1.625,-6.278 -5.098,-5.418 -6.375,-5.215 -0.188,0.031 -0.25,-0.086 -0.133,-0.235 1.535,-1.933 3.394,-2.578 4.992,-2.578 3.078,0 4.23,1.914 5.828,1.914 2.688,0 8.305,-3.847 8.305,-6.777 0,-1.641 -1.285,-3.133 -2.938,-4.207 -0.109,-0.078 -0.09,-0.207 0.071,-0.235 1.285,-0.214 6.542,-0.664 7.558,4.071 z m 55.438,94.66 c 2.046,0.516 4.3,0.273 4.539,0.195 0.324,-0.109 0.312,-0.597 -0.051,-0.644 -4.274,-0.547 -4.469,-2.512 -7.195,-2.512 -1.797,0 -3.739,1.809 -3.008,4.473 0.094,0.343 0.363,0.351 0.441,0.031 0.274,-1.152 1.934,-2.402 5.274,-1.543 z m 10.699,7.168 c -2.903,0.176 -4.758,-0.469 -4.668,-1.399 1.41,-1.484 3.285,-1.316 4.668,1.399 z m -24.422,-75.488 c -1.613,-1.973 -3.031,-0.09 -5.148,-0.09 -2,0 -2.333,-1.668 -2.379,-2.332 -0.012,-0.117 -0.079,-0.168 -0.164,-0.039 -2.258,3.086 0.265,4.765 1.742,4.988 -0.215,0.215 -2.438,1.711 -3.856,-0.34 -0.105,-0.148 -0.242,-0.078 -0.242,0.098 -0.07,3.828 2.969,4.101 4.969,2.422 0.363,1.445 -0.574,2.422 -2.195,2.5 -0.196,0 -0.227,0.125 -0.149,0.215 0.68,0.73 1.34,1.062 2.004,1.062 2.133,0 2.402,-2.695 3.793,-2.695 2.09,0 5.043,2.812 5.328,3.117 -0.059,0.156 -2.059,5.566 -1.66,8.808 0.019,0.137 -0.055,0.157 -0.149,0.098 -1.003,-0.566 -3.57,-0.547 -3.57,2.606 0,0.254 0.074,0.273 0.219,0.07 1.121,-1.555 2.941,0.195 3.851,1.219 0.985,1.093 6.239,8.75 13.254,8.75 1.543,-0.008 3.536,-0.848 5.137,-1.961 -2.422,-2.949 -0.016,-5.774 1.777,-5.41 0.211,0.039 0.25,-0.157 0.051,-0.227 -9.273,-3.484 -13.418,-4.883 -13.418,-12.645 0,-4.054 1.387,-6.3 3.766,-5.773 0.18,0.051 0.226,-0.027 0.101,-0.164 -0.859,-1.027 -1.855,-1.367 -2.679,-1.367 -1.926,0 -2.274,1.054 -3.309,1.054 -1.062,0 -4.515,-2.031 -4.515,-3.73 0,-0.645 0.406,-1.516 1.625,-2.316 0.082,-0.047 0.035,-0.118 -0.032,-0.125 -0.777,-0.149 -3.515,-0.383 -4.152,2.207 z m -12.527,32.968 -3.625,0.938 -0.301,-0.449 -4.203,1.843 c 0,0 3.097,0.02 3.758,0.032 0.351,0 0.375,0.222 0.191,0.398 -1.715,1.68 -3.215,3.145 -3.215,3.145 0,0 1.711,-0.633 4.152,-1.543 0.278,-0.098 0.379,0.109 0.247,0.293 -1.168,1.73 -2.766,4.054 -2.766,4.054 0,0 3.383,-2.265 4.07,-2.726 0.223,-0.156 0.399,-0.008 0.305,0.215 -0.902,2.238 -1.93,4.765 -1.93,4.765 l 3.715,-3.504 c 0.172,-0.156 0.363,-0.07 0.313,0.164 -0.36,1.672 -1.024,4.766 -1.024,4.766 l 2.723,-3.984 c 0.164,-0.235 0.367,-0.164 0.371,0.109 0.015,0.781 0.09,4.355 0.09,4.355 0,0 1.144,-2.636 1.726,-3.984 0.117,-0.273 0.324,-0.293 0.469,0.059 0.184,0.429 1.402,3.367 1.402,3.367 l 0.161,-4.531 -0.606,-0.118 -0.762,-5.457 c 5.41,1.27 12.149,10.516 17.317,10.516 6.152,0 8.386,-7.207 19.758,-3.555 2.867,-4.246 3.875,-7.937 4.984,-13.047 4.383,-4.128 10.551,-2.753 10.551,1.622 0,5.89 -6.422,7.011 -6.422,13.156 0,2.742 1.926,6.687 7.168,6.687 2.773,0 6.84,-1.191 9.179,-1.191 2.778,0 3.372,2.012 3.68,2.844 0.258,0.625 1.012,0.418 0.942,-0.071 -0.094,-0.574 0.32,-1.375 0.32,-2.695 0,-3.887 -5.652,-4.394 -6.359,-3.914 -0.293,0.203 -0.5,-0.109 -0.293,-0.273 0.851,-0.684 0.66,-3 -0.348,-4.473 -0.125,-0.168 -0.281,-0.137 -0.317,0.019 -0.601,2.782 -3.871,6.219 -6.746,6.219 -1.058,0 -3.164,-0.613 -3.164,-3.055 0,-3.496 7,-6.679 7,-13.925 0,-7.532 -7.461,-9.336 -14.961,-7.461 0.254,-7.129 10.903,-11.367 11.157,-6.27 0.011,0.352 0.203,0.137 0.308,-0.011 1.582,-2.176 0.864,-3.836 -1.148,-4.676 1.851,-0.84 2.183,-4.582 2.73,-6.817 0.817,-3.351 4.371,-1.496 4.547,-1.398 0.192,0.117 0.262,0.012 0.184,-0.203 -1.352,-3.489 -4.922,-2.168 -4.922,-2.168 -1.875,-1.321 0.39,-2.5 2.09,-3.008 0.254,-0.07 0.238,-0.254 0.039,-0.332 -1.258,-0.461 -3.938,-1.301 -5.239,0.945 -0.96,-2.324 -2.941,-2.254 -3.71,-2.254 -1.372,0 -2.286,-1.406 -1.961,-3.281 0.031,-0.168 -0.086,-0.215 -0.211,-0.117 -3.27,2.168 -1.391,4.715 -0.075,5.351 -0.226,0.137 -2.476,1.075 -3.433,-1.562 -0.074,-0.207 -0.203,-0.215 -0.277,-0.02 -1.422,3.797 1.691,4.903 3.937,3.946 -0.156,0.535 -1.332,2.39 -4.285,1.797 -0.133,-0.039 -0.223,0.019 -0.141,0.203 0.485,1.164 1.949,2.883 4.629,1.144 1.367,-0.851 3.735,0.391 3.945,0.496 -4.761,9.485 -14.019,1.543 -16.089,8.977 -0.039,0.156 -0.227,0.293 -0.356,-0.117 -0.492,-1.582 -4.527,-1.692 -5.269,1.426 -0.063,0.242 0.031,0.273 0.187,0.117 0.594,-0.598 1.859,-1.133 3.531,1.277 1.106,1.594 1.258,3.723 1.258,5.168 0,5.77 -5.762,15.449 -14.742,15.449 -5.68,0 -11.785,-2.218 -16.316,-5.519 l 4.218,-0.965 c -0.398,-4.27 -4.5,-6.75 -8.269,-5.703 l 0.652,4.883 c -0.652,-0.207 -2.308,-0.793 -3.191,-2.051 -0.067,-0.098 -0.196,-0.071 -0.227,0.039 -0.769,2.762 1.516,4.16 2.227,4.519 0.078,0.051 0.074,0.11 -0.074,0.11 -2.043,0.078 -3.196,-1.426 -3.52,-1.946 -0.055,-0.078 -0.141,-0.058 -0.164,0.012 -0.168,0.508 -0.527,1.934 0.43,2.949 z m 31.949,-89.511 c 35.816,0 72.191,-1.875 76.945,-7.278 0.383,-0.429 0.539,0.012 0.539,0.332 L 446,324.887 c 0,5.539 -37.527,8.761 -77.492,8.761 -39.973,0 -77.496,-3.222 -77.496,-8.761 l 0.008,-18.985 c 0,-0.32 0.156,-0.761 0.539,-0.332 4.754,5.403 41.129,7.278 76.949,7.278 z m 58.441,-8.477 v -8.234 c 0,-13.992 23.047,-0.867 45.293,0.547 18.465,1.211 23.621,-3.504 23.621,-3.504 l -3.386,18.672 c -0.18,1.015 -4.172,3.886 -16.911,3.886 -15.316,0 -23.003,-2.929 -25.804,-3.918 v -9.804 c 0,-2.235 -1.125,-3.328 -2.824,-4.012 0,0.82 -2.559,6.367 -19.989,6.367 z m -136.875,-6.367 c -1.699,0.684 -2.824,1.777 -2.824,4.012 v 9.804 c -2.809,0.989 -10.488,3.918 -25.809,3.918 -12.734,0 -16.722,-2.871 -16.91,-3.886 l -3.383,-18.672 c 0,0 5.157,4.715 23.622,3.504 22.246,-1.414 45.293,-14.539 45.293,-0.547 v 8.234 c -17.434,0 -19.989,-5.547 -19.989,-6.367 z m 42.41,161.766 c -5.343,-1.172 -9.183,-2.274 -10.902,-2.801 0.09,2.363 0.984,4.551 3.09,5.039 0.269,0.066 0.34,0.43 0.09,0.594 -4.766,3.164 -7.321,-2.899 -7.395,-3.094 -1.687,0.125 -4.262,-0.403 -4.262,-2.688 0,-6.824 -15.617,-10.613 -19.234,-11.172 6.379,-2.46 9.035,-10.496 9.035,-10.496 4.629,4.629 10.043,8.711 11.235,8.711 1.23,0 1.699,-1.543 1.797,-2.461 0.031,-0.304 0.312,-0.402 0.503,-0.136 2.422,3.613 1.258,4.433 1.063,5.496 -0.156,0.84 0.09,4.004 3.625,3.633 V 404.84 l -1.816,-0.363 c -0.836,-0.145 -7.497,5.519 -15.125,10.793 -7.625,5.273 -11.723,2.117 -20.422,-2.59 -11.379,-6.16 -22.891,-0.575 -22.891,-0.575 -9.816,-7.011 -13.156,-27.285 -13.156,-27.285 -1.953,-0.84 -5.196,-1.718 -8.266,-1.718 -7.488,0 -8.867,4.531 -8.867,7.246 0,11.562 14.477,16.523 14.477,27.918 0,2.765 -1.27,14.015 -15.184,14.015 -1.781,0 -12.402,0.02 -12.453,0.02 -5.207,0 -6.512,3.75 -7.235,5.183 -0.281,0.559 -0.812,0.235 -0.613,-0.203 0.402,-0.957 -0.598,-2.414 -0.598,-5.304 0,-4.629 2.719,-7.411 7.782,-7.411 2.304,0 4.472,0.653 5.176,1.075 0.468,0.273 0.718,-0.176 0.5,-0.43 -2.208,-2.578 -2.383,-7.402 -1.477,-8.574 0.215,-0.285 0.484,-0.207 0.539,0.019 1.219,4.891 5.801,9.512 11.969,9.512 7.547,0 7.508,-6.418 7.508,-7.969 0,-9.277 -16.293,-16.086 -16.293,-28.84 0,-12.937 13.668,-15.711 21.586,-13.66 -0.465,-12.949 -15.29,-17.363 -15.739,-8.097 -0.035,0.441 -0.351,0.546 -0.593,-0.039 -1.875,-4.579 -1.133,-8.602 4.636,-9.883 0.391,-0.098 0.199,-0.313 -0.156,-0.555 -5.711,-3.633 -2.617,-17.91 -2.332,-22.109 0.43,-6.055 -5.594,-5.332 -6.086,-5.157 -0.246,0.098 -0.488,-0.031 -0.105,-0.507 4.265,-5.235 9.539,-0.45 9.539,-0.45 3.984,-1.25 1.515,-4.648 -1.141,-6.425 -0.414,-0.286 -0.383,-0.559 0.066,-0.586 0.598,-0.039 6.762,-0.559 7.864,4.355 2.726,-3.262 6.742,-2.07 7.586,-1.641 1.187,0.606 6.964,2.704 7.539,-3.789 0.035,-0.468 0.308,-0.168 0.5,0.079 4.363,5.488 -0.313,8.875 -2.91,9.277 0.207,0.301 3.71,3.203 6.855,-0.82 0.211,-0.274 0.41,-0.332 0.449,0.214 0.36,6.961 -5.304,7.598 -8.972,4.571 -0.168,0.711 -1.391,4.629 4.148,4.492 0.133,0 0.395,0.195 0.117,0.469 -4.297,4.539 -7.832,0.41 -8.652,-0.578 -1.914,-2.254 -6.68,-1.356 -7.121,-1.297 1.496,24.199 22.812,15.625 25.742,27.382 0.137,0.625 0.418,0.391 0.476,0.165 0.805,-2.872 8.04,-3.27 9.368,2.382 0.074,0.352 0.031,0.625 -0.223,0.364 -6.172,-6.164 -20.07,13.105 -1.105,28.757 16.191,13.352 30.703,5.911 36.222,1.516 0.293,-1.934 -0.859,-2.559 -1.597,-2.793 -0.262,-0.078 -0.348,-0.324 0.074,-0.488 1.543,-0.586 3.715,-0.403 4.734,1.043 3.477,-2.43 0.5,-5.488 -0.906,-6.336 -0.359,-0.227 -0.199,-0.461 0.098,-0.52 3.191,-0.574 5.82,2.688 5.945,4.563 l 0.539,-0.305 v -13.75 c 0,-19.578 22.586,-22.293 47.379,-38.894 24.785,16.601 47.371,19.316 47.371,38.894 v 13.75 l 0.543,0.305 c 0.125,-1.875 2.754,-5.137 5.945,-4.563 0.301,0.059 0.449,0.293 0.098,0.52 -1.406,0.848 -4.383,3.906 -0.906,6.336 1.015,-1.446 3.191,-1.629 4.734,-1.043 0.418,0.164 0.34,0.41 0.07,0.488 -0.734,0.234 -1.886,0.859 -1.593,2.793 5.519,4.395 20.031,11.836 36.222,-1.516 18.965,-15.652 5.063,-34.921 -1.105,-28.757 -0.258,0.261 -0.297,-0.012 -0.223,-0.364 1.328,-5.652 8.563,-5.254 9.363,-2.382 0.059,0.226 0.344,0.46 0.481,-0.165 2.93,-11.757 24.246,-3.183 25.742,-27.382 -0.441,-0.059 -5.207,-0.957 -7.121,1.297 -0.82,0.988 -4.356,5.117 -8.652,0.578 -0.282,-0.274 -0.02,-0.469 0.117,-0.469 5.539,0.137 4.316,-3.781 4.14,-4.492 -3.66,3.027 -9.332,2.39 -8.964,-4.571 0.035,-0.546 0.242,-0.488 0.449,-0.214 3.144,4.023 6.64,1.121 6.855,0.82 -2.597,-0.402 -7.273,-3.789 -2.91,-9.277 0.188,-0.247 0.461,-0.547 0.5,-0.079 0.57,6.493 6.348,4.395 7.539,3.789 0.844,-0.429 4.852,-1.621 7.586,1.641 1.094,-4.914 7.266,-4.394 7.863,-4.355 0.446,0.027 0.477,0.3 0.067,0.586 -2.656,1.777 -5.125,5.175 -1.141,6.425 0,0 5.274,-4.785 9.539,0.45 0.375,0.476 0.137,0.605 -0.105,0.507 -0.492,-0.175 -6.52,-0.898 -6.086,5.157 0.285,4.199 3.379,18.476 -2.332,22.109 -0.364,0.242 -0.551,0.457 -0.156,0.555 5.769,1.281 6.511,5.304 4.636,9.883 -0.242,0.585 -0.566,0.48 -0.594,0.039 -0.449,-9.266 -15.273,-4.852 -15.742,8.097 7.918,-2.051 21.586,0.723 21.586,13.66 0,12.754 -16.293,19.563 -16.293,28.84 0,1.551 -0.039,7.969 7.508,7.969 6.168,0 10.746,-4.621 11.973,-9.512 0.051,-0.226 0.324,-0.304 0.539,-0.019 0.906,1.172 0.73,5.996 -1.477,8.574 -0.222,0.254 0.028,0.703 0.5,0.43 0.696,-0.422 2.871,-1.075 5.168,-1.075 5.067,0 7.785,2.782 7.785,7.411 0,2.89 -0.996,4.347 -0.593,5.304 0.199,0.438 -0.34,0.762 -0.614,0.203 -0.726,-1.433 -2.031,-5.183 -7.234,-5.183 -0.051,0 -10.668,-0.02 -12.457,-0.02 -13.91,0 -15.188,-11.25 -15.188,-14.015 0,-11.395 14.481,-16.356 14.481,-27.918 0,-2.715 -1.371,-7.246 -8.867,-7.246 -3.075,0 -6.317,0.878 -8.262,1.718 0,0 -3.34,20.274 -13.156,27.285 0,0 -11.512,-5.585 -22.891,0.575 -8.699,4.707 -12.801,7.863 -20.43,2.59 -7.625,-5.274 -14.285,-10.938 -15.117,-10.793 l -1.82,0.363 v 45.555 c 3.535,0.371 3.785,-2.793 3.629,-3.633 -0.195,-1.063 -1.36,-1.883 1.062,-5.496 0.188,-0.266 0.469,-0.168 0.5,0.136 0.098,0.918 0.567,2.461 1.797,2.461 1.192,0 6.61,-4.082 11.238,-8.711 0,0 2.657,8.036 9.036,10.496 -3.625,0.559 -19.239,4.348 -19.239,11.172 0,2.285 -2.574,2.813 -4.257,2.688 -0.079,0.195 -2.633,6.258 -7.395,3.094 -0.254,-0.164 -0.184,-0.528 0.09,-0.594 2.101,-0.488 3.004,-2.676 3.09,-5.039 -4.551,1.394 -23.938,6.836 -46.922,6.836 -11.16,0 -21.442,-1.289 -29.617,-2.766 V 445.25 h -6.407 v 14.52 0 m 36.024,14.66 c 19.64,0 30.726,-3.75 30.726,-3.75 0.106,9.922 0.039,15.457 5.731,14.629 -3.11,8.339 10.293,11.609 10.293,22.48 0,7.156 -5.063,7.969 -6.559,7.969 -4.445,0 -3.75,-2.891 -7.531,-2.891 -0.469,0 -0.957,0.117 -0.957,-0.226 0,-1.25 1.062,-3.387 2.801,-3.387 2.324,0 2.375,2.324 4.097,2.324 0.746,0 1.821,-0.605 1.821,-2.988 0,-4.621 -3.028,-9.746 -6.602,-13.711 -0.82,1.133 -1.937,1.836 -3.273,1.836 -2.117,0 -3.973,-2.207 -3.973,-4.934 0,-1.004 0.16,-1.738 0.527,-2.586 -1.191,-0.664 -2.25,-1.047 -3.046,-1.047 -1.61,0 -4.043,0.657 -4.043,4.192 0,7.871 10.558,14.805 10.558,24.785 0,4.766 -3.183,9.512 -9.836,9.512 -7.133,0 -5.804,-6.516 -11.976,-6.516 -0.286,0 -0.508,-0.086 -0.508,-0.34 0,-0.41 1.07,-4.015 4.262,-4.015 3.418,0 4.378,5.91 7.402,5.91 1.133,0 2.824,-0.664 2.824,-4.668 0,-3.117 -1.543,-8.145 -3.762,-12.969 -0.8,0.801 -1.882,1.387 -3.109,1.387 -2.645,0 -4.547,-2.559 -4.547,-5.617 0,-1.934 0.762,-3.797 2.074,-5.028 -1.554,-1.992 -3.148,-3.613 -5.304,-3.613 -4.262,0 -6.149,2.422 -6.149,5.059 0,2.851 5.203,3.886 5.203,8.339 0,3.028 -1.964,4.735 -3.859,4.735 -2.035,0 -3.082,-1.348 -3.285,-1.348 -0.211,0 -1.258,1.348 -3.293,1.348 -1.895,0 -3.863,-1.707 -3.863,-4.735 0,-4.453 5.207,-5.488 5.207,-8.339 0,-2.637 -1.879,-5.059 -6.145,-5.059 -2.16,0 -3.754,1.621 -5.312,3.613 1.316,1.231 2.078,3.094 2.078,5.028 0,3.058 -1.903,5.617 -4.547,5.617 -1.227,0 -2.313,-0.586 -3.113,-1.387 -2.211,4.824 -3.754,9.852 -3.754,12.969 0,4.004 1.691,4.668 2.824,4.668 3.015,0 3.976,-5.91 7.402,-5.91 3.192,0 4.262,3.605 4.262,4.015 0,0.254 -0.231,0.34 -0.512,0.34 -6.172,0 -4.844,6.516 -11.972,6.516 -6.653,0 -9.836,-4.746 -9.836,-9.512 0,-9.98 10.558,-16.914 10.558,-24.785 0,-3.535 -2.433,-4.192 -4.043,-4.192 -0.801,0 -1.855,0.383 -3.054,1.047 0.367,0.848 0.531,1.582 0.531,2.586 0,2.727 -1.86,4.934 -3.973,4.934 -1.336,0 -2.449,-0.703 -3.269,-1.836 -3.579,3.965 -6.602,9.09 -6.602,13.711 0,2.383 1.074,2.988 1.816,2.988 1.727,0 1.778,-2.324 4.102,-2.324 1.73,0 2.797,2.137 2.797,3.387 0,0.343 -0.484,0.226 -0.953,0.226 -3.789,0 -3.086,2.891 -7.531,2.891 -1.5,0 -6.559,-0.813 -6.559,-7.969 0,-10.871 13.402,-14.141 10.293,-22.48 5.691,0.828 5.621,-4.707 5.726,-14.629 0,0 11.082,3.75 30.735,3.75 z m 0,47.195 c -2.711,0 -4.91,-2.187 -4.91,-4.902 0,-2.703 2.199,-4.903 4.91,-4.903 2.703,0 4.898,2.2 4.898,4.903 0,2.715 -2.195,4.902 -4.898,4.902 z m -2.461,29.895 c 0,-1.184 0.508,-2.219 0.91,-2.793 0.824,-1.172 0.699,-1.817 0.309,-2.207 -0.387,-0.391 -1.036,-0.52 -2.211,0.3 -0.578,0.41 -1.61,0.918 -2.789,0.918 -2.024,0 -3.024,-1.328 -3.024,-2.461 0,-1.132 1,-2.461 3.024,-2.461 1.179,0 2.211,0.508 2.789,0.918 1.175,0.821 1.824,0.696 2.211,0.305 0.39,-0.383 -0.18,-4.445 -0.633,-7.637 -3.348,-0.703 -4.957,-3.379 -4.957,-4.941 0,-4.023 4.301,-6.348 6.832,-7.695 2.523,1.347 6.824,3.672 6.824,7.695 0,1.562 -1.609,4.238 -4.949,4.941 -0.461,3.192 -1.028,7.254 -0.641,7.637 0.387,0.391 1.035,0.516 2.211,-0.305 0.574,-0.41 1.606,-0.918 2.789,-0.918 2.02,0 3.024,1.329 3.024,2.461 0,1.133 -1.004,2.461 -3.024,2.461 -1.183,0 -2.215,-0.508 -2.789,-0.918 -1.176,-0.82 -1.824,-0.691 -2.211,-0.3 -0.387,0.39 -0.519,1.035 0.309,2.207 0.402,0.574 0.918,1.609 0.918,2.793 0,2.019 -1.328,3.027 -2.461,3.027 -1.141,0 -2.461,-1.008 -2.461,-3.027 z m 98.723,-78.653 c -1,-4.687 -5.153,-5.344 -7.696,-2.5 0.211,2.246 2.461,2.774 7.696,2.5 z m 30.32,-26.457 c 0,0.481 -0.207,0.403 -0.406,0.305 -4.016,-2.012 -6.192,2.305 -5.215,6.758 0.547,2.48 2.722,9.207 -2.735,14.668 -5.367,-3.067 -8.976,1.972 -8.058,4.414 0.25,0.644 0.672,0.75 0.672,-0.078 0,-1.711 1.722,-2.95 2.965,-2.95 2.164,0 6.109,2.422 6.441,6.094 -5.547,3.641 -14.91,2.168 -16.777,-4.687 -0.235,-0.86 -1.27,-0.782 -1.2,0.078 0.036,0.586 0.278,4.648 4.325,6.699 3.652,1.836 2.324,4.559 1.359,5.527 -0.398,0.399 -1.145,0.321 -0.902,-0.09 1.41,-2.429 -1.606,-3.523 -5.778,-3.007 -8.828,1.183 -11.738,-2.098 -12.207,-4.375 -1.933,-0.496 -9.437,-4.707 -9.437,-6.27 0,-0.476 0.437,-1.59 1.144,-1.922 0,0 -0.176,-3.183 2.168,-5.273 9.387,5.672 11.992,0.371 11.028,-3.379 0,0 -1.661,-1.359 -7.989,-1.367 0,0 0.301,-2.285 0.84,-2.93 0,0 -1.445,-1.816 -0.422,-3.496 0,0 3.242,2.441 8.86,2.187 0,0 3.582,-5.468 -9.739,-8.039 -13.347,-2.558 -17.578,-15.175 -17.578,-22.078 0,-0.332 0.145,-0.527 0.453,-0.469 10.793,2.012 15.739,-9.179 29.746,-7.91 -1.218,3.289 0.125,6.739 0.125,6.739 1.102,-2.969 3.75,-4.903 5.633,-5.911 4.973,1.114 8.246,3.489 8.996,4.915 0,0 -5.285,4.375 -1.836,12.265 0,0 3.321,-5.265 10.176,-2.402 0.613,0.262 0.473,0.664 0.067,0.801 -9.286,2.996 -3.243,10.839 -2.676,11.621 4.308,-2.403 7.957,0.761 7.957,3.562 z m -52.684,13.02 c -2.734,0 -5.32,1.211 -5.82,3.32 -0.109,0.535 -0.57,0.723 -0.781,-0.07 -1.297,-4.727 2.039,-6.942 5.304,-6.942 3.598,0 5.621,2.578 10.743,3.457 2.253,0.379 3.796,0.028 3.796,0.711 0,0.684 -3.312,0.696 -3.796,0.696 -5.332,0 -6.059,-1.172 -9.446,-1.172 z m -162.468,10.937 c -2.551,-2.844 -6.7,-2.187 -7.696,2.5 5.235,0.274 7.485,-0.254 7.696,-2.5 z m -30.059,-27.519 c 0.559,-0.782 6.605,-8.625 -2.676,-11.621 -0.41,-0.137 -0.555,-0.539 0.067,-0.801 6.855,-2.863 10.175,2.402 10.175,2.402 3.45,-7.89 -1.84,-12.265 -1.84,-12.265 0.747,-1.426 4.024,-3.801 9,-4.915 1.879,1.008 4.532,2.942 5.633,5.911 0,0 1.344,-3.45 0.121,-6.739 14.004,-1.269 18.957,9.922 29.743,7.91 0.312,-0.058 0.461,0.137 0.461,0.469 0,6.903 -4.231,19.52 -17.583,22.078 -13.316,2.571 -9.734,8.039 -9.734,8.039 5.617,0.254 8.859,-2.187 8.859,-2.187 1.024,1.68 -0.421,3.496 -0.421,3.496 0.539,0.645 0.836,2.93 0.836,2.93 -6.325,0.008 -7.985,1.367 -7.985,1.367 -0.972,3.75 1.637,9.051 11.028,3.379 2.343,2.09 2.167,5.273 2.167,5.273 0.708,0.332 1.149,1.446 1.149,1.922 0,1.563 -7.512,5.774 -9.441,6.27 -0.469,2.277 -3.379,5.558 -12.208,4.375 -4.171,-0.516 -7.187,0.578 -5.781,3.007 0.239,0.411 -0.508,0.489 -0.898,0.09 -0.965,-0.968 -2.297,-3.691 1.351,-5.527 4.051,-2.051 4.297,-6.113 4.328,-6.699 0.071,-0.86 -0.964,-0.938 -1.195,-0.078 -1.867,6.855 -11.23,8.328 -16.777,4.687 0.328,-3.672 4.269,-6.094 6.433,-6.094 1.247,0 2.969,1.239 2.969,2.95 0,0.828 0.426,0.722 0.668,0.078 0.918,-2.442 -2.687,-7.481 -8.055,-4.414 -5.453,-5.461 -3.277,-12.188 -2.73,-14.668 0.977,-4.453 -1.199,-8.77 -5.215,-6.758 -0.203,0.098 -0.41,0.176 -0.41,-0.305 0,-2.801 3.652,-5.965 7.961,-3.562 z m 35.277,17.754 c -0.484,0 -3.801,-0.012 -3.801,-0.696 0,-0.683 1.543,-0.332 3.801,-0.711 5.125,-0.879 7.149,-3.457 10.746,-3.457 3.27,0 6.602,2.215 5.305,6.942 -0.215,0.793 -0.676,0.605 -0.781,0.07 -0.5,-2.109 -3.09,-3.32 -5.824,-3.32 -3.387,0 -4.114,1.172 -9.446,1.172 z m 118.645,-30.645 h -6.406 v 17.773 h 6.406 z m -28.891,-78.32 h -6.402 v 17.761 h 6.402 v -17.761"
         style="fill:#ffffff;fill-opacity:1;fill-rule:nonzero;stroke:none"
         id="path14" /><path
         d="m 658.129,479.23 c 8.976,0 16.34,5.868 16.34,17.833 0,9.429 -5.985,14.843 -15.875,14.843 -1.5,0 -3.453,-0.234 -4.946,-0.461 V 479.23 Z m -21.164,-32.792 c 4.484,1.265 6.672,3.562 6.672,8.738 v 56.496 l -7.25,2.305 v 2.527 c 7.25,1.262 13.808,1.73 22.894,1.73 17.375,0 25.66,-6.789 25.66,-19.445 0,-11.394 -6.328,-18.879 -16.566,-21.98 l 16.219,-21.739 c 2.761,-3.683 6.558,-6.449 10.699,-7.824 v -2.187 c -2.184,-1.493 -5.063,-2.528 -8.746,-2.528 -4.945,0 -8.164,1.953 -12.309,8.164 l -15.183,23.004 h -5.407 v -24.273 l 7.247,-1.836 v -2.531 c -3.801,-1.153 -8.051,-1.961 -13.118,-1.961 -4.027,0 -7.48,0.347 -10.812,1.148 v 2.192"
         style="fill:#231f20;fill-opacity:1;fill-rule:nonzero;stroke:none"
         id="path16" /><path
         d="m 704.695,516.16 c 0,3.567 2.532,6.789 6.559,6.789 3.223,0 5.98,-2.422 5.98,-6.219 0,-4.027 -2.757,-7.128 -6.437,-7.128 -3.453,0 -6.102,2.761 -6.102,6.558 z m -4.832,-69.949 c 3.11,1.144 6.098,3.445 6.098,6.211 v 38.887 l -7.363,3.105 v 2.41 c 5.179,1.496 10.468,2.192 13.691,2.192 h 3.684 l -0.578,-6.211 v -43.723 l 6.445,-1.727 v -2.179 c -3.91,-1.387 -7.481,-1.961 -13.344,-1.961 -2.644,0 -5.984,0.23 -8.633,1.031 v 1.965"
         style="fill:#231f20;fill-opacity:1;fill-rule:nonzero;stroke:none"
         id="path18" /><path
         d="m 735.52,516.16 c 0,3.567 2.527,6.789 6.554,6.789 3.223,0 5.985,-2.422 5.985,-6.219 0,-4.027 -2.762,-7.128 -6.442,-7.128 -3.453,0 -6.097,2.761 -6.097,6.558 z m 1.261,-24.851 -7.363,3.105 v 2.41 c 5.293,1.496 10.469,2.192 13.809,2.192 h 3.683 l -0.695,-6.446 v -51.652 c 0,-18.879 -5.633,-24.734 -12.996,-24.734 -2.535,0 -5.067,0.918 -6.446,2.754 v 1.843 c 5.063,0 10.008,5.75 10.008,17.492 v 53.036"
         style="fill:#231f20;fill-opacity:1;fill-rule:nonzero;stroke:none"
         id="path20" /><path
         d="m 760.699,446.211 c 3.106,1.144 6.211,3.445 6.211,6.211 v 66.73 l -7.59,3.106 v 2.527 c 5.293,1.496 10.578,2.07 13.801,2.07 h 3.914 l -0.691,-6.445 v -46.015 l 6.328,5.515 c 6.211,5.293 11.855,13.235 11.855,18.41 2.071,0.696 3.789,0.926 6.094,0.926 1.727,0 3.106,-0.348 4.598,-1.031 -0.223,-4.953 -5.176,-12.774 -15.645,-20.254 l -4.023,-2.871 17.715,-21.516 c 3.222,-3.918 6.093,-5.527 8.515,-5.527 v -2.41 c -2.527,-1.731 -5.176,-2.422 -8.515,-2.422 -3.223,0 -5.985,1.387 -8.164,4.375 l -18.758,24.734 v -23.242 l 5.984,-1.836 v -2.187 c -4.258,-1.387 -7.598,-1.844 -12.996,-1.844 -2.648,0 -5.988,0.23 -8.633,1.031 v 1.965"
         style="fill:#231f20;fill-opacity:1;fill-rule:nonzero;stroke:none"
         id="path22" /><path
         d="m 814.293,456.68 c 5.176,-4.832 10.125,-7.254 16.219,-7.254 6.445,0 9.785,3.113 9.785,7.137 0,4.023 -2.305,6.55 -9.902,9.777 l -5.75,2.422 c -6.672,2.871 -10.352,7.703 -10.352,14.265 0,9.082 8.055,16.907 20.02,16.907 9.199,0 12.878,-2.754 12.878,-7.129 0,-1.731 -0.222,-3.227 -0.566,-4.836 -3.68,2.527 -8.75,4.375 -13.125,4.375 -7.363,0 -10.809,-3.223 -10.809,-7.141 0,-4.137 2.071,-6.433 8.973,-9.082 l 6.211,-2.422 c 8.281,-3.219 11.398,-7.476 11.398,-14.265 0,-8.86 -8.515,-16.903 -21.406,-16.903 -10.129,0 -14.609,3.211 -14.609,9.434 0,1.609 0.34,3.445 1.035,4.715"
         style="fill:#231f20;fill-opacity:1;fill-rule:nonzero;stroke:none"
         id="path24" /><path
         d="m 854.77,492.805 -4.95,3.445 v 2.766 h 22.325 v -2.766 l -6.672,-2.754 10.234,-36.933 h 0.117 l 11.387,36.699 -6.328,2.988 v 2.766 h 19.562 v -2.766 l -3.34,-2.527 10.36,-37.043 h 0.117 l 11.848,36.465 -6.555,3.105 v 2.766 h 17.715 v -2.766 l -3.106,-2.527 -19.336,-50.852 -4.824,-0.234 -12.773,42.343 h -0.117 l -13.231,-42.109 -5.176,-0.234 -17.257,50.168"
         style="fill:#231f20;fill-opacity:1;fill-rule:nonzero;stroke:none"
         id="path26" /><path
         d="m 951.488,449.426 c 3.567,0 8.164,1.387 11.047,3.113 v 16.106 c -13,0 -20.019,-5.411 -20.019,-11.622 0,-4.601 3.105,-7.597 8.972,-7.597 z m 11.047,24.629 v 3.101 c 0,12.422 -2.988,15.071 -10.246,15.071 -6.328,0 -12.422,-2.649 -17.254,-7.481 -0.226,1.152 -0.344,2.188 -0.344,3.457 0,7.363 5.411,11.621 18.868,11.621 11.621,0 18.527,-5.871 18.527,-15.418 0,-2.531 -0.352,-8.285 -0.461,-11.625 l -0.352,-18.64 c 0.813,-2.071 2.532,-4.246 4.61,-5.86 -1.727,-2.07 -4.832,-4.375 -7.832,-5.871 -2.176,1.379 -3.906,3.227 -5.293,5.637 -3.211,-3.106 -9.434,-5.516 -15.528,-5.516 -8.632,0 -14.609,5.399 -14.609,12.762 0,10.129 11.047,18.762 29.914,18.762"
         style="fill:#231f20;fill-opacity:1;fill-rule:nonzero;stroke:none"
         id="path28" /><path
         d="m 990.699,475.664 0.352,15.293 h -6.328 v 3.801 l 12.422,12.312 3.795,0.461 -0.46,-10.351 h 15.19 l -0.81,-6.223 h -14.73 l -0.224,-14.492 c -0.117,-4.832 -0.117,-9.199 -0.117,-13.457 0,-9.324 2.761,-12.547 7.021,-12.547 3.33,0 6.21,1.152 8.51,2.996 l 1.15,-0.461 c -0.46,-6.785 -4.48,-10.242 -12.42,-10.242 -9.21,0 -13.695,4.836 -13.695,15.996 0,5.52 0.235,11.621 0.344,16.914"
         style="fill:#231f20;fill-opacity:1;fill-rule:nonzero;stroke:none"
         id="path30" /><path
         d="m 1055.11,476.926 c 0,11.277 -4.83,16.679 -11.62,16.679 -6.33,0 -13.01,-7.589 -13.01,-16.679 z m -10.7,22.898 c 12.42,0 19.9,-8.293 19.9,-21.511 0,-2.192 0,-4.493 -0.12,-7.368 h -33.93 c 0,-12.886 7.48,-20.371 17.03,-20.371 5.63,0 11.85,1.965 16.22,4.953 0.23,-0.578 0.46,-1.843 0.46,-2.988 0,-5.184 -7.6,-10.008 -19.8,-10.008 -13.11,0 -23.8,10.235 -23.8,26.336 0,20.02 12.08,30.957 24.04,30.957"
         style="fill:#231f20;fill-opacity:1;fill-rule:nonzero;stroke:none"
         id="path32" /><path
         d="m 1073.5,446.211 c 2.99,1.144 6.09,3.445 6.09,6.211 v 38.887 l -7.48,3.105 v 2.531 c 5.3,1.493 10.47,2.071 13.81,2.071 h 2.77 v -8.059 h 0.11 l 3.22,3.574 c 3.11,3.332 6.22,5.059 10.12,5.059 4.04,0 5.99,-1.727 5.99,-4.949 0,-2.18 -0.69,-4.719 -1.85,-6.899 -2.17,1.723 -4.71,2.649 -7.12,2.649 -3.57,0 -6.91,-1.61 -10.13,-4.715 v -36.594 l 7.94,-1.727 v -2.179 c -3.91,-1.387 -7.71,-1.961 -14.27,-1.961 -3.33,0 -6.55,0.23 -9.2,1.031 v 1.965"
         style="fill:#231f20;fill-opacity:1;fill-rule:nonzero;stroke:none"
         id="path34" /><path
         d="m 1111.44,456.68 c 5.18,-4.832 10.13,-7.254 16.22,-7.254 6.45,0 9.79,3.113 9.79,7.137 0,4.023 -2.31,6.55 -9.91,9.777 l -5.75,2.422 c -6.67,2.871 -10.35,7.703 -10.35,14.265 0,9.082 8.06,16.907 20.02,16.907 9.2,0 12.88,-2.754 12.88,-7.129 0,-1.731 -0.22,-3.227 -0.57,-4.836 -3.68,2.527 -8.75,4.375 -13.12,4.375 -7.36,0 -10.81,-3.223 -10.81,-7.141 0,-4.137 2.07,-6.433 8.97,-9.082 l 6.21,-2.422 c 8.29,-3.219 11.4,-7.476 11.4,-14.265 0,-8.86 -8.51,-16.903 -21.41,-16.903 -10.12,0 -14.6,3.211 -14.6,9.434 0,1.609 0.34,3.445 1.03,4.715"
         style="fill:#231f20;fill-opacity:1;fill-rule:nonzero;stroke:none"
         id="path36" /><path
         d="m 1159.62,475.664 0.36,15.293 h -6.33 v 3.801 l 12.42,12.312 3.8,0.461 -0.46,-10.351 h 15.18 l -0.81,-6.223 h -14.72 l -0.23,-14.492 c -0.11,-4.832 -0.11,-9.199 -0.11,-13.457 0,-9.324 2.76,-12.547 7.02,-12.547 3.33,0 6.21,1.152 8.5,2.996 l 1.16,-0.461 c -0.46,-6.785 -4.49,-10.242 -12.43,-10.242 -9.21,0 -13.69,4.836 -13.69,15.996 0,5.52 0.24,11.621 0.34,16.914"
         style="fill:#231f20;fill-opacity:1;fill-rule:nonzero;stroke:none"
         id="path38" /><path
         d="m 1207.59,449.426 c 3.57,0 8.17,1.387 11.05,3.113 v 16.106 c -13,0 -20.02,-5.411 -20.02,-11.622 0,-4.601 3.1,-7.597 8.97,-7.597 z m 11.05,24.629 v 3.101 c 0,12.422 -2.99,15.071 -10.25,15.071 -6.32,0 -12.42,-2.649 -17.25,-7.481 -0.23,1.152 -0.34,2.188 -0.34,3.457 0,7.363 5.41,11.621 18.86,11.621 11.62,0 18.53,-5.871 18.53,-15.418 0,-2.531 -0.35,-8.285 -0.46,-11.625 l -0.35,-18.64 c 0.81,-2.071 2.53,-4.246 4.61,-5.86 -1.73,-2.07 -4.84,-4.375 -7.83,-5.871 -2.18,1.379 -3.91,3.227 -5.3,5.637 -3.21,-3.106 -9.43,-5.516 -15.53,-5.516 -8.63,0 -14.6,5.399 -14.6,12.762 0,10.129 11.04,18.762 29.91,18.762"
         style="fill:#231f20;fill-opacity:1;fill-rule:nonzero;stroke:none"
         id="path40" /><path
         d="m 1259.12,449.426 c 3.56,0 8.16,1.387 11.04,3.113 v 16.106 c -13,0 -20.02,-5.411 -20.02,-11.622 0,-4.601 3.11,-7.597 8.98,-7.597 z m 11.04,24.629 v 3.101 c 0,12.422 -2.99,15.071 -10.24,15.071 -6.33,0 -12.42,-2.649 -17.26,-7.481 -0.22,1.152 -0.34,2.188 -0.34,3.457 0,7.363 5.41,11.621 18.87,11.621 11.62,0 18.52,-5.871 18.52,-15.418 0,-2.531 -0.35,-8.285 -0.46,-11.625 l -0.35,-18.64 c 0.81,-2.071 2.53,-4.246 4.61,-5.86 -1.73,-2.07 -4.83,-4.375 -7.83,-5.871 -2.18,1.379 -3.91,3.227 -5.29,5.637 -3.22,-3.106 -9.44,-5.516 -15.53,-5.516 -8.63,0 -14.61,5.399 -14.61,12.762 0,10.129 11.04,18.762 29.91,18.762"
         style="fill:#231f20;fill-opacity:1;fill-rule:nonzero;stroke:none"
         id="path42" /><path
         d="m 1298.32,475.664 0.35,15.293 h -6.33 v 3.801 l 12.42,12.312 3.8,0.461 -0.46,-10.351 h 15.19 l -0.81,-6.223 h -14.73 l -0.23,-14.492 c -0.11,-4.832 -0.11,-9.199 -0.11,-13.457 0,-9.324 2.76,-12.547 7.02,-12.547 3.33,0 6.21,1.152 8.5,2.996 l 1.16,-0.461 c -0.46,-6.785 -4.49,-10.242 -12.42,-10.242 -9.21,0 -13.7,4.836 -13.7,15.996 0,5.52 0.24,11.621 0.35,16.914"
         style="fill:#231f20;fill-opacity:1;fill-rule:nonzero;stroke:none"
         id="path44" /><path
         d="m 631.559,316.445 c 1.953,0.918 3.445,2.188 4.023,4.375 l 14.383,61.543 -6.215,1.387 v 2.766 c 2.992,0.8 8.398,1.375 11.852,1.375 h 3.796 l 10.122,-54.883 h 0.121 l 18.98,54.883 h 2.879 c 2.875,0 7.703,-0.235 11.043,-0.918 v -2.762 l -5.41,-1.379 2.648,-63.738 6.328,-1.731 v -2.304 c -3.453,-1.141 -6.097,-1.719 -9.433,-1.719 -4.719,0 -7.481,0.344 -10.129,1.152 v 1.953 c 2.187,1.035 3.57,2.414 3.57,5.977 l -0.687,50.976 h -0.117 l -20.938,-60.41 -3.453,0.235 -11.274,60.175 h -0.117 l -11.047,-54.187 6.559,-1.848 v -2.304 c -3.223,-1.258 -5.98,-1.719 -9.551,-1.719 -2.758,0 -5.637,0.461 -7.933,1.152 v 1.953"
         style="fill:#231f20;fill-opacity:1;fill-rule:nonzero;stroke:none"
         id="path46" /><path
         d="m 721.262,386.855 c 0,3.801 2.992,7.129 6.441,7.129 2.988,0 5.289,-2.293 5.289,-5.515 0,-3.918 -3.105,-7.141 -6.437,-7.141 -3.11,0 -5.293,2.078 -5.293,5.527 z m -5.524,-53.156 3.68,23.364 0.578,6.785 -6.906,2.187 v 2.18 c 3.683,1.387 7.363,1.961 11.504,1.961 2.078,0 3.683,-0.117 5.179,-0.692 l -5.179,-33.828 c -0.457,-3.449 -0.918,-9.316 -0.918,-12.304 0,-3.801 1.383,-5.532 4.601,-6.567 v -1.949 c -2.414,-1.035 -5.175,-1.613 -8.629,-1.613 -3.679,0 -5.523,1.953 -5.523,5.293 0,3.222 1.035,10.586 1.613,15.183"
         style="fill:#231f20;fill-opacity:1;fill-rule:nonzero;stroke:none"
         id="path48" /><path
         d="m 745.18,363.848 -7.02,2.187 v 2.18 c 3.68,1.387 7.133,1.961 11.391,1.961 1.5,0 3.105,-0.235 4.719,-0.813 l -3.684,-17.593 h 0.117 c 5.293,11.726 12.887,18.632 20.707,18.632 5.059,0 9.094,-3.566 9.094,-10.586 0,-3.683 -1.035,-9.543 -1.731,-14.496 l -2.07,-12.418 c -0.34,-2.648 -0.918,-7.14 -0.918,-9.55 0,-3.801 1.836,-5.293 5.403,-5.989 v -1.953 c -2.649,-1.387 -5.637,-2.187 -9.2,-2.187 -3.566,0 -5.636,1.953 -5.636,5.293 0,2.871 0.8,8.515 1.378,12.199 l 2.188,13.23 c 0.574,3.567 1.152,8.504 1.152,11.614 0,5.183 -2.304,6.902 -5.07,6.902 -6.434,0 -15.645,-12.422 -16.102,-28.762 l -0.695,-19.441 h -9.773 l 5.75,49.59"
         style="fill:#231f20;fill-opacity:1;fill-rule:nonzero;stroke:none"
         id="path50" /><path
         d="m 798.883,386.855 c 0,3.801 2.988,7.129 6.445,7.129 2.988,0 5.293,-2.293 5.293,-5.515 0,-3.918 -3.105,-7.141 -6.445,-7.141 -3.106,0 -5.293,2.078 -5.293,5.527 z m -5.52,-53.156 3.684,23.364 0.566,6.785 -6.894,2.187 v 2.18 c 3.679,1.387 7.363,1.961 11.504,1.961 2.07,0 3.679,-0.117 5.175,-0.692 l -5.175,-33.828 c -0.461,-3.449 -0.93,-9.316 -0.93,-12.304 0,-3.801 1.387,-5.532 4.609,-6.567 v -1.949 c -2.422,-1.035 -5.175,-1.613 -8.632,-1.613 -3.68,0 -5.516,1.953 -5.516,5.293 0,3.222 1.035,10.586 1.609,15.183"
         style="fill:#231f20;fill-opacity:1;fill-rule:nonzero;stroke:none"
         id="path52" /><path
         d="m 813.031,324.152 c 3.215,-3.105 7.012,-4.836 11.27,-4.836 5.41,0 9.777,3.106 9.777,7.942 0,3.797 -1.496,6.328 -7.129,11.394 l -4.023,3.684 c -5.293,4.82 -6.789,7.937 -6.789,12.996 0,7.59 7.246,15.188 17.832,15.188 8.398,0 12.539,-2.532 12.539,-6.211 0,-2.071 -0.809,-4.493 -2.07,-5.989 -3.34,3.457 -8.172,5.645 -12.54,5.645 -5.066,0 -7.714,-2.766 -7.714,-6.445 0,-3.34 1.386,-5.293 7.14,-10.469 l 4.364,-3.914 c 5.527,-4.953 7.363,-8.282 7.363,-13.352 0,-9.082 -9.199,-17.019 -21.278,-17.019 -7.246,0 -10.468,2.293 -10.468,6.55 0,2.071 0.683,3.457 1.726,4.836"
         style="fill:#231f20;fill-opacity:1;fill-rule:nonzero;stroke:none"
         id="path54" /><path
         d="m 857.309,354.988 1.496,7.367 c -2.532,0 -4.035,0.106 -6.446,0.34 v 1.496 c 3.68,5.172 9.434,10.243 15.528,13.809 h 1.726 l -1.953,-9.434 H 871 c 3.215,0 5.754,0.223 8.859,0.797 0,-4.937 -2.765,-7.125 -10.011,-7.125 h -3.223 l -1.953,-11.965 c -0.926,-5.527 -2.305,-15.078 -2.305,-19.675 0,-7.598 3.801,-10.93 8.86,-10.93 1.843,0 2.988,0.227 4.714,0.801 v -2.071 c -1.035,-2.761 -5.175,-5.515 -10.586,-5.515 -7.585,0 -11.621,5.058 -11.621,14.148 0,7.129 1.731,19.094 3.575,27.957"
         style="fill:#231f20;fill-opacity:1;fill-rule:nonzero;stroke:none"
         id="path56" /><path
         d="m 888.578,363.848 -7.019,2.187 v 2.18 c 3.679,1.387 7.136,1.961 11.16,1.961 1.496,0 3.34,-0.235 4.836,-0.813 l -3.45,-16.675 h 0.11 l 6.101,10.125 c 2.989,4.941 6.094,7.246 9.661,7.246 2.539,0 3.796,-1.614 3.796,-4.258 0,-1.836 -0.457,-4.141 -1.257,-5.985 -1.153,0.352 -2.305,0.457 -3.575,0.457 -7.246,0 -14.492,-7.929 -15.527,-29.218 l -0.918,-16.797 h -9.551 l 5.633,49.59"
         style="fill:#231f20;fill-opacity:1;fill-rule:nonzero;stroke:none"
         id="path58" /><path
         d="m 923.891,313.34 -7.598,50.625 -5.059,2.07 v 2.41 c 3.567,1.274 6.094,1.836 9.434,1.836 1.496,0 3.105,-0.34 4.719,-0.797 l 5.176,-46.593 h 0.117 c 6.55,11.621 12.656,29.914 12.656,37.277 0,3.223 -1.613,5.176 -4.035,6.551 v 1.847 c 2.07,1.036 4.492,1.715 7.246,1.715 3.918,0 5.988,-2.066 5.988,-6.89 0,-5.071 -3.34,-15.196 -10.234,-28.653 l -13.008,-25.429 c -8.398,-16.446 -17.492,-23.008 -25.313,-23.008 -5.636,0 -8.976,2.422 -8.976,5.984 0,1.262 0.234,2.988 0.812,4.141 3.106,-1.731 6.786,-2.305 10.704,-2.305 5.175,0 11.269,4.492 15.761,15.305 l 1.61,3.914"
         style="fill:#231f20;fill-opacity:1;fill-rule:nonzero;stroke:none"
         id="path60" /><path
         d="m 1006.58,349.238 c 0,10.235 -3.8,14.832 -8.861,14.832 -6.211,0 -13.809,-10.582 -13.809,-26.804 0,-13.114 4.375,-18.055 9.434,-18.055 5.527,0 13.236,9.539 13.236,30.027 z m -6.56,21.516 c 9.32,0 15.99,-6.106 15.99,-19.223 0,-24.383 -13.34,-38.765 -24.737,-38.765 -8.972,0 -16.453,6.902 -16.453,20.476 0,24.278 12.547,37.512 25.2,37.512"
         style="fill:#231f20;fill-opacity:1;fill-rule:nonzero;stroke:none"
         id="path62" /><path
         d="m 1030.61,361.199 h -6.1 c 0,3.567 2.53,6.438 6.78,6.438 l 1.16,9.785 c 1.37,11.848 10.24,19.328 21.05,19.328 10.81,0 12.42,-1.613 12.42,-4.484 0,-1.493 -0.46,-3.575 -1.26,-5.411 -4.14,2.532 -7.71,3.567 -12.31,3.567 -5.98,0 -10.59,-4.602 -11.39,-11.848 l -1.27,-11.043 h 4.95 c 3.23,0 5.87,0.106 9.2,0.457 0,-4.715 -1.26,-6.668 -9.2,-6.668 h -5.63 l -6.45,-60.175 c -1.15,-10.813 -5.87,-15.305 -11.28,-15.305 -2.87,0 -5.75,0.918 -7.12,2.187 v 1.731 c 5.17,1.609 8.85,4.937 9.55,10.691 l 6.9,60.75"
         style="fill:#231f20;fill-opacity:1;fill-rule:nonzero;stroke:none"
         id="path64" /><path
         d="m 1069.82,316.445 c 2.07,0.801 4.14,2.649 4.36,5.059 l 7.03,60.754 -6.45,1.836 v 2.304 c 3.46,1.258 6.45,1.727 10.59,1.727 3.34,0 6.56,-0.352 8.97,-1.152 v -1.961 c -2.19,-0.801 -4.02,-2.532 -4.26,-4.942 l -7.13,-60.859 6.44,-1.848 v -2.304 c -3.33,-1.141 -6.33,-1.719 -10.47,-1.719 -3.33,0 -6.67,0.461 -9.08,1.152 v 1.953"
         style="fill:#231f20;fill-opacity:1;fill-rule:nonzero;stroke:none"
         id="path66" /><path
         d="m 1106.73,363.848 -7.02,2.187 v 2.18 c 3.68,1.387 7.14,1.961 11.4,1.961 1.49,0 3.1,-0.235 4.72,-0.813 l -3.69,-17.593 h 0.11 c 5.29,11.726 12.89,18.632 20.71,18.632 5.06,0 9.1,-3.566 9.1,-10.586 0,-3.683 -1.04,-9.543 -1.73,-14.496 l -2.07,-12.418 c -0.34,-2.648 -0.92,-7.14 -0.92,-9.55 0,-3.801 1.83,-5.293 5.4,-5.989 v -1.953 c -2.65,-1.387 -5.64,-2.187 -9.2,-2.187 -3.56,0 -5.63,1.953 -5.63,5.293 0,2.871 0.8,8.515 1.37,12.199 l 2.19,13.23 c 0.58,3.567 1.15,8.504 1.15,11.614 0,5.183 -2.3,6.902 -5.07,6.902 -6.43,0 -15.64,-12.422 -16.1,-28.762 l -0.69,-19.441 h -9.78 l 5.75,49.59"
         style="fill:#231f20;fill-opacity:1;fill-rule:nonzero;stroke:none"
         id="path68" /><path
         d="m 1158.6,361.199 h -6.1 c 0,3.567 2.52,6.438 6.78,6.438 l 1.15,9.785 c 1.38,11.848 10.25,19.328 21.06,19.328 10.81,0 12.42,-1.613 12.42,-4.484 0,-1.493 -0.46,-3.575 -1.26,-5.411 -4.14,2.532 -7.71,3.567 -12.31,3.567 -5.98,0 -10.59,-4.602 -11.39,-11.848 l -1.27,-11.043 h 4.95 c 3.22,0 5.87,0.106 9.2,0.457 0,-4.715 -1.26,-6.668 -9.2,-6.668 H 1167 l -6.45,-60.175 c -1.15,-10.813 -5.87,-15.305 -11.28,-15.305 -2.87,0 -5.75,0.918 -7.13,2.187 v 1.731 c 5.18,1.609 8.86,4.937 9.55,10.691 l 6.91,60.75"
         style="fill:#231f20;fill-opacity:1;fill-rule:nonzero;stroke:none"
         id="path70" /><path
         d="m 1188.03,363.848 -7.02,2.187 v 2.18 c 3.68,1.387 7.14,1.961 11.16,1.961 1.5,0 3.34,-0.235 4.84,-0.813 l -3.45,-16.675 h 0.11 l 6.1,10.125 c 2.99,4.941 6.09,7.246 9.66,7.246 2.54,0 3.8,-1.614 3.8,-4.258 0,-1.836 -0.46,-4.141 -1.26,-5.985 -1.15,0.352 -2.31,0.457 -3.58,0.457 -7.24,0 -14.49,-7.929 -15.52,-29.218 l -0.92,-16.797 h -9.55 l 5.63,49.59"
         style="fill:#231f20;fill-opacity:1;fill-rule:nonzero;stroke:none"
         id="path72" /><path
         d="m 1242.55,344.055 3.23,19.101 c -1.61,0.457 -4.26,0.692 -5.99,0.692 -9.32,0 -17.26,-9.785 -17.26,-29.336 0,-9.785 2.99,-13.926 5.76,-13.926 4.95,0 11.62,7.707 14.26,23.469 z m -28.87,-11.153 c 0,23.7 13.57,37.379 29.22,37.379 3.68,0 8.97,-0.797 12.77,-1.836 l -4.02,-20.132 c -1.39,-5.977 -2.53,-16.68 -2.65,-21.633 0,-7.364 1.49,-8.739 5.52,-9.317 v -2.414 c -2.99,-1.031 -6.67,-1.726 -10.24,-1.726 -1.84,0 -3.34,0.343 -4.83,0.8 l 2.64,17.149 h -0.11 c -4.48,-11.387 -11.74,-18.524 -17.83,-18.524 -5.41,0 -10.47,7.02 -10.47,20.254"
         style="fill:#231f20;fill-opacity:1;fill-rule:nonzero;stroke:none"
         id="path74" /><path
         d="m 1260.36,324.152 c 3.22,-3.105 7.02,-4.836 11.28,-4.836 5.41,0 9.77,3.106 9.77,7.942 0,3.797 -1.49,6.328 -7.13,11.394 l -4.02,3.684 c -5.29,4.82 -6.79,7.937 -6.79,12.996 0,7.59 7.25,15.188 17.83,15.188 8.4,0 12.54,-2.532 12.54,-6.211 0,-2.071 -0.81,-4.493 -2.07,-5.989 -3.34,3.457 -8.17,5.645 -12.54,5.645 -5.06,0 -7.71,-2.766 -7.71,-6.445 0,-3.34 1.39,-5.293 7.14,-10.469 l 4.36,-3.914 c 5.53,-4.953 7.37,-8.282 7.37,-13.352 0,-9.082 -9.2,-17.019 -21.28,-17.019 -7.25,0 -10.47,2.293 -10.47,6.55 0,2.071 0.68,3.457 1.72,4.836"
         style="fill:#231f20;fill-opacity:1;fill-rule:nonzero;stroke:none"
         id="path76" /><path
         d="m 1304.64,354.988 1.5,7.367 c -2.54,0 -4.04,0.106 -6.45,0.34 v 1.496 c 3.68,5.172 9.44,10.243 15.53,13.809 h 1.73 l -1.95,-9.434 h 3.33 c 3.22,0 5.76,0.223 8.86,0.797 0,-4.937 -2.76,-7.125 -10.01,-7.125 h -3.22 l -1.95,-11.965 c -0.93,-5.527 -2.31,-15.078 -2.31,-19.675 0,-7.598 3.8,-10.93 8.86,-10.93 1.85,0 2.99,0.227 4.72,0.801 v -2.071 c -1.04,-2.761 -5.18,-5.515 -10.59,-5.515 -7.59,0 -11.62,5.058 -11.62,14.148 0,7.129 1.73,19.094 3.57,27.957"
         style="fill:#231f20;fill-opacity:1;fill-rule:nonzero;stroke:none"
         id="path78" /><path
         d="m 1335.91,363.848 -7.02,2.187 v 2.18 c 3.68,1.387 7.14,1.961 11.16,1.961 1.5,0 3.34,-0.235 4.84,-0.813 l -3.45,-16.675 h 0.11 l 6.1,10.125 c 2.99,4.941 6.1,7.246 9.66,7.246 2.54,0 3.8,-1.614 3.8,-4.258 0,-1.836 -0.46,-4.141 -1.26,-5.985 -1.15,0.352 -2.31,0.457 -3.58,0.457 -7.24,0 -14.49,-7.929 -15.52,-29.218 l -0.92,-16.797 h -9.55 l 5.63,49.59"
         style="fill:#231f20;fill-opacity:1;fill-rule:nonzero;stroke:none"
         id="path80" /><path
         d="m 1364.43,332.207 2.65,13.574 c 0.81,3.914 1.72,10.352 1.72,13.926 0,3.789 -1.95,5.637 -5.29,6.438 v 1.96 c 2.65,1.258 5.53,2.071 9.09,2.071 3.68,0 5.64,-1.961 5.64,-5.293 0,-3.914 -1.26,-11.278 -2.41,-17.832 l -2.53,-12.774 c -0.58,-2.527 -1.04,-6.328 -1.04,-8.632 0,-3.223 1.61,-4.942 4.02,-4.942 5.41,0 14.96,9.66 16.34,27.149 l 1.26,19.902 c 2.88,1.269 6.8,2.187 10.36,2.187 l -3.22,-17.949 c -1.49,-7.82 -2.88,-18.293 -2.88,-25.195 0,-7.586 1.39,-8.856 5.29,-9.434 v -2.414 c -3.33,-1.031 -6.78,-1.726 -10.35,-1.726 -1.84,0 -3.34,0.234 -4.72,0.8 l 3.11,15.762 h -0.12 c -4.48,-7.93 -12.65,-16.797 -19.32,-16.797 -5.06,0 -8.86,4.153 -8.86,10.586 0,2.649 0.8,6.211 1.26,8.633"
         style="fill:#231f20;fill-opacity:1;fill-rule:nonzero;stroke:none"
         id="path82" /><path
         d="m 1411.93,332.902 c 0,25.418 11.96,37.735 24.04,37.735 6.91,0 10.01,-2.422 10.01,-5.528 0,-2.992 -0.92,-5.636 -2.65,-8.046 -2.52,4.257 -5.86,6.667 -9.89,6.667 -5.41,0 -12.65,-8.972 -12.65,-29.113 0,-10.691 4.25,-15.183 8.39,-15.183 4.15,0 8.63,2.988 11.74,6.906 0.57,-0.578 1.04,-1.731 1.04,-3.106 0,-5.754 -5.29,-10.929 -15.54,-10.929 -8.28,0 -14.49,6.672 -14.49,20.597"
         style="fill:#231f20;fill-opacity:1;fill-rule:nonzero;stroke:none"
         id="path84" /><path
         d="m 1454.6,354.988 1.5,7.367 c -2.54,0 -4.03,0.106 -6.45,0.34 v 1.496 c 3.68,5.172 9.44,10.243 15.53,13.809 h 1.73 l -1.95,-9.434 h 3.33 c 3.22,0 5.76,0.223 8.86,0.797 0,-4.937 -2.76,-7.125 -10.01,-7.125 h -3.22 l -1.95,-11.965 c -0.93,-5.527 -2.31,-15.078 -2.31,-19.675 0,-7.598 3.8,-10.93 8.86,-10.93 1.85,0 2.99,0.227 4.72,0.801 v -2.071 c -1.04,-2.761 -5.18,-5.515 -10.59,-5.515 -7.59,0 -11.62,5.058 -11.62,14.148 0,7.129 1.73,19.094 3.57,27.957"
         style="fill:#231f20;fill-opacity:1;fill-rule:nonzero;stroke:none"
         id="path86" /><path
         d="m 1481.5,332.207 2.65,13.574 c 0.81,3.914 1.72,10.352 1.72,13.926 0,3.789 -1.95,5.637 -5.29,6.438 v 1.96 c 2.65,1.258 5.53,2.071 9.09,2.071 3.68,0 5.64,-1.961 5.64,-5.293 0,-3.914 -1.26,-11.278 -2.41,-17.832 l -2.53,-12.774 c -0.58,-2.527 -1.04,-6.328 -1.04,-8.632 0,-3.223 1.61,-4.942 4.02,-4.942 5.41,0 14.96,9.66 16.34,27.149 l 1.26,19.902 c 2.88,1.269 6.8,2.187 10.36,2.187 l -3.22,-17.949 c -1.49,-7.82 -2.88,-18.293 -2.88,-25.195 0,-7.586 1.39,-8.856 5.29,-9.434 v -2.414 c -3.33,-1.031 -6.78,-1.726 -10.35,-1.726 -1.84,0 -3.34,0.234 -4.72,0.8 l 3.11,15.762 h -0.12 c -4.48,-7.93 -12.65,-16.797 -19.32,-16.797 -5.06,0 -8.86,4.153 -8.86,10.586 0,2.649 0.8,6.211 1.26,8.633"
         style="fill:#231f20;fill-opacity:1;fill-rule:nonzero;stroke:none"
         id="path88" /><path
         d="m 1536.13,363.848 -7.02,2.187 v 2.18 c 3.68,1.387 7.14,1.961 11.16,1.961 1.49,0 3.34,-0.235 4.83,-0.813 l -3.44,-16.675 h 0.1 l 6.11,10.125 c 2.98,4.941 6.09,7.246 9.65,7.246 2.54,0 3.8,-1.614 3.8,-4.258 0,-1.836 -0.46,-4.141 -1.26,-5.985 -1.15,0.352 -2.3,0.457 -3.57,0.457 -7.25,0 -14.49,-7.929 -15.53,-29.218 l -0.92,-16.797 h -9.55 l 5.64,49.59"
         style="fill:#231f20;fill-opacity:1;fill-rule:nonzero;stroke:none"
         id="path90" /><path
         d="m 1589.16,356.711 c 0,5.406 -2.19,7.48 -5.53,7.48 -5.06,0 -12.31,-8.742 -12.31,-21.972 10.47,0 17.84,5.633 17.84,14.492 z m -3.11,13.926 c 7.94,0 12.3,-4.035 12.3,-11.856 0,-13.578 -13.79,-21.855 -27.49,-21.855 0,-13.926 3.69,-17.258 10.36,-17.258 4.14,0 10.12,2.41 12.53,5.754 0.46,-0.461 1.16,-1.496 1.16,-2.766 0,-5.515 -7.37,-10.125 -16.68,-10.125 -9.67,0 -16.34,6.328 -16.34,20.02 0,25.887 13.11,38.086 24.16,38.086"
         style="fill:#231f20;fill-opacity:1;fill-rule:nonzero;stroke:none"
         id="path92" /><path
         d="m 664.574,214.055 3.223,19.101 c -1.609,0.457 -4.258,0.692 -5.984,0.692 -9.317,0 -17.258,-9.785 -17.258,-29.336 0,-9.785 2.996,-13.926 5.754,-13.926 4.945,0 11.621,7.707 14.265,23.469 z m -28.875,-11.153 c 0,23.7 13.574,37.379 29.223,37.379 3.683,0 8.973,-0.797 12.769,-1.836 l -4.031,-20.132 c -1.375,-5.977 -2.527,-16.68 -2.64,-21.633 0,-7.364 1.496,-8.739 5.519,-9.317 v -2.414 c -2.988,-1.031 -6.672,-1.726 -10.238,-1.726 -1.844,0 -3.336,0.343 -4.832,0.8 l 2.648,17.149 H 664 c -4.488,-11.387 -11.734,-18.524 -17.832,-18.524 -5.406,0 -10.469,7.02 -10.469,20.254"
         style="fill:#231f20;fill-opacity:1;fill-rule:nonzero;stroke:none"
         id="path94" /><path
         d="m 692.164,233.848 -7.023,2.187 v 2.18 c 3.683,1.387 7.132,1.961 11.39,1.961 1.5,0 3.11,-0.235 4.719,-0.813 l -3.684,-17.593 h 0.122 c 5.292,11.726 12.882,18.632 20.707,18.632 5.062,0 9.089,-3.566 9.089,-10.586 0,-3.683 -1.039,-9.543 -1.726,-14.496 l -2.07,-12.418 c -0.348,-2.648 -0.922,-7.14 -0.922,-9.55 0,-3.801 1.839,-5.293 5.41,-5.989 v -1.953 c -2.649,-1.387 -5.641,-2.187 -9.207,-2.187 -3.571,0 -5.641,1.953 -5.641,5.293 0,2.871 0.809,8.515 1.383,12.199 l 2.187,13.23 c 0.579,3.567 1.149,8.504 1.149,11.614 0,5.183 -2.301,6.902 -5.059,6.902 -6.445,0 -15.648,-12.422 -16.109,-28.762 l -0.691,-19.441 h -9.778 l 5.754,49.59"
         style="fill:#231f20;fill-opacity:1;fill-rule:nonzero;stroke:none"
         id="path96" /><path
         d="m 765.883,214.172 3.222,19.101 c -1.492,0.34 -3.679,0.575 -5.515,0.575 -9.551,0 -17.723,-8.977 -17.723,-29.336 0,-9.551 2.766,-13.926 5.754,-13.926 4.606,0 11.852,7.48 14.262,23.586 z m -28.871,-11.27 c 0,23.125 13.226,37.379 28.648,37.379 1.375,0 3.106,-0.105 4.375,-0.222 l 3.328,20.714 -7.586,2.176 v 2.188 c 3.563,1.269 7.246,1.847 12.196,1.847 1.953,0 3.789,-0.238 5.285,-0.695 l -8.399,-47.629 c -0.8,-4.832 -2.531,-17.605 -2.531,-21.98 0,-7.469 1.613,-8.739 5.527,-9.317 v -2.414 c -3.562,-1.148 -6.445,-1.726 -10.242,-1.726 -1.953,0 -3.449,0.343 -4.836,0.8 l 2.883,17.375 h -0.117 c -4.258,-10.695 -11.504,-18.75 -18.063,-18.75 -5.175,0 -10.468,6.786 -10.468,20.254"
         style="fill:#231f20;fill-opacity:1;fill-rule:nonzero;stroke:none"
         id="path98" /><path
         d="m 809,252.141 -5.871,1.953 v 2.304 c 3.449,1.258 6.555,1.727 9.777,1.727 3.34,0 6.102,-0.234 9.09,-1.152 v -1.961 c -1.953,-0.567 -2.988,-2.071 -2.879,-3.332 l 5.41,-53.387 h 0.118 l 18.632,59.023 10.586,0.575 4.61,-61.668 h 0.105 l 17.727,56.035 -6.106,1.836 v 2.304 c 3.457,1.153 7.141,1.727 11.047,1.727 2.305,0 4.598,-0.352 6.68,-1.152 v -1.961 c -1.965,-0.567 -3.457,-1.719 -4.035,-3.332 l -24.383,-68.223 -8.176,-0.352 -5.293,64.778 h -0.117 l -20.125,-64.426 -7.715,-0.352 -9.082,69.036"
         style="fill:#231f20;fill-opacity:1;fill-rule:nonzero;stroke:none"
         id="path100" /><path
         d="m 910.785,214.055 3.223,19.101 c -1.61,0.457 -4.258,0.692 -5.985,0.692 -9.316,0 -17.257,-9.785 -17.257,-29.336 0,-9.785 2.988,-13.926 5.754,-13.926 4.949,0 11.621,7.707 14.265,23.469 z M 881.91,202.902 c 0,23.7 13.574,37.379 29.219,37.379 3.68,0 8.973,-0.797 12.773,-1.836 l -4.023,-20.132 c -1.387,-5.977 -2.531,-16.68 -2.649,-21.633 0,-7.364 1.497,-8.739 5.52,-9.317 v -2.414 c -2.988,-1.031 -6.672,-1.726 -10.234,-1.726 -1.848,0 -3.34,0.343 -4.836,0.8 l 2.648,17.149 h -0.117 c -4.484,-11.387 -11.738,-18.524 -17.832,-18.524 -5.41,0 -10.469,7.02 -10.469,20.254"
         style="fill:#231f20;fill-opacity:1;fill-rule:nonzero;stroke:none"
         id="path102" /><path
         d="m 936.996,224.988 1.496,7.367 c -2.531,0 -4.035,0.106 -6.445,0.34 v 1.496 c 3.68,5.172 9.433,10.243 15.527,13.805 h 1.727 l -1.953,-9.43 h 3.34 c 3.214,0 5.753,0.223 8.859,0.797 0,-4.937 -2.766,-7.125 -10.012,-7.125 h -3.222 l -1.954,-11.965 c -0.925,-5.527 -2.304,-15.078 -2.304,-19.675 0,-7.602 3.8,-10.93 8.859,-10.93 1.844,0 2.988,0.227 4.715,0.801 v -2.071 c -1.035,-2.761 -5.176,-5.515 -10.586,-5.515 -7.586,0 -11.621,5.058 -11.621,14.148 0,7.129 1.73,19.09 3.574,27.957"
         style="fill:#231f20;fill-opacity:1;fill-rule:nonzero;stroke:none"
         id="path104" /><path
         d="m 988.402,226.711 c 0,5.406 -2.187,7.48 -5.527,7.48 -5.059,0 -12.305,-8.742 -12.305,-21.972 10.469,0 17.832,5.633 17.832,14.492 z m -3.105,13.926 c 7.941,0 12.305,-4.035 12.305,-11.856 0,-13.578 -13.797,-21.855 -27.489,-21.855 0,-13.93 3.68,-17.258 10.352,-17.258 4.14,0 10.125,2.41 12.539,5.754 0.457,-0.461 1.152,-1.496 1.152,-2.766 0,-5.515 -7.363,-10.125 -16.679,-10.125 -9.668,0 -16.34,6.328 -16.34,20.02 0,25.887 13.117,38.086 24.16,38.086"
         style="fill:#231f20;fill-opacity:1;fill-rule:nonzero;stroke:none"
         id="path106" /><path
         d="m 1009.44,233.848 -7.02,2.187 v 2.18 c 3.68,1.387 7.14,1.961 11.16,1.961 1.49,0 3.34,-0.235 4.83,-0.813 l -3.44,-16.675 h 0.1 l 6.11,10.125 c 2.99,4.941 6.09,7.246 9.65,7.246 2.54,0 3.8,-1.614 3.8,-4.258 0,-1.836 -0.46,-4.141 -1.26,-5.985 -1.15,0.352 -2.3,0.457 -3.57,0.457 -7.25,0 -14.49,-7.929 -15.53,-29.218 l -0.92,-16.797 h -9.55 l 5.64,49.59"
         style="fill:#231f20;fill-opacity:1;fill-rule:nonzero;stroke:none"
         id="path108" /><path
         d="m 1049.34,186.445 c 1.95,0.918 3.45,2.188 4.02,4.375 l 14.39,61.543 -6.21,1.387 v 2.766 c 2.99,0.8 8.4,1.375 11.84,1.375 h 3.8 l 10.13,-54.883 h 0.11 l 18.98,54.883 h 2.88 c 2.87,0 7.71,-0.235 11.05,-0.918 v -2.762 l -5.41,-1.379 2.64,-63.738 6.33,-1.731 v -2.304 c -3.45,-1.141 -6.09,-1.719 -9.43,-1.719 -4.72,0 -7.48,0.344 -10.13,1.152 v 1.953 c 2.19,1.035 3.57,2.414 3.57,5.977 l -0.69,50.976 h -0.12 l -20.93,-60.41 -3.46,0.235 -11.27,60.175 h -0.12 l -11.04,-54.187 6.56,-1.848 v -2.304 c -3.22,-1.258 -5.99,-1.719 -9.55,-1.719 -2.76,0 -5.64,0.461 -7.94,1.152 v 1.953"
         style="fill:#231f20;fill-opacity:1;fill-rule:nonzero;stroke:none"
         id="path110" /><path
         d="m 1159.07,214.055 3.22,19.101 c -1.61,0.457 -4.26,0.692 -5.99,0.692 -9.31,0 -17.25,-9.785 -17.25,-29.336 0,-9.785 2.99,-13.926 5.75,-13.926 4.95,0 11.62,7.707 14.27,23.469 z m -28.88,-11.153 c 0,23.7 13.57,37.379 29.22,37.379 3.68,0 8.97,-0.797 12.77,-1.836 l -4.02,-20.132 c -1.39,-5.977 -2.53,-16.68 -2.65,-21.633 0,-7.364 1.5,-8.739 5.52,-9.317 v -2.414 c -2.99,-1.031 -6.67,-1.726 -10.23,-1.726 -1.85,0 -3.34,0.343 -4.84,0.8 l 2.65,17.149 h -0.12 c -4.48,-11.387 -11.74,-18.524 -17.83,-18.524 -5.41,0 -10.47,7.02 -10.47,20.254"
         style="fill:#231f20;fill-opacity:1;fill-rule:nonzero;stroke:none"
         id="path112" /><path
         d="m 1186.66,233.848 -7.03,2.187 v 2.18 c 3.69,1.387 7.14,1.961 11.4,1.961 1.49,0 3.11,-0.235 4.72,-0.813 l -3.68,-17.593 h 0.1 c 5.3,11.726 12.89,18.632 20.72,18.632 5.05,0 9.09,-3.566 9.09,-10.586 0,-3.683 -1.04,-9.543 -1.73,-14.496 l -2.07,-12.418 c -0.34,-2.648 -0.92,-7.14 -0.92,-9.55 0,-3.801 1.84,-5.293 5.4,-5.989 v -1.953 c -2.65,-1.387 -5.63,-2.187 -9.2,-2.187 -3.56,0 -5.63,1.953 -5.63,5.293 0,2.871 0.8,8.515 1.37,12.199 l 2.19,13.23 c 0.58,3.567 1.15,8.504 1.15,11.614 0,5.183 -2.3,6.902 -5.06,6.902 -6.44,0 -15.65,-12.422 -16.11,-28.762 l -0.69,-19.441 h -9.78 l 5.76,49.59"
         style="fill:#231f20;fill-opacity:1;fill-rule:nonzero;stroke:none"
         id="path114" /><path
         d="m 1260.38,214.055 3.22,19.101 c -1.61,0.457 -4.26,0.692 -5.99,0.692 -9.31,0 -17.25,-9.785 -17.25,-29.336 0,-9.785 2.98,-13.926 5.75,-13.926 4.95,0 11.62,7.707 14.27,23.469 z m -28.88,-11.153 c 0,23.7 13.57,37.379 29.22,37.379 3.68,0 8.97,-0.797 12.77,-1.836 l -4.02,-20.132 c -1.39,-5.977 -2.53,-16.68 -2.65,-21.633 0,-7.364 1.5,-8.739 5.52,-9.317 v -2.414 c -2.99,-1.031 -6.67,-1.726 -10.24,-1.726 -1.84,0 -3.34,0.343 -4.83,0.8 l 2.65,17.149 h -0.12 c -4.48,-11.387 -11.74,-18.524 -17.83,-18.524 -5.41,0 -10.47,7.02 -10.47,20.254"
         style="fill:#231f20;fill-opacity:1;fill-rule:nonzero;stroke:none"
         id="path116" /><path
         d="m 1309.71,214.863 2.65,18.41 c -1.85,0.457 -3.8,0.575 -5.76,0.575 -8.86,0 -17.02,-9.551 -17.02,-29.336 0,-9.903 2.98,-13.926 5.86,-13.926 4.84,0 11.97,7.707 14.27,24.277 z m -29.45,-46.133 c 0,-4.492 3.56,-7.597 10.01,-7.597 8.4,0 15.07,6.211 16.68,19.562 l 2.19,20.243 h -0.12 c -4.38,-10.926 -11.74,-18.172 -17.83,-18.172 -5.07,0 -10.47,6.55 -10.47,20.476 0,22.09 13,37.039 28.64,37.039 4.49,0 9.43,-0.797 13.35,-1.836 l -4.49,-22.086 c -1.04,-5.531 -1.72,-17.257 -1.72,-23.246 0,-26.226 -12.89,-37.39 -28.08,-37.39 -10.35,0 -16.45,4.492 -16.45,10.586 0,5.527 5.64,9.89 11.39,9.89 -2.3,-2.41 -3.1,-4.715 -3.1,-7.469"
         style="fill:#231f20;fill-opacity:1;fill-rule:nonzero;stroke:none"
         id="path118" /><path
         d="m 1356.4,226.711 c 0,5.406 -2.19,7.48 -5.53,7.48 -5.05,0 -12.3,-8.742 -12.3,-21.972 10.47,0 17.83,5.633 17.83,14.492 z m -3.1,13.926 c 7.94,0 12.3,-4.035 12.3,-11.856 0,-13.578 -13.8,-21.855 -27.49,-21.855 0,-13.93 3.68,-17.258 10.35,-17.258 4.14,0 10.13,2.41 12.54,5.754 0.46,-0.461 1.15,-1.496 1.15,-2.766 0,-5.515 -7.36,-10.125 -16.68,-10.125 -9.66,0 -16.33,6.328 -16.33,20.02 0,25.887 13.11,38.086 24.16,38.086"
         style="fill:#231f20;fill-opacity:1;fill-rule:nonzero;stroke:none"
         id="path120" /><path
         d="m 1377.54,233.848 -7.02,2.187 v 2.18 c 3.68,1.387 7.14,1.961 11.4,1.961 1.49,0 3.1,-0.235 4.72,-0.813 l -3.69,-17.711 h 0.11 c 5.19,11.621 12.32,18.75 20.48,18.75 5.07,0 8.06,-3.449 8.06,-8.047 0,-2.082 -0.35,-4.492 -0.7,-5.988 l -1.14,-4.14 h 0.11 c 4.15,9.316 13.01,18.175 20.13,18.175 5.07,0 8.86,-3.683 8.86,-10.351 0,-4.258 -0.92,-9.555 -1.72,-14.961 l -1.72,-10.473 c -0.46,-2.984 -1.27,-8.738 -1.27,-11.265 0,-3.801 1.96,-5.071 5.52,-5.872 v -1.953 c -2.64,-1.386 -5.75,-2.187 -9.21,-2.187 -3.68,0 -5.63,1.953 -5.63,5.293 0,3.222 1.03,10.234 1.61,13.918 l 1.95,11.504 c 0.58,3.679 1.27,8.75 1.27,11.851 0,4.719 -1.73,6.672 -4.25,6.672 -6.79,0 -15.31,-11.047 -16.11,-24.851 l -1.15,-23.469 h -10.24 c 0.57,2.765 1.15,7.707 1.49,10.351 l 2.88,20.137 c 0.34,3.449 0.92,7.942 0.92,10.703 0,5.176 -1.73,7.129 -4.72,7.129 -6.44,0 -15.76,-12.082 -16.22,-28.879 l -0.69,-19.441 h -9.78 l 5.75,49.59"
         style="fill:#231f20;fill-opacity:1;fill-rule:nonzero;stroke:none"
         id="path122" /><path
         d="m 1475.88,226.711 c 0,5.406 -2.18,7.48 -5.52,7.48 -5.06,0 -12.31,-8.742 -12.31,-21.972 10.47,0 17.83,5.633 17.83,14.492 z m -3.1,13.926 c 7.94,0 12.3,-4.035 12.3,-11.856 0,-13.578 -13.8,-21.855 -27.49,-21.855 0,-13.93 3.68,-17.258 10.35,-17.258 4.14,0 10.13,2.41 12.54,5.754 0.46,-0.461 1.16,-1.496 1.16,-2.766 0,-5.515 -7.37,-10.125 -16.68,-10.125 -9.67,0 -16.34,6.328 -16.34,20.02 0,25.887 13.11,38.086 24.16,38.086"
         style="fill:#231f20;fill-opacity:1;fill-rule:nonzero;stroke:none"
         id="path124" /><path
         d="m 1497.03,233.848 -7.03,2.187 v 2.18 c 3.69,1.387 7.14,1.961 11.4,1.961 1.5,0 3.11,-0.235 4.72,-0.813 l -3.68,-17.593 h 0.1 c 5.3,11.726 12.89,18.632 20.72,18.632 5.06,0 9.09,-3.566 9.09,-10.586 0,-3.683 -1.04,-9.543 -1.73,-14.496 l -2.07,-12.418 c -0.34,-2.648 -0.92,-7.14 -0.92,-9.55 0,-3.801 1.84,-5.293 5.4,-5.989 v -1.953 c -2.64,-1.387 -5.63,-2.187 -9.2,-2.187 -3.56,0 -5.63,1.953 -5.63,5.293 0,2.871 0.8,8.515 1.38,12.199 l 2.18,13.23 c 0.58,3.567 1.16,8.504 1.16,11.614 0,5.183 -2.31,6.902 -5.07,6.902 -6.44,0 -15.65,-12.422 -16.11,-28.762 l -0.69,-19.441 h -9.78 l 5.76,49.59"
         style="fill:#231f20;fill-opacity:1;fill-rule:nonzero;stroke:none"
         id="path126" /><path
         d="m 1547.87,224.988 1.49,7.367 c -2.54,0 -4.03,0.106 -6.44,0.34 v 1.496 c 3.68,5.172 9.43,10.243 15.52,13.805 h 1.73 l -1.95,-9.43 h 3.33 c 3.22,0 5.76,0.223 8.87,0.797 0,-4.937 -2.77,-7.125 -10.01,-7.125 h -3.23 l -1.95,-11.965 c -0.93,-5.527 -2.31,-15.078 -2.31,-19.675 0,-7.602 3.8,-10.93 8.86,-10.93 1.85,0 2.99,0.227 4.72,0.801 v -2.071 c -1.04,-2.761 -5.18,-5.515 -10.59,-5.515 -7.58,0 -11.62,5.058 -11.62,14.148 0,7.129 1.73,19.09 3.58,27.957"
         style="fill:#231f20;fill-opacity:1;fill-rule:nonzero;stroke:none"
         id="path128" /></g></g></svg>
